<?xml version="1.0" encoding="UTF-8" standalone="no"?>
<!-- Generator: Adobe Illustrator 18.0.0, SVG Export Plug-In . SVG Version: 6.00 Build 0)  -->

<svg
   xmlns:dc="http://purl.org/dc/elements/1.1/"
   xmlns:cc="http://creativecommons.org/ns#"
   xmlns:rdf="http://www.w3.org/1999/02/22-rdf-syntax-ns#"
   xmlns:svg="http://www.w3.org/2000/svg"
   xmlns="http://www.w3.org/2000/svg"
   xmlns:sodipodi="http://sodipodi.sourceforge.net/DTD/sodipodi-0.dtd"
   xmlns:inkscape="http://www.inkscape.org/namespaces/inkscape"
   version="1.1"
   id="Capa_1"
   x="0px"
   y="0px"
   viewBox="0 0 355.175 355.175"
   style="enable-background:new 0 0 355.175 355.175;"
   xml:space="preserve"
   sodipodi:docname="altitude.svg"
   inkscape:version="0.92.1 r15371"><metadata
     id="metadata41"><rdf:RDF><cc:Work
         rdf:about=""><dc:format>image/svg+xml</dc:format><dc:type
           rdf:resource="http://purl.org/dc/dcmitype/StillImage" /><dc:title></dc:title></cc:Work></rdf:RDF></metadata><defs
     id="defs39" /><sodipodi:namedview
     pagecolor="#ffffff"
     bordercolor="#666666"
     borderopacity="1"
     objecttolerance="10"
     gridtolerance="10"
     guidetolerance="10"
     inkscape:pageopacity="0"
     inkscape:pageshadow="2"
     inkscape:window-width="1366"
     inkscape:window-height="745"
     id="namedview37"
     showgrid="false"
     inkscape:zoom="0.6644612"
     inkscape:cx="177.58749"
     inkscape:cy="177.58749"
     inkscape:window-x="-8"
     inkscape:window-y="-8"
     inkscape:window-maximized="1"
     inkscape:current-layer="Capa_1" /><g
     id="g4"
     style="stroke:#000000;stroke-opacity:1;stroke-width:8;stroke-miterlimit:4;stroke-dasharray:none"><path
       d="m 346.175,191.576 h -46.989 l -33.557,-36.854 c -3.194,-3.508 -8.563,-3.934 -12.27,-0.975 l -20.818,16.62 -54.918,-86.747 c -1.65,-2.606 -4.52,-4.186 -7.604,-4.186 -3.084,0 -5.954,1.58 -7.604,4.186 L 115.522,157.691 97.94,131.962 c -1.677,-2.454 -4.458,-3.922 -7.431,-3.922 -2.973,0 -5.753,1.468 -7.431,3.922 L 42.34,191.576 H 9 c -4.971,0 -9,4.029 -9,9 0,4.971 4.029,9 9,9 h 21.039 l -7.162,10.479 c -2.805,4.104 -1.751,9.704 2.353,12.509 1.553,1.062 3.321,1.57 5.07,1.57 2.873,0 5.696,-1.373 7.439,-3.923 l 3.47,-5.078 49.301,-72.141 14.529,21.261 -32.212,50.881 -23.292,36.792 c -2.659,4.2 -1.41,9.759 2.79,12.418 1.494,0.945 3.159,1.396 4.806,1.396 2.981,0 5.899,-1.481 7.612,-4.187 l 4.277,-6.756 101,-159.536 82.055,129.612 2.049,3.236 c 2.658,4.199 8.218,5.448 12.418,2.79 3.822,-2.42 5.19,-7.24 3.402,-11.253 -0.177,-0.396 -0.373,-0.788 -0.612,-1.165 l -27.104,-42.813 15.771,-12.591 54.048,59.359 6.299,6.918 c 1.776,1.951 4.212,2.941 6.657,2.941 2.163,0 4.332,-0.775 6.057,-2.345 3.675,-3.347 3.942,-9.039 0.596,-12.714 l -16.08,-17.66 h 30.6 c 4.971,0 9,-4.029 9,-9 0,-4.971 -4.03,-9 -9.001,-9 z"
       id="path2"
       inkscape:connector-curvature="0"
       style="stroke:#000000;stroke-opacity:1;stroke-width:8;stroke-miterlimit:4;stroke-dasharray:none" /></g><g
     id="g6" /><g
     id="g8" /><g
     id="g10" /><g
     id="g12" /><g
     id="g14" /><g
     id="g16" /><g
     id="g18" /><g
     id="g20" /><g
     id="g22" /><g
     id="g24" /><g
     id="g26" /><g
     id="g28" /><g
     id="g30" /><g
     id="g32" /><g
     id="g34" /></svg>