<?xml version="1.0" encoding="UTF-8" standalone="no"?>
<!-- Generator: Adobe Illustrator 19.0.0, SVG Export Plug-In . SVG Version: 6.00 Build 0)  -->

<svg
   xmlns:dc="http://purl.org/dc/elements/1.1/"
   xmlns:cc="http://creativecommons.org/ns#"
   xmlns:rdf="http://www.w3.org/1999/02/22-rdf-syntax-ns#"
   xmlns:svg="http://www.w3.org/2000/svg"
   xmlns="http://www.w3.org/2000/svg"
   xmlns:sodipodi="http://sodipodi.sourceforge.net/DTD/sodipodi-0.dtd"
   xmlns:inkscape="http://www.inkscape.org/namespaces/inkscape"
   version="1.1"
   id="Layer_1"
   x="0px"
   y="0px"
   viewBox="0 0 512 512"
   style="enable-background:new 0 0 512 512;"
   xml:space="preserve"
   sodipodi:docname="barometer.svg"
   inkscape:version="0.92.1 r15371"><metadata
     id="metadata121"><rdf:RDF><cc:Work
         rdf:about=""><dc:format>image/svg+xml</dc:format><dc:type
           rdf:resource="http://purl.org/dc/dcmitype/StillImage" /><dc:title></dc:title></cc:Work></rdf:RDF></metadata><defs
     id="defs119" /><sodipodi:namedview
     pagecolor="#ffffff"
     bordercolor="#666666"
     borderopacity="1"
     objecttolerance="10"
     gridtolerance="10"
     guidetolerance="10"
     inkscape:pageopacity="0"
     inkscape:pageshadow="2"
     inkscape:window-width="1366"
     inkscape:window-height="745"
     id="namedview117"
     showgrid="false"
     inkscape:zoom="0.4609375"
     inkscape:cx="256"
     inkscape:cy="256"
     inkscape:window-x="-8"
     inkscape:window-y="-8"
     inkscape:window-maximized="1"
     inkscape:current-layer="Layer_1" /><g
     id="g6"
     style="stroke:#000000;stroke-width:5;stroke-miterlimit:4;stroke-dasharray:none;stroke-opacity:1"><g
       id="g4"
       style="stroke:#000000;stroke-width:5;stroke-miterlimit:4;stroke-dasharray:none;stroke-opacity:1"><path
         d="m 367.37,243.13 c -10.26,-10.26 -21.688,-18.929 -33.982,-25.886 0.068,-0.406 0.112,-0.82 0.112,-1.245 v -6.134 c 0,-15.027 -9.021,-28.49 -22.5,-34.378 V 55 C 311,24.673 286.327,0 256,0 225.673,0 201,24.673 201,55 v 120.537 c -13.47,5.877 -22.5,19.355 -22.5,34.383 v 11.752 c -0.005,0.292 0.009,0.586 0.038,0.879 0.004,0.037 0.011,0.072 0.015,0.109 0.024,0.206 0.053,0.411 0.094,0.616 0.014,0.072 0.035,0.142 0.051,0.214 0.038,0.164 0.077,0.328 0.126,0.491 0.031,0.104 0.071,0.204 0.106,0.306 0.045,0.128 0.087,0.256 0.14,0.382 0.053,0.128 0.115,0.251 0.175,0.376 0.042,0.087 0.076,0.176 0.122,0.262 0.007,0.013 0.015,0.024 0.022,0.037 0.063,0.117 0.134,0.228 0.203,0.341 0.062,0.103 0.121,0.209 0.187,0.308 0.013,0.019 0.028,0.037 0.041,0.056 0.537,0.783 1.202,1.437 1.954,1.948 0.012,0.008 0.023,0.018 0.035,0.026 0.137,0.092 0.28,0.174 0.422,0.257 0.07,0.041 0.138,0.087 0.21,0.125 0.096,0.052 0.196,0.094 0.294,0.141 0.123,0.06 0.244,0.123 0.371,0.176 0.048,0.02 0.098,0.035 0.146,0.054 0.458,0.181 0.937,0.316 1.433,0.404 0.178,0.032 0.356,0.063 0.537,0.082 0.04,0.004 0.082,0.004 0.122,0.007 0.211,0.019 0.423,0.031 0.636,0.032 0.007,0 0.013,0.001 0.02,0.001 0.044,0 0.087,-0.006 0.132,-0.007 0.198,-0.003 0.395,-0.011 0.593,-0.03 0.088,-0.008 0.174,-0.024 0.261,-0.036 0.154,-0.02 0.307,-0.04 0.46,-0.07 0.127,-0.025 0.251,-0.059 0.377,-0.09 0.109,-0.027 0.218,-0.051 0.326,-0.084 0.168,-0.05 0.332,-0.111 0.495,-0.172 0.064,-0.024 0.128,-0.044 0.191,-0.07 0.211,-0.086 0.416,-0.183 0.616,-0.287 0.017,-0.009 0.034,-0.015 0.051,-0.024 0.01,-0.005 0.02,-0.01 0.03,-0.015 0.018,-0.01 0.037,-0.018 0.054,-0.028 C 209.902,217.668 232.865,212 256,212 c 38.063,0 73.849,14.822 100.763,41.737 26.915,26.915 41.737,62.7 41.737,100.763 C 398.5,433.075 334.575,497 256,497 217.937,497 182.151,482.178 155.237,455.263 128.322,428.348 113.5,392.563 113.5,354.5 c 0,-43.437 19.45,-83.962 53.364,-111.187 3.229,-2.593 3.746,-7.313 1.153,-10.543 -2.593,-3.229 -7.313,-3.748 -10.544,-1.154 C 119.995,261.703 98.5,306.492 98.5,354.5 c 0,42.07 16.383,81.622 46.13,111.37 29.748,29.747 69.3,46.13 111.37,46.13 86.846,0 157.5,-70.654 157.5,-157.5 0,-42.07 -16.383,-81.622 -46.13,-111.37 z M 256,197 c -21.508,0 -42.879,4.452 -62.5,12.919 0.001,-10.078 6.757,-18.99 16.426,-21.672 l 0.541,-0.14 C 213.734,187.219 216,184.254 216,180.87 V 55 c 0,-22.056 17.944,-40 40,-40 22.056,0 40,17.944 40,40 v 125.815 c 0,3.394 2.279,6.364 5.557,7.244 l 0.439,0.112 c 9.712,2.671 16.496,11.584 16.503,21.679 C 299.025,201.431 277.855,197 256,197 Z"
         id="path2"
         inkscape:connector-curvature="0"
         style="stroke:#000000;stroke-width:5;stroke-miterlimit:4;stroke-dasharray:none;stroke-opacity:1" /></g></g><g
     id="g12"
     style="stroke:#000000;stroke-width:5;stroke-miterlimit:4;stroke-dasharray:none;stroke-opacity:1"><g
       id="g10"
       style="stroke:#000000;stroke-width:5;stroke-miterlimit:4;stroke-dasharray:none;stroke-opacity:1"><path
         d="m 256,242 c -62.033,0 -112.5,50.467 -112.5,112.5 0,62.033 50.467,112.5 112.5,112.5 62.033,0 112.5,-50.467 112.5,-112.5 C 368.5,292.467 318.033,242 256,242 Z m 0,210 c -53.762,0 -97.5,-43.738 -97.5,-97.5 0,-53.762 43.738,-97.5 97.5,-97.5 53.762,0 97.5,43.738 97.5,97.5 0,53.762 -43.738,97.5 -97.5,97.5 z"
         id="path8"
         inkscape:connector-curvature="0"
         style="stroke:#000000;stroke-width:5;stroke-miterlimit:4;stroke-dasharray:none;stroke-opacity:1" /></g></g><g
     id="g18"
     style="stroke:#000000;stroke-width:5;stroke-miterlimit:4;stroke-dasharray:none;stroke-opacity:1"><g
       id="g16"
       style="stroke:#000000;stroke-width:5;stroke-miterlimit:4;stroke-dasharray:none;stroke-opacity:1"><path
         d="m 304.335,326.875 c -2.929,-2.928 -7.678,-2.929 -10.606,0 -1.351,1.35 -3.145,2.093 -5.053,2.093 -1.908,0 -3.703,-0.743 -5.052,-2.093 -2.786,-2.786 -2.786,-7.319 0,-10.104 2.929,-2.929 2.929,-7.678 -0.001,-10.607 -2.928,-2.929 -7.677,-2.928 -10.606,0 -6.769,6.771 -8.206,16.862 -4.358,25.069 l -8.79,8.79 c -1.237,-0.33 -2.53,-0.523 -3.87,-0.523 -8.284,0 -15,6.716 -15,15 0,1.341 0.193,2.634 0.523,3.87 l -19.511,19.512 0.002,-6.932 c 0.002,-6.8 -8.219,-10.207 -13.028,-5.398 -1.431,1.431 -2.235,3.372 -2.235,5.396 v 17.802 c 0,8.284 6.716,15 15,15 h 17.802 c 2.024,0 3.965,-0.804 5.396,-2.235 4.808,-4.808 1.401,-13.03 -5.399,-13.028 l -6.932,0.002 19.512,-19.512 c 1.237,0.33 2.53,0.523 3.87,0.523 8.284,0 15,-6.716 15,-15 0,-1.341 -0.193,-2.634 -0.523,-3.87 l 8.781,-8.781 c 2.912,1.372 6.104,2.119 9.419,2.119 5.915,0 11.476,-2.304 15.658,-6.486 2.93,-2.929 2.93,-7.678 10e-4,-10.607 z"
         id="path14"
         inkscape:connector-curvature="0"
         style="stroke:#000000;stroke-width:5;stroke-miterlimit:4;stroke-dasharray:none;stroke-opacity:1" /></g></g><g
     id="g78"
     style="stroke:#000000;stroke-width:5;stroke-miterlimit:4;stroke-dasharray:none;stroke-opacity:1"><g
       id="g76"
       style="stroke:#000000;stroke-width:5;stroke-miterlimit:4;stroke-dasharray:none;stroke-opacity:1"><path
         d="m 256,47.5 c -4.143,0 -7.5,3.358 -7.5,7.5 v 52 c 0,4.142 3.357,7.5 7.5,7.5 4.143,0 7.5,-3.358 7.5,-7.5 V 55 c 0,-4.142 -3.357,-7.5 -7.5,-7.5 z"
         id="path74"
         inkscape:connector-curvature="0"
         style="stroke:#000000;stroke-width:5;stroke-miterlimit:4;stroke-dasharray:none;stroke-opacity:1" /></g></g><g
     id="g84"
     style="stroke:#000000;stroke-width:5;stroke-miterlimit:4;stroke-dasharray:none;stroke-opacity:1"><g
       id="g82"
       style="stroke:#000000;stroke-width:5;stroke-miterlimit:4;stroke-dasharray:none;stroke-opacity:1"><path
         d="M 263.5,153.023 V 136 c 0,-4.142 -3.357,-7.5 -7.5,-7.5 -4.143,0 -7.5,3.358 -7.5,7.5 v 17.023 c -4.479,2.595 -7.5,7.428 -7.5,12.977 0,8.284 6.716,15 15,15 8.284,0 15,-6.716 15,-15 0,-5.549 -3.021,-10.382 -7.5,-12.977 z"
         id="path80"
         inkscape:connector-curvature="0"
         style="stroke:#000000;stroke-width:5;stroke-miterlimit:4;stroke-dasharray:none;stroke-opacity:1" /></g></g><g
     id="g86" /><g
     id="g88" /><g
     id="g90" /><g
     id="g92" /><g
     id="g94" /><g
     id="g96" /><g
     id="g98" /><g
     id="g100" /><g
     id="g102" /><g
     id="g104" /><g
     id="g106" /><g
     id="g108" /><g
     id="g110" /><g
     id="g112" /><g
     id="g114" /></svg>