<?xml version="1.0" encoding="iso-8859-1"?>
<!-- Generator: Adobe Illustrator 16.0.0, SVG Export Plug-In . SVG Version: 6.00 Build 0)  -->
<!DOCTYPE svg PUBLIC "-//W3C//DTD SVG 1.1//EN" "http://www.w3.org/Graphics/SVG/1.1/DTD/svg11.dtd">
<svg version="1.1" id="Capa_1" xmlns="http://www.w3.org/2000/svg" xmlns:xlink="http://www.w3.org/1999/xlink" x="0px" y="0px"
	 width="29.196px" height="29.196px" viewBox="0 0 29.196 29.196" style="enable-background:new 0 0 29.196 29.196;"
	 xml:space="preserve">
<g>
	<g>
		<path d="M26.169,7.688h-7.764c-0.401,0-0.782,0.083-1.134,0.226C16.725,6.68,15.49,5.811,14.06,5.811H3.515
			C1.582,5.811,0,7.393,0,9.326v10.545c0,1.933,1.582,3.515,3.515,3.515H14.06c1.43,0,2.665-0.868,3.211-2.103
			c0.351,0.143,0.732,0.225,1.134,0.225h7.764c1.669,0,3.027-1.357,3.027-3.027v-7.764C29.196,9.046,27.838,7.688,26.169,7.688z
			 M8.754,20.291c-2.848,0-4.102-2.559-4.119-5.676c0-3.188,1.356-5.714,4.203-5.714c2.948,0,4.102,2.628,4.102,5.646
			C12.94,17.953,11.567,20.291,8.754,20.291z M28.317,18.479c0,1.185-0.964,2.149-2.148,2.149h-7.764
			c-0.318,0-0.615-0.079-0.888-0.205c0.029-0.182,0.058-0.363,0.058-0.555V9.326c0-0.19-0.026-0.372-0.058-0.554
			c0.272-0.126,0.569-0.205,0.888-0.205h7.764c1.185,0,2.148,0.965,2.148,2.149V18.479z"/>
		<polygon points="20.428,11.539 20.74,12.962 22.287,12.228 22.312,12.228 22.312,18.652 24.146,18.652 24.146,10.54 22.575,10.54 
					"/>
		<path d="M8.804,10.852c-0.948,0-1.593,1.203-1.576,3.764c-0.017,2.524,0.593,3.728,1.593,3.728s1.542-1.255,1.542-3.763
			C10.364,12.14,9.839,10.852,8.804,10.852z"/>
	</g>
</g>
<g>
</g>
<g>
</g>
<g>
</g>
<g>
</g>
<g>
</g>
<g>
</g>
<g>
</g>
<g>
</g>
<g>
</g>
<g>
</g>
<g>
</g>
<g>
</g>
<g>
</g>
<g>
</g>
<g>
</g>
</svg>
