<svg height="512pt" viewBox="0 0 512 512" width="512pt" xmlns="http://www.w3.org/2000/svg"><path d="m301 512c-33.085938 0-60-26.914062-60-60v-28c0-33.085938 26.914062-60 60-60s60 26.914062 60 60v28c0 33.085938-26.914062 60-60 60zm0-108c-11.027344 0-20 8.972656-20 20v28c0 11.027344 8.972656 20 20 20s20-8.972656 20-20v-28c0-11.027344-8.972656-20-20-20zm151 108c-33.085938 0-60-26.914062-60-60v-28c0-33.085938 26.914062-60 60-60s60 26.914062 60 60v28c0 33.085938-26.914062 60-60 60zm0-108c-11.027344 0-20 8.972656-20 20v28c0 11.027344 8.972656 20 20 20s20-8.972656 20-20v-28c0-11.027344-8.972656-20-20-20zm-301 108c-33.085938 0-60-26.914062-60-60v-28c0-33.085938 26.914062-60 60-60s60 26.914062 60 60v28c0 33.085938-26.914062 60-60 60zm0-108c-11.027344 0-20 8.972656-20 20v28c0 11.027344 8.972656 20 20 20s20-8.972656 20-20v-28c0-11.027344-8.972656-20-20-20zm-91-38h-40v143h40zm151-218c-33.085938 0-60-26.914062-60-60v-28c0-33.085938 26.914062-60 60-60s60 26.914062 60 60v28c0 33.085938-26.914062 60-60 60zm0-108c-11.027344 0-20 8.972656-20 20v28c0 11.027344 8.972656 20 20 20s20-8.972656 20-20v-28c0-11.027344-8.972656-20-20-20zm-91-38h-40v144h40zm-80 0h-40v144h40zm321 146c-33.085938 0-60-26.914062-60-60v-28c0-33.085938 26.914062-60 60-60s60 26.914062 60 60v28c0 33.085938-26.914062 60-60 60zm0-108c-11.027344 0-20 8.972656-20 20v28c0 11.027344 8.972656 20 20 20s20-8.972656 20-20v-28c0-11.027344-8.972656-20-20-20zm131-38h-40v143h40zm-432 329c-33.085938 0-60-26.914062-60-60v-28c0-33.085938 26.914062-60 60-60s60 26.914062 60 60v28c0 33.085938-26.914062 60-60 60zm0-108c-11.027344 0-20 8.972656-20 20v28c0 11.027344 8.972656 20 20 20s20-8.972656 20-20v-28c0-11.027344-8.972656-20-20-20zm131-38h-40v144h40zm90 146c-33.085938 0-60-26.914062-60-60v-28c0-33.085938 26.914062-60 60-60s60 26.914062 60 60v28c0 33.085938-26.914062 60-60 60zm0-108c-11.027344 0-20 8.972656-20 20v28c0 11.027344 8.972656 20 20 20s20-8.972656 20-20v-28c0-11.027344-8.972656-20-20-20zm210-38h-40v144h40zm-80 0h-40v144h40zm0 0"/></svg>