<?xml version="1.0" encoding="UTF-8" standalone="no"?>
<!-- Generator: Adobe Illustrator 16.0.0, SVG Export Plug-In . SVG Version: 6.00 Build 0)  -->

<svg
   xmlns:dc="http://purl.org/dc/elements/1.1/"
   xmlns:cc="http://creativecommons.org/ns#"
   xmlns:rdf="http://www.w3.org/1999/02/22-rdf-syntax-ns#"
   xmlns:svg="http://www.w3.org/2000/svg"
   xmlns="http://www.w3.org/2000/svg"
   xmlns:sodipodi="http://sodipodi.sourceforge.net/DTD/sodipodi-0.dtd"
   xmlns:inkscape="http://www.inkscape.org/namespaces/inkscape"
   version="1.1"
   id="Capa_1"
   x="0px"
   y="0px"
   width="612"
   height="362"
   viewBox="0 0 612 362.00002"
   xml:space="preserve"
   sodipodi:docname="box.svg"
   inkscape:version="0.92.1 r15371"><metadata
     id="metadata41"><rdf:RDF><cc:Work
         rdf:about=""><dc:format>image/svg+xml</dc:format><dc:type
           rdf:resource="http://purl.org/dc/dcmitype/StillImage" /><dc:title></dc:title></cc:Work></rdf:RDF></metadata><defs
     id="defs39" /><sodipodi:namedview
     pagecolor="#ffffff"
     bordercolor="#666666"
     borderopacity="1"
     objecttolerance="10"
     gridtolerance="10"
     guidetolerance="10"
     inkscape:pageopacity="0"
     inkscape:pageshadow="2"
     inkscape:window-width="1366"
     inkscape:window-height="745"
     id="namedview37"
     showgrid="false"
     inkscape:zoom="0.27267473"
     inkscape:cx="-421.74411"
     inkscape:cy="575.13099"
     inkscape:window-x="-8"
     inkscape:window-y="-8"
     inkscape:window-maximized="1"
     inkscape:current-layer="Capa_1" /><g
     id="g6"
     transform="translate(0,-250.00067)" /><g
     id="g8"
     transform="translate(0,-250.00067)" /><g
     id="g10"
     transform="translate(0,-250.00067)" /><g
     id="g12"
     transform="translate(0,-250.00067)" /><g
     id="g14"
     transform="translate(0,-250.00067)" /><g
     id="g16"
     transform="translate(0,-250.00067)" /><g
     id="g18"
     transform="translate(0,-250.00067)" /><g
     id="g20"
     transform="translate(0,-250.00067)" /><g
     id="g22"
     transform="translate(0,-250.00067)" /><g
     id="g24"
     transform="translate(0,-250.00067)" /><g
     id="g26"
     transform="translate(0,-250.00067)" /><g
     id="g28"
     transform="translate(0,-250.00067)" /><g
     id="g30"
     transform="translate(0,-250.00067)" /><g
     id="g32"
     transform="translate(0,-250.00067)" /><g
     id="g34"
     transform="translate(0,-250.00067)" /><g
     transform="matrix(0.88496948,0,0,0.8603351,33.903203,-166.44574)"
     id="g4"><path
       d="M 305.058,329.286 V 570.82 L 497.351,534.329 V 416.644 c 0,-4.926 4.291,-8.752 9.185,-8.19 l 23.658,3.661 c 4.162,0.478 7.305,4.001 7.305,8.19 v 136.717 c 0,3.885 -2.713,7.243 -6.512,8.061 l -210.5,45.261 c -10.172,2.188 -20.691,2.211 -30.873,0.069 L 81.373,566.609 c -3.738,-0.786 -6.446,-4.037 -6.545,-7.854 L 71.23,419.907 c -0.112,-4.354 3.181,-8.046 7.521,-8.427 l 176.886,-15.543 c 3.068,-0.269 5.73,-2.226 6.902,-5.074 l 26.648,-64.716 c 3.441,-8.351 15.871,-5.893 15.871,3.139 z M 69.23,250.204 13.721,368.855 c -2.713,5.798 1.928,12.34 8.297,11.697 l 208.464,-21.064 c 2.946,-0.298 5.505,-2.152 6.707,-4.858 l 67.075,-151.111 -229.056,42.07 c -2.621,0.482 -4.848,2.201 -5.978,4.615 z m 235.034,-46.686 70.976,155.837 c 1.24,2.723 3.859,4.561 6.842,4.801 l 208.069,16.732 c 6.271,0.505 10.773,-5.916 8.163,-11.64 L 544.05,250.284 c -1.122,-2.46 -3.38,-4.213 -6.041,-4.692 z"
       id="path2-4"
       inkscape:connector-curvature="0"
       sodipodi:nodetypes="sccsccssccccccccccscccccccccccccccc" /></g></svg>