<?xml version="1.0" encoding="UTF-8" standalone="no"?>
<svg
   xmlns:dc="http://purl.org/dc/elements/1.1/"
   xmlns:cc="http://creativecommons.org/ns#"
   xmlns:rdf="http://www.w3.org/1999/02/22-rdf-syntax-ns#"
   xmlns:svg="http://www.w3.org/2000/svg"
   xmlns="http://www.w3.org/2000/svg"
   xmlns:sodipodi="http://sodipodi.sourceforge.net/DTD/sodipodi-0.dtd"
   xmlns:inkscape="http://www.inkscape.org/namespaces/inkscape"
   width="2064"
   height="731"
   viewBox="0 0 159.13935 56.361854"
   version="1.1"
   id="svg8"
   sodipodi:docname="byte.svg"
   inkscape:version="0.92.1 r15371">
  <metadata
     id="metadata14">
    <rdf:RDF>
      <cc:Work
         rdf:about="">
        <dc:format>image/svg+xml</dc:format>
        <dc:type
           rdf:resource="http://purl.org/dc/dcmitype/StillImage" />
        <dc:title></dc:title>
      </cc:Work>
    </rdf:RDF>
  </metadata>
  <defs
     id="defs12" />
  <sodipodi:namedview
     pagecolor="#ffffff"
     bordercolor="#666666"
     borderopacity="1"
     objecttolerance="10"
     gridtolerance="10"
     guidetolerance="10"
     inkscape:pageopacity="0"
     inkscape:pageshadow="2"
     inkscape:window-width="1366"
     inkscape:window-height="745"
     id="namedview10"
     showgrid="false"
     inkscape:zoom="0.06675088"
     inkscape:cx="1441.7426"
     inkscape:cy="2086.8957"
     inkscape:window-x="-8"
     inkscape:window-y="-8"
     inkscape:window-maximized="1"
     inkscape:current-layer="svg8" />
  <path
     style="clip-rule:evenodd;fill:#ffffff;fill-opacity:0;fill-rule:evenodd"
     inkscape:connector-curvature="0"
     id="path2"
     d="M 0,-136.39415 H 192.756 V 56.361856 H 0 Z" />
  <path
     style="clip-rule:evenodd;fill-rule:evenodd"
     inkscape:connector-curvature="0"
     id="path4"
     d="M 83.267,0.07085594 V 5.4438559 H 94.245 V 56.360856 h 17.049 V 5.4438559 h 10.978 V 0.07085594 Z m 42.043,0 h 33.867 V 5.4438559 H 142.358 V 22.961856 h 16.819 v 5.37 h -16.819 v 22.656 h 16.819 v 5.373 H 125.31 Z M 44.028,27.539856 c 0,5.914 4.362,10.81 10.044,11.646 v 17.176 h 17.049 l -0.007,-17.213 c 5.571,-0.93 9.816,-5.773 9.816,-11.609 V 0.07085594 H 73.69 L 73.66,25.295856 a 6.277,6.277 0 0 1 -12.552,0 V 0.07085594 h -17.08 z m -25.109,-4.578 h 14.48 V 5.4438559 H 18.919 Z M 0,56.358856 V 0.07085594 h 35.479 c 2.786,0 5.045,2.19999996 5.045,4.98699996 V 20.542856 c 0,2.162 -1.331,4.151 -3.241,4.87 1.905,0.721 3.241,2.712 3.241,4.87 v 21.09 c 0,2.787 -2.259,4.986 -5.045,4.986 z m 18.919,-5.371 h 14.48 v -22.656 h -14.48 z" />
</svg>
