<?xml version="1.0" encoding="iso-8859-1"?>
<!-- Generator: Adobe Illustrator 19.0.0, SVG Export Plug-In . SVG Version: 6.00 Build 0)  -->
<svg version="1.1" id="Capa_1" xmlns="http://www.w3.org/2000/svg" xmlns:xlink="http://www.w3.org/1999/xlink" x="0px" y="0px"
	 viewBox="0 0 489.5 489.5" style="enable-background:new 0 0 489.5 489.5;" xml:space="preserve">
<g>
	<g>
		<g>
			<path d="M363.4,428.05H126c-69.8,0-126-56.2-126-126c0-54.2,34.4-102.1,84.4-118.7c19.7-71.9,85.3-121.9,160.3-121.9
				s140.6,51,160.4,122.9c51,17.7,84.4,64.6,84.4,118.7C489.5,371.85,433.2,428.05,363.4,428.05z M244.7,102.05
				c-60.4,0-111.5,42.7-122.9,102.1c-1,8.3-7.3,14.6-15.6,16.7c-38.5,9.4-65.6,42.7-65.6,82.3c0,46.9,38.5,85.4,85.4,85.4h237.5
				c46.9,0,85.4-38.5,85.4-85.4c0-39.6-27.1-74-65.6-82.3c-8.3-2.1-13.5-8.3-15.6-16.7C356.2,144.75,305.1,102.05,244.7,102.05z"/>
		</g>
		<g>
			<g>
				<path d="M366.7,360.25h-42.9c-3.6,0-6.9-2.2-8.3-5.5c-1.4-3.3-0.7-7.2,1.9-9.8l32.1-32.6c1-1.5,1.6-3.3,1.6-5.1
					c0-5-4.1-9.1-9.1-9.1s-9.1,4.1-9.1,9.1s-4,9-9,9s-9-4-9-9c0-14.9,12.1-27.1,27.1-27.1c14.9,0,27.1,12.1,27.1,27.1
					c0,6-1.9,11.6-5.5,16.4c-0.2,0.3-0.5,0.6-0.7,0.9l-17.5,17.8h21.3c5,0,9,4,9,9C375.7,356.25,371.7,360.25,366.7,360.25z"/>
			</g>
			<g>
				<path d="M259.9,340.65c-28.4,0-51.5-23.1-51.5-51.5s23.1-51.5,51.5-51.5c28.4,0,51.5,23.1,51.5,51.5S288.3,340.65,259.9,340.65z
					 M259.9,258.55c-16.9,0-30.6,13.7-30.6,30.6s13.7,30.6,30.6,30.6s30.6-13.7,30.6-30.6S276.8,258.55,259.9,258.55z"/>
			</g>
			<g>
				<path d="M164.2,338.55c-27.8,0-50.5-22.6-50.5-50.5c0-27.8,22.6-50.5,50.5-50.5c15.9,0,31.1,7.7,40.6,20.5
					c3.4,4.6,2.5,11.2-2.2,14.6c-4.6,3.4-11.2,2.5-14.6-2.2c-5.6-7.6-14.3-12-23.8-12c-16.3,0-29.6,13.3-29.6,29.6
					c0,16.3,13.3,29.6,29.6,29.6c8.2,0,16.2-3.5,21.8-9.5c3.9-4.3,10.5-4.5,14.8-0.6s4.5,10.5,0.6,14.8
					C191.8,332.65,178.3,338.55,164.2,338.55z"/>
			</g>
		</g>
	</g>
</g>
<g>
</g>
<g>
</g>
<g>
</g>
<g>
</g>
<g>
</g>
<g>
</g>
<g>
</g>
<g>
</g>
<g>
</g>
<g>
</g>
<g>
</g>
<g>
</g>
<g>
</g>
<g>
</g>
<g>
</g>
</svg>
