<?xml version="1.0" encoding="UTF-8" standalone="no"?>
<!-- Generator: Adobe Illustrator 19.0.0, SVG Export Plug-In . SVG Version: 6.00 Build 0)  -->

<svg
   xmlns:dc="http://purl.org/dc/elements/1.1/"
   xmlns:cc="http://creativecommons.org/ns#"
   xmlns:rdf="http://www.w3.org/1999/02/22-rdf-syntax-ns#"
   xmlns:svg="http://www.w3.org/2000/svg"
   xmlns="http://www.w3.org/2000/svg"
   xmlns:sodipodi="http://sodipodi.sourceforge.net/DTD/sodipodi-0.dtd"
   xmlns:inkscape="http://www.inkscape.org/namespaces/inkscape"
   version="1.1"
   id="Capa_1"
   x="0px"
   y="0px"
   viewBox="0 0 512 310"
   xml:space="preserve"
   sodipodi:docname="comparison.svg"
   width="512"
   height="310"
   inkscape:version="0.92.1 r15371"><metadata
     id="metadata67"><rdf:RDF><cc:Work
         rdf:about=""><dc:format>image/svg+xml</dc:format><dc:type
           rdf:resource="http://purl.org/dc/dcmitype/StillImage" /><dc:title></dc:title></cc:Work></rdf:RDF></metadata><defs
     id="defs65" /><sodipodi:namedview
     pagecolor="#ffffff"
     bordercolor="#666666"
     borderopacity="1"
     objecttolerance="10"
     gridtolerance="10"
     guidetolerance="10"
     inkscape:pageopacity="0"
     inkscape:pageshadow="2"
     inkscape:window-width="1366"
     inkscape:window-height="745"
     id="namedview63"
     showgrid="false"
     inkscape:zoom="0.65186406"
     inkscape:cx="495.36953"
     inkscape:cy="300.91935"
     inkscape:window-x="-8"
     inkscape:window-y="-8"
     inkscape:window-maximized="1"
     inkscape:current-layer="Capa_1" /><g
     id="g6"
     transform="translate(1.5340622,-24.048788)"><g
       id="g4"><path
         d="m 480.864,203.932 -32.099,4.184 V 180.318 C 484.75,173.302 512,141.552 512,103.543 512,60.405 476.904,25.311 433.767,25.311 c -43.138,0 -78.232,35.096 -78.232,78.232 0,38.008 27.25,69.758 63.234,76.775 v 31.709 L 93.23,254.464 V 231.97 c 35.986,-7.017 63.234,-38.767 63.234,-76.774 0,-43.137 -35.095,-78.232 -78.232,-78.232 C 35.095,76.964 0,112.058 0,155.196 c 0,38.007 27.249,69.758 63.234,76.774 v 26.404 l -34.9,4.549 c -8.214,1.07 -14.004,8.598 -12.933,16.81 0.985,7.556 7.433,13.061 14.853,13.061 0.646,0 1.3,-0.042 1.958,-0.128 l 202.871,-26.446 -37.06,68.478 h 115.465 l -40.45,-73.425 211.703,-27.598 c 8.213,-1.07 14.004,-8.598 12.933,-16.81 -1.072,-8.212 -8.6,-14.004 -16.81,-12.933 z M 90.516,183.371 87.474,172.187 h -18.88 l -3.042,11.184 c -0.478,1.73 -2,2.595 -4.563,2.595 -2.089,0 -4.101,-0.567 -6.039,-1.7 -1.939,-1.133 -2.908,-2.475 -2.908,-4.025 0,-0.18 0.059,-0.507 0.179,-0.984 l 16.641,-54.578 c 0.477,-1.49 1.566,-2.64 3.266,-3.444 1.7,-0.805 3.652,-1.208 5.86,-1.208 2.206,0 4.16,0.403 5.86,1.208 1.7,0.806 2.788,1.955 3.267,3.444 l 16.73,54.578 c 0.119,0.478 0.179,0.805 0.179,0.984 0,1.552 -0.97,2.894 -2.908,4.025 -1.939,1.134 -3.952,1.7 -6.039,1.7 -2.564,0 -4.085,-0.864 -4.561,-2.595 z m 328.449,-47.217 c -1.85,0 -3.326,-0.417 -4.429,-1.253 -1.105,-0.834 -1.656,-1.819 -1.656,-2.953 V 75.046 c 0,-1.371 0.596,-2.43 1.79,-3.177 1.192,-0.745 2.624,-1.118 4.294,-1.118 h 18.341 c 11.93,0 17.894,5.31 17.894,15.927 0,7.157 -2.536,11.84 -7.605,14.047 3.043,1.134 5.338,2.76 6.89,4.876 1.551,2.118 2.326,5.265 2.326,9.439 v 1.879 c 0,6.681 -1.626,11.557 -4.876,14.629 -3.252,3.073 -7.62,4.607 -13.107,4.607 h -19.862 z"
         id="path2"
         inkscape:connector-curvature="0"
         sodipodi:nodetypes="cccsssccccsssccccsccccccccccccscscccscccscscccsscsssccsscscc" /></g></g><g
     id="g12"
     transform="translate(0,-202)"><g
       id="g10" /></g><g
     id="g18"
     transform="translate(1.5340622,-24.048788)"><g
       id="g16"><polygon
         points="71.458,161.451 84.521,161.451 77.989,137.472 "
         id="polygon14" /></g></g><g
     id="g24"
     transform="translate(1.5340622,-24.048788)"><g
       id="g22"><path
         d="m 439.9,84.798 c -0.896,-1.253 -2.147,-1.879 -3.758,-1.879 h -9.395 v 12.436 h 9.395 c 1.612,10e-4 2.864,-0.61 3.758,-1.834 0.895,-1.222 1.342,-2.669 1.342,-4.339 0,-1.668 -0.447,-3.131 -1.342,-4.384 z"
         id="path20"
         inkscape:connector-curvature="0" /></g></g><g
     id="g30"
     transform="translate(1.5340622,-24.048788)"><g
       id="g28"><path
         d="m 435.694,106.093 h -8.947 v 17.893 h 8.947 c 4.772,10e-4 7.158,-2.743 7.158,-8.231 v -1.432 c 0,-5.486 -2.386,-8.23 -7.158,-8.23 z"
         id="path26"
         inkscape:connector-curvature="0" /></g></g><g
     id="g32"
     transform="translate(0,-202)" /><g
     id="g34"
     transform="translate(0,-202)" /><g
     id="g36"
     transform="translate(0,-202)" /><g
     id="g38"
     transform="translate(0,-202)" /><g
     id="g40"
     transform="translate(0,-202)" /><g
     id="g42"
     transform="translate(0,-202)" /><g
     id="g44"
     transform="translate(0,-202)" /><g
     id="g46"
     transform="translate(0,-202)" /><g
     id="g48"
     transform="translate(0,-202)" /><g
     id="g50"
     transform="translate(0,-202)" /><g
     id="g52"
     transform="translate(0,-202)" /><g
     id="g54"
     transform="translate(0,-202)" /><g
     id="g56"
     transform="translate(0,-202)" /><g
     id="g58"
     transform="translate(0,-202)" /><g
     id="g60"
     transform="translate(0,-202)" /></svg>