<?xml version="1.0" encoding="UTF-8" standalone="no"?>
<!-- Generator: Adobe Illustrator 19.0.0, SVG Export Plug-In . SVG Version: 6.00 Build 0)  -->

<svg
   xmlns:dc="http://purl.org/dc/elements/1.1/"
   xmlns:cc="http://creativecommons.org/ns#"
   xmlns:rdf="http://www.w3.org/1999/02/22-rdf-syntax-ns#"
   xmlns:svg="http://www.w3.org/2000/svg"
   xmlns="http://www.w3.org/2000/svg"
   xmlns:sodipodi="http://sodipodi.sourceforge.net/DTD/sodipodi-0.dtd"
   xmlns:inkscape="http://www.inkscape.org/namespaces/inkscape"
   version="1.1"
   id="Layer_1"
   x="0px"
   y="0px"
   viewBox="0 0 423.757 423.757"
   style="enable-background:new 0 0 423.757 423.757;"
   xml:space="preserve"
   sodipodi:docname="dices.svg"
   inkscape:version="0.92.1 r15371"><metadata
     id="metadata53"><rdf:RDF><cc:Work
         rdf:about=""><dc:format>image/svg+xml</dc:format><dc:type
           rdf:resource="http://purl.org/dc/dcmitype/StillImage" /><dc:title></dc:title></cc:Work></rdf:RDF></metadata><defs
     id="defs51" /><sodipodi:namedview
     pagecolor="#ffffff"
     bordercolor="#666666"
     borderopacity="1"
     objecttolerance="10"
     gridtolerance="10"
     guidetolerance="10"
     inkscape:pageopacity="0"
     inkscape:pageshadow="2"
     inkscape:window-width="849"
     inkscape:window-height="480"
     id="namedview49"
     showgrid="false"
     inkscape:zoom="0.55692297"
     inkscape:cx="211.87849"
     inkscape:cy="211.87849"
     inkscape:window-x="0"
     inkscape:window-y="0"
     inkscape:window-maximized="0"
     inkscape:current-layer="Layer_1" /><g
     id="g16"
     style="stroke:#ffffff;stroke-opacity:1;stroke-width:2;stroke-miterlimit:4;stroke-dasharray:none"><g
       id="g14"
       style="stroke:#ffffff;stroke-opacity:1;stroke-width:2;stroke-miterlimit:4;stroke-dasharray:none"><path
         d="m 189.294,385.219 112.522,38.538 98.514,-98.509 -113.3,-37.765 z m 50.668,-6.016 c -5.96,5.96 -15.672,8.54 -21.699,5.76 -6.021,-2.78 -6.077,-9.861 -0.113,-15.821 5.96,-5.96 15.672,-8.54 21.699,-5.76 6.026,2.78 6.072,9.861 0.113,15.821 z m 36.336,12.728 c -5.96,5.96 -15.672,8.54 -21.699,5.76 -6.021,-2.78 -6.077,-9.861 -0.113,-15.821 5.965,-5.96 15.672,-8.54 21.699,-5.76 6.022,2.78 6.073,9.861 0.113,15.821 z M 349.56,334.94 c 5.96,-5.96 15.672,-8.54 21.699,-5.76 6.021,2.78 6.077,9.861 0.118,15.821 -5.959,5.96 -15.672,8.54 -21.699,5.76 -6.027,-2.78 -6.077,-9.861 -0.118,-15.821 z m -36.229,-11.909 c 5.96,-5.96 15.672,-8.54 21.699,-5.76 6.021,2.78 6.077,9.861 0.113,15.821 -5.96,5.96 -15.672,8.54 -21.699,5.76 -6.021,-2.78 -6.072,-9.861 -0.113,-15.821 z m -0.916,64.988 c 6.021,2.78 6.077,9.861 0.113,15.821 -5.96,5.96 -15.672,8.54 -21.699,5.76 -6.027,-2.78 -6.077,-9.861 -0.118,-15.821 5.965,-5.954 15.677,-8.535 21.704,-5.76 z m -13.722,-83.481 c 6.021,2.78 6.077,9.861 0.113,15.821 -5.96,5.96 -15.672,8.54 -21.699,5.76 -6.021,-2.78 -6.077,-9.861 -0.113,-15.821 5.96,-5.96 15.673,-8.535 21.699,-5.76 z"
         id="path2"
         inkscape:connector-curvature="0"
         style="stroke:#ffffff;stroke-opacity:1;stroke-width:2;stroke-miterlimit:4;stroke-dasharray:none" /><path
         d="M 402.158,311.634 364.956,200.023 253.345,162.816 290.547,274.422 Z m -82.877,-87.516 c 4.168,-4.168 12.544,-2.555 18.708,3.61 6.164,6.165 7.782,14.541 3.61,18.708 -4.168,4.168 -12.544,2.555 -18.708,-3.61 -6.165,-6.164 -7.783,-14.541 -3.61,-18.708 z"
         id="path4"
         inkscape:connector-curvature="0"
         style="stroke:#ffffff;stroke-opacity:1;stroke-width:2;stroke-miterlimit:4;stroke-dasharray:none" /><path
         d="M 135.171,0 29.939,52.613 135.17,105.226 240.396,52.613 Z m 0,63.288 c -8.714,0 -15.785,-4.782 -15.785,-10.675 0,-5.898 7.066,-10.675 15.785,-10.675 8.719,0 15.785,4.782 15.785,10.675 -0.006,5.898 -7.071,10.675 -15.785,10.675 z"
         id="path6"
         inkscape:connector-curvature="0"
         style="stroke:#ffffff;stroke-opacity:1;stroke-width:2;stroke-miterlimit:4;stroke-dasharray:none" /><path
         d="m 162.22,201.728 c 5.028,-1.853 9.231,1.08 10.685,6.702 l 63.022,-63.022 12.805,4.27 V 63.529 l -106.819,53.412 v 122.481 l 10.798,-10.798 c -1.101,-1.951 -1.761,-4.48 -1.761,-7.475 0,-8.433 5.049,-17.127 11.27,-19.421 z M 230.956,86.866 c 6.226,-2.294 11.269,2.678 11.269,11.105 0,8.427 -5.043,17.121 -11.269,19.415 -6.226,2.294 -11.269,-2.678 -11.269,-11.105 -0.001,-8.428 5.043,-17.121 11.269,-19.415 z m -32.113,55.137 c 6.226,-2.294 11.269,2.678 11.269,11.105 0,8.427 -5.043,17.121 -11.269,19.415 -6.226,2.294 -11.269,-2.678 -11.269,-11.105 0,-8.427 5.048,-17.121 11.269,-19.415 z m -47.893,-1.828 c 0,-8.427 5.043,-17.121 11.269,-19.415 6.226,-2.294 11.269,2.678 11.269,11.105 0,8.428 -5.043,17.121 -11.269,19.415 -6.225,2.294 -11.269,-2.677 -11.269,-11.105 z"
         id="path8"
         inkscape:connector-curvature="0"
         style="stroke:#ffffff;stroke-opacity:1;stroke-width:2;stroke-miterlimit:4;stroke-dasharray:none" /><path
         d="m 21.599,202.839 105.313,51.579 1.51,-1.51 V 116.941 L 21.599,63.529 Z m 86.256,-1.111 c 6.226,2.294 11.269,10.988 11.269,19.415 0,8.427 -5.043,13.399 -11.269,11.105 -6.226,-2.294 -11.269,-10.988 -11.269,-19.415 0,-8.427 5.049,-13.399 11.269,-11.105 z m -32.844,-61.43 c 6.226,2.294 11.269,10.987 11.269,19.415 0,8.427 -5.043,13.399 -11.269,11.105 -6.226,-2.294 -11.269,-10.988 -11.269,-19.415 -10e-4,-8.427 5.048,-13.399 11.269,-11.105 z M 41.208,86.866 c 6.226,2.294 11.269,10.987 11.269,19.415 0,8.427 -5.043,13.399 -11.269,11.105 -6.226,-2.294 -11.269,-10.987 -11.269,-19.415 0,-8.427 5.043,-13.399 11.269,-11.105 z"
         id="path10"
         inkscape:connector-curvature="0"
         style="stroke:#ffffff;stroke-opacity:1;stroke-width:2;stroke-miterlimit:4;stroke-dasharray:none" /><path
         d="m 239.726,164.639 -98.514,98.504 38.543,112.533 97.736,-97.746 z m -42.071,173.926 c -5.96,5.96 -13.046,5.909 -15.821,-0.118 -2.775,-6.026 -0.2,-15.739 5.76,-21.699 5.96,-5.96 13.046,-5.909 15.821,0.113 2.775,6.022 0.2,15.744 -5.76,21.704 z m 32.87,-116.792 c -5.96,5.96 -13.046,5.908 -15.821,-0.113 -2.78,-6.021 -0.2,-15.739 5.76,-21.699 5.96,-5.96 13.046,-5.908 15.821,0.113 2.781,6.026 0.2,15.739 -5.76,21.699 z"
         id="path12"
         inkscape:connector-curvature="0"
         style="stroke:#ffffff;stroke-opacity:1;stroke-width:2;stroke-miterlimit:4;stroke-dasharray:none" /></g></g><g
     id="g18" /><g
     id="g20" /><g
     id="g22" /><g
     id="g24" /><g
     id="g26" /><g
     id="g28" /><g
     id="g30" /><g
     id="g32" /><g
     id="g34" /><g
     id="g36" /><g
     id="g38" /><g
     id="g40" /><g
     id="g42" /><g
     id="g44" /><g
     id="g46" /></svg>