<?xml version="1.0" encoding="iso-8859-1"?>
<!-- Generator: Adobe Illustrator 19.0.0, SVG Export Plug-In . SVG Version: 6.00 Build 0)  -->
<svg version="1.1" id="Capa_1" xmlns="http://www.w3.org/2000/svg" xmlns:xlink="http://www.w3.org/1999/xlink" x="0px" y="0px"
	 viewBox="0 0 512 512" style="enable-background:new 0 0 512 512;" xml:space="preserve">
<g>
	<g>
		<path d="M497,241h-55v-95c0-8.284-6.716-15-15-15h-45v-25c0-8.284-6.716-15-15-15H45c-24.813,0-45,20.187-45,45v240
			c0,24.813,20.187,45,45,45h322c8.284,0,15-6.716,15-15v-25h45c8.284,0,15-6.716,15-15v-95h55c8.284,0,15-6.716,15-15
			S505.284,241,497,241z M91,391H45c-8.271,0-15-6.729-15-15V136c0-8.271,6.729-15,15-15h46V391z M352,391H121V121h231
			C352,140.751,352,376.926,352,391z M412,351h-30V161h30V351z"/>
	</g>
</g>
<g>
	<g>
		<path d="M307,301H167c-8.284,0-15,6.716-15,15s6.716,15,15,15h140c8.284,0,15-6.716,15-15S315.284,301,307,301z"/>
	</g>
</g>
<g>
	<g>
		<path d="M307,181H167c-8.284,0-15,6.716-15,15s6.716,15,15,15h140c8.284,0,15-6.716,15-15S315.284,181,307,181z"/>
	</g>
</g>
<g>
</g>
<g>
</g>
<g>
</g>
<g>
</g>
<g>
</g>
<g>
</g>
<g>
</g>
<g>
</g>
<g>
</g>
<g>
</g>
<g>
</g>
<g>
</g>
<g>
</g>
<g>
</g>
<g>
</g>
</svg>
