<svg height="512pt" viewBox="0 -1 512.01079 512" width="512pt" xmlns="http://www.w3.org/2000/svg"><path d="m264.777344 263.777344-127.632813-71.773438-127.636719 71.773438 127.636719 71.769531zm-132.207032 28.636718c3.605469 2.058594 5.367188 6.289063 4.292969 10.296876-1.074219 4.011718-4.710937 6.792968-8.863281 6.78125-1.605469.007812-3.183594-.40625-4.570312-1.207032l-64-36.574218c-2.847657-1.625-4.605469-4.65625-4.605469-7.933594 0-3.28125 1.757812-6.308594 4.605469-7.9375l64-36.570313c4.367187-2.359375 9.820312-.804687 12.285156 3.507813 2.460937 4.308594 1.035156 9.800781-3.214844 12.363281l-50.066406 28.636719zm0 0"/><path d="m0 404.757812 128 71.957032v-125.347656l-128-71.957032zm0 0"/><path d="m274.285156 279.410156-128 72.046875v125.257813l128-71.957032zm0 0"/><path d="m502.492188 92.347656-164.207032-92.34374975-164.207031 92.34374975 164.207031 92.34375zm-174.628907 57.28125c-2.601562 4.324219-8.21875 5.726563-12.542969 3.125l-91.429687-54.855468c-2.78125-1.671876-4.464844-4.691407-4.429687-7.9375.035156-3.242188 1.789062-6.222657 4.601562-7.835938l64-36.570312c4.378906-2.457032 9.921875-.925782 12.414062 3.433593 2.492188 4.359375 1.003907 9.910157-3.332031 12.4375l-50.441406 28.828125 78.042969 46.832032c4.3125 2.613281 5.695312 8.222656 3.089844 12.542968zm0 0"/><path d="m512 107.984375-164.570312 92.617187v161.828126l164.570312-92.527344zm0 0"/><path d="m329.144531 362.429688v-161.921876l-164.574219-92.523437v78.445313l123.339844 69.394531c.710938.382812 1.359375.875 1.917969 1.460937.09375.089844.09375.089844.183594.089844.652343.75 1.203125 1.582031 1.644531 2.46875.078125.25.167969.496094.273438.734375.398437 1.019531.613281 2.101563.640624 3.199219v78.078125zm0 0"/><path d="m354.285156 508.257812c1.230469 2.199219 3.992188 3.015626 6.21875 1.828126l101.300782-55.773438c2.121093-1.160156 4.617187-1.425781 6.933593-.738281 2.316407.683593 4.265625 2.269531 5.410157 4.398437l9.234374 16.636719c.863282 1.632813 2.652344 2.546875 4.480469 2.289063 1.839844-.113282 3.394531-1.410157 3.839844-3.203126l20.113281-69.210937c.351563-1.160156.222656-2.410156-.363281-3.472656-.597656-1.058594-1.582031-1.847657-2.746094-2.195313l-69.210937-20.113281c-1.78125-.53125-3.703125.085937-4.84375 1.554687-1.171875 1.457032-1.351563 3.476563-.457032 5.117188l9.234376 16.640625c.542968 1.09375.910156 2.269531 1.097656 3.476563 0 .273437-.09375.640624-.09375.914062.050781.863281-.042969 1.726562-.273438 2.558594-.5 1.484375-1.382812 2.808594-2.558594 3.839844-.5.636718-1.121093 1.167968-1.832031 1.554687l-101.210937 55.773437c-1.066406.578126-1.863282 1.558594-2.203125 2.726563-.34375 1.167969-.210938 2.421875.375 3.488281zm0 0"/></svg>