<?xml version="1.0" encoding="iso-8859-1"?>
<!-- Generator: Adobe Illustrator 16.0.0, SVG Export Plug-In . SVG Version: 6.00 Build 0)  -->
<!DOCTYPE svg PUBLIC "-//W3C//DTD SVG 1.1//EN" "http://www.w3.org/Graphics/SVG/1.1/DTD/svg11.dtd">
<svg version="1.1" id="Capa_1" xmlns="http://www.w3.org/2000/svg" xmlns:xlink="http://www.w3.org/1999/xlink" x="0px" y="0px"
	 width="124px" height="124px" viewBox="0 0 124 124" style="enable-background:new 0 0 124 124;" xml:space="preserve">
<g>
	<path d="M6.85,124h12c3.3,0,6-2.699,6-6V6c0-3.3-2.7-6-6-6h-12c-3.3,0-6,2.7-6,6v112C0.85,121.301,3.55,124,6.85,124z"/>
	<path d="M91.949,76.7h25c3.4,0,6.201-2.8,6.201-6.2V53.6c0-3.4-2.801-6.2-6.201-6.2h-25c-3.399,0-6.199-2.8-6.199-6.2V30.5
		c0-5.2-6-8.2-10.1-5l-40,32c-3.2,2.5-3.2,7.4,0,9.9l40,31.1c4.1,3.2,10.1,0.301,10.1-4.9V82.9C85.75,79.5,88.55,76.7,91.949,76.7z"
		/>
</g>
<g>
</g>
<g>
</g>
<g>
</g>
<g>
</g>
<g>
</g>
<g>
</g>
<g>
</g>
<g>
</g>
<g>
</g>
<g>
</g>
<g>
</g>
<g>
</g>
<g>
</g>
<g>
</g>
<g>
</g>
</svg>
