<?xml version="1.0" encoding="UTF-8" standalone="no"?>
<!-- Generator: Adobe Illustrator 19.0.0, SVG Export Plug-In . SVG Version: 6.00 Build 0)  -->

<svg
   xmlns:dc="http://purl.org/dc/elements/1.1/"
   xmlns:cc="http://creativecommons.org/ns#"
   xmlns:rdf="http://www.w3.org/1999/02/22-rdf-syntax-ns#"
   xmlns:svg="http://www.w3.org/2000/svg"
   xmlns="http://www.w3.org/2000/svg"
   xmlns:sodipodi="http://sodipodi.sourceforge.net/DTD/sodipodi-0.dtd"
   xmlns:inkscape="http://www.inkscape.org/namespaces/inkscape"
   version="1.1"
   id="Capa_1"
   x="0px"
   y="0px"
   viewBox="0 0 481.883 481.883"
   style="enable-background:new 0 0 481.883 481.883;"
   xml:space="preserve"
   sodipodi:docname="function.svg"
   inkscape:version="0.92.1 r15371"><metadata
     id="metadata103"><rdf:RDF><cc:Work
         rdf:about=""><dc:format>image/svg+xml</dc:format><dc:type
           rdf:resource="http://purl.org/dc/dcmitype/StillImage" /><dc:title></dc:title></cc:Work></rdf:RDF></metadata><defs
     id="defs101" /><sodipodi:namedview
     pagecolor="#ffffff"
     bordercolor="#666666"
     borderopacity="1"
     objecttolerance="10"
     gridtolerance="10"
     guidetolerance="10"
     inkscape:pageopacity="0"
     inkscape:pageshadow="2"
     inkscape:window-width="1366"
     inkscape:window-height="745"
     id="namedview99"
     showgrid="false"
     inkscape:zoom="0.48974544"
     inkscape:cx="240.9415"
     inkscape:cy="240.9415"
     inkscape:window-x="-8"
     inkscape:window-y="-8"
     inkscape:window-maximized="1"
     inkscape:current-layer="Capa_1" /><g
     id="g6"
     style="stroke:#000000;stroke-opacity:1;stroke-width:5;stroke-miterlimit:4;stroke-dasharray:none"><g
       id="g4"
       style="stroke:#000000;stroke-opacity:1;stroke-width:5;stroke-miterlimit:4;stroke-dasharray:none"><path
         d="m 112,128.285 c -13.255,0 -24,10.745 -24,24 0.014,13.249 10.751,23.986 24,24 13.255,0 24,-10.745 24,-24 0,-13.255 -10.745,-24 -24,-24 z m 0,32 c -4.418,0 -8,-3.582 -8,-8 0.003,-4.417 3.583,-7.997 8,-8 4.418,0 8,3.582 8,8 0,4.418 -3.582,8 -8,8 z"
         id="path2"
         inkscape:connector-curvature="0"
         style="stroke:#000000;stroke-opacity:1;stroke-width:5;stroke-miterlimit:4;stroke-dasharray:none" /></g></g><g
     id="g12"
     style="stroke:#000000;stroke-opacity:1;stroke-width:5;stroke-miterlimit:4;stroke-dasharray:none"><g
       id="g10"
       style="stroke:#000000;stroke-opacity:1;stroke-width:5;stroke-miterlimit:4;stroke-dasharray:none"><path
         d="m 171.398,138.16 -9.313,-4.82 c -0.289,-0.75 -0.602,-1.492 -0.93,-2.234 l 3.203,-10.063 c 0.789,-2.485 0.32,-5.198 -1.258,-7.273 -3.498,-4.602 -7.594,-8.716 -12.18,-12.234 -2.082,-1.597 -4.815,-2.07 -7.312,-1.266 l -9.969,3.203 c -0.695,-0.313 -1.398,-0.609 -2.094,-0.883 l -4.828,-9.828 c -1.342,-2.741 -4.128,-4.478 -7.18,-4.477 h -15.086 c -3.052,-0.002 -5.838,1.736 -7.18,4.477 l -4.82,9.828 c -0.703,0.273 -1.398,0.57 -2.094,0.883 l -9.969,-3.203 c -2.495,-0.81 -5.228,-0.336 -7.305,1.266 -4.59,3.516 -8.689,7.631 -12.188,12.234 -1.577,2.073 -2.047,4.783 -1.258,7.266 l 3.195,10.07 c -0.32,0.727 -0.625,1.461 -0.906,2.195 l -9.539,4.82 c -2.692,1.363 -4.39,4.123 -4.391,7.141 v 15.164 c -0.001,3.014 1.694,5.772 4.383,7.133 l 9.539,4.836 c 0.289,0.734 0.594,1.469 0.914,2.195 l -3.195,10.063 c -0.786,2.475 -0.323,5.178 1.242,7.25 3.495,4.608 7.591,8.728 12.18,12.25 2.085,1.596 4.819,2.072 7.32,1.273 l 9.984,-3.203 c 0.75,0.336 1.5,0.648 2.258,0.945 l 4.781,8.906 c 1.394,2.595 4.102,4.213 7.048,4.211 h 15.086 c 2.945,-0.001 5.651,-1.618 7.047,-4.211 l 4.789,-8.906 c 0.75,-0.289 1.508,-0.609 2.258,-0.945 l 9.977,3.203 c 2.499,0.788 5.224,0.316 7.313,-1.266 4.591,-3.522 8.69,-7.641 12.188,-12.25 1.572,-2.075 2.038,-4.785 1.25,-7.266 l -3.203,-10.063 c 0.328,-0.734 0.641,-1.484 0.93,-2.227 l 9.313,-4.828 c 2.654,-1.374 4.32,-4.113 4.32,-7.102 V 145.26 c 0.002,-2.987 -1.665,-5.727 -4.32,-7.1 z m -11.679,17.399 -7.797,4.047 c -1.891,0.979 -3.314,2.672 -3.953,4.703 -0.659,2.068 -1.496,4.076 -2.5,6 -0.977,1.887 -1.165,4.084 -0.523,6.109 l 2.844,8.93 c -1.097,1.226 -2.258,2.394 -3.477,3.5 l -8.828,-2.836 c -2.034,-0.656 -4.247,-0.468 -6.141,0.523 -1.912,1.003 -3.907,1.842 -5.961,2.508 -1.988,0.624 -3.653,2.001 -4.641,3.836 l -3.984,7.406 h -5.523 l -3.977,-7.406 c -0.985,-1.837 -2.651,-3.214 -4.641,-3.836 -2.054,-0.666 -4.049,-1.505 -5.961,-2.508 -1.894,-0.991 -4.106,-1.18 -6.141,-0.523 l -8.836,2.836 c -1.217,-1.108 -2.377,-2.276 -3.477,-3.5 l 2.844,-8.937 c 0.641,-2.023 0.453,-4.217 -0.523,-6.102 -1.004,-1.924 -1.841,-3.932 -2.5,-6 -0.646,-2.055 -2.094,-3.762 -4.016,-4.734 L 64,155.512 v -5.336 l 8.008,-4.047 c 1.925,-0.975 3.375,-2.684 4.023,-4.742 0.66,-2.073 1.496,-4.086 2.5,-6.016 0.97,-1.883 1.155,-4.074 0.516,-6.094 l -2.836,-8.937 c 1.097,-1.222 2.254,-2.387 3.469,-3.492 l 8.836,2.836 c 2.04,0.658 4.259,0.466 6.156,-0.531 1.914,-1.007 3.911,-1.846 5.969,-2.508 2.076,-0.663 3.792,-2.144 4.75,-4.102 l 4.047,-8.258 h 5.117 l 4.055,8.258 c 0.96,1.956 2.675,3.437 4.75,4.102 2.058,0.662 4.055,1.501 5.969,2.508 1.897,0.998 4.116,1.19 6.156,0.531 l 8.828,-2.836 c 1.217,1.105 2.377,2.27 3.477,3.492 l -2.844,8.93 c -0.64,2.022 -0.454,4.215 0.516,6.102 1.011,1.928 1.85,3.941 2.508,6.016 0.639,2.031 2.062,3.724 3.953,4.703 l 7.797,4.039 v 5.429 z"
         id="path8"
         inkscape:connector-curvature="0"
         style="stroke:#000000;stroke-opacity:1;stroke-width:5;stroke-miterlimit:4;stroke-dasharray:none" /></g></g><g
     id="g18"
     style="stroke:#000000;stroke-opacity:1;stroke-width:5;stroke-miterlimit:4;stroke-dasharray:none"><g
       id="g16"
       style="stroke:#000000;stroke-opacity:1;stroke-width:5;stroke-miterlimit:4;stroke-dasharray:none"><path
         d="m 208,264.285 c -17.673,0 -32,14.327 -32,32 0,17.673 14.327,32 32,32 17.673,0 32,-14.327 32,-32 -0.018,-17.666 -14.334,-31.982 -32,-32 z m 0,48 c -8.837,0 -16,-7.163 -16,-16 0,-8.837 7.163,-16 16,-16 8.837,0 16,7.163 16,16 -0.011,8.832 -7.168,15.989 -16,16 z"
         id="path14"
         inkscape:connector-curvature="0"
         style="stroke:#000000;stroke-opacity:1;stroke-width:5;stroke-miterlimit:4;stroke-dasharray:none" /></g></g><g
     id="g24"
     style="stroke:#000000;stroke-opacity:1;stroke-width:5;stroke-miterlimit:4;stroke-dasharray:none"><g
       id="g22"
       style="stroke:#000000;stroke-opacity:1;stroke-width:5;stroke-miterlimit:4;stroke-dasharray:none"><path
         d="m 275.539,280.527 -11.492,-5.656 c -0.406,-1.047 -0.844,-2.086 -1.312,-3.125 l 3.75,-11.758 c 0.796,-2.483 0.329,-5.198 -1.25,-7.273 -3.921,-5.147 -8.517,-9.743 -13.664,-13.664 -2.075,-1.58 -4.79,-2.047 -7.273,-1.25 l -11.758,3.75 c -1.039,-0.469 -2.078,-0.906 -3.125,-1.312 l -5.656,-11.492 c -1.352,-2.73 -4.134,-4.459 -7.18,-4.461 h -17.156 c -3.046,0.003 -5.828,1.731 -7.18,4.461 l -5.656,11.492 c -1.047,0.406 -2.086,0.844 -3.125,1.312 l -11.758,-3.75 c -2.486,-0.81 -5.211,-0.339 -7.281,1.258 -5.145,3.918 -9.738,8.511 -13.656,13.656 -1.579,2.075 -2.046,4.79 -1.25,7.273 l 3.75,11.758 c -0.469,1.039 -0.906,2.078 -1.312,3.125 l -11.492,5.656 c -2.73,1.352 -4.459,4.134 -4.461,7.18 v 17.156 c 0.003,3.046 1.731,5.828 4.461,7.18 l 11.492,5.656 c 0.406,1.047 0.844,2.086 1.313,3.125 l -3.75,11.758 c -0.796,2.483 -0.329,5.198 1.25,7.273 3.921,5.147 8.517,9.743 13.664,13.664 2.074,1.581 4.79,2.048 7.273,1.25 l 11.758,-3.75 c 1.039,0.469 2.078,0.906 3.125,1.313 l 5.656,11.492 c 1.352,2.73 4.134,4.459 7.18,4.461 h 17.156 c 3.046,-0.003 5.828,-1.731 7.18,-4.461 l 5.656,-11.492 c 1.047,-0.406 2.086,-0.844 3.125,-1.313 l 11.758,3.75 c 2.483,0.792 5.197,0.326 7.273,-1.25 5.147,-3.921 9.743,-8.517 13.664,-13.664 1.579,-2.075 2.046,-4.79 1.25,-7.273 l -3.75,-11.758 c 0.469,-1.039 0.906,-2.078 1.313,-3.125 l 11.492,-5.656 c 2.73,-1.352 4.458,-4.133 4.461,-7.18 v -17.156 c -0.005,-3.046 -1.733,-5.828 -4.463,-7.18 z m -11.539,19.36 -9.953,4.898 c -1.953,0.967 -3.428,2.688 -4.086,4.766 -0.771,2.399 -1.746,4.728 -2.914,6.961 -0.984,1.89 -1.172,4.095 -0.523,6.125 l 3.398,10.672 c -1.53,1.733 -3.166,3.369 -4.898,4.898 l -10.672,-3.398 c -2.029,-0.656 -4.237,-0.467 -6.125,0.523 -2.233,1.168 -4.562,2.143 -6.961,2.914 -2.078,0.658 -3.799,2.133 -4.766,4.086 l -4.898,9.953 h -7.203 l -4.898,-9.953 c -0.967,-1.953 -2.688,-3.428 -4.766,-4.086 -2.399,-0.771 -4.728,-1.746 -6.961,-2.914 -1.888,-0.991 -4.096,-1.18 -6.125,-0.523 l -10.672,3.398 c -1.733,-1.53 -3.369,-3.166 -4.898,-4.898 l 3.398,-10.672 c 0.649,-2.03 0.461,-4.235 -0.523,-6.125 -1.168,-2.233 -2.143,-4.562 -2.914,-6.961 -0.658,-2.078 -2.133,-3.799 -4.086,-4.766 L 152,299.887 v -7.203 l 9.953,-4.898 c 1.953,-0.967 3.428,-2.688 4.086,-4.766 0.771,-2.399 1.746,-4.728 2.914,-6.961 0.984,-1.89 1.172,-4.095 0.523,-6.125 l -3.398,-10.672 c 1.53,-1.733 3.166,-3.369 4.898,-4.898 l 10.672,3.398 c 2.029,0.652 4.236,0.464 6.125,-0.523 2.233,-1.168 4.562,-2.143 6.961,-2.914 2.078,-0.658 3.799,-2.133 4.766,-4.086 l 4.898,-9.953 h 7.203 l 4.898,9.953 c 0.967,1.953 2.688,3.428 4.766,4.086 2.399,0.771 4.728,1.746 6.961,2.914 1.889,0.987 4.096,1.176 6.125,0.523 l 10.672,-3.398 c 1.733,1.53 3.369,3.166 4.898,4.898 l -3.398,10.672 c -0.649,2.03 -0.461,4.235 0.523,6.125 1.168,2.233 2.143,4.562 2.914,6.961 0.658,2.078 2.133,3.799 4.086,4.766 l 9.953,4.898 v 7.203 z"
         id="path20"
         inkscape:connector-curvature="0"
         style="stroke:#000000;stroke-opacity:1;stroke-width:5;stroke-miterlimit:4;stroke-dasharray:none" /></g></g><g
     id="g30"
     style="stroke:#000000;stroke-opacity:1;stroke-width:5;stroke-miterlimit:4;stroke-dasharray:none"><g
       id="g28"
       style="stroke:#000000;stroke-opacity:1;stroke-width:5;stroke-miterlimit:4;stroke-dasharray:none"><path
         d="m 392,312.285 c -22.091,0 -40,17.909 -40,40 0,22.091 17.909,40 40,40 22.091,0 40,-17.909 40,-40 -0.026,-22.081 -17.919,-39.974 -40,-40 z m 0,64 c -13.255,0 -24,-10.745 -24,-24 0,-13.255 10.745,-24 24,-24 13.255,0 24,10.745 24,24 -0.014,13.249 -10.751,23.986 -24,24 z"
         id="path26"
         inkscape:connector-curvature="0"
         style="stroke:#000000;stroke-opacity:1;stroke-width:5;stroke-miterlimit:4;stroke-dasharray:none" /></g></g><g
     id="g36"
     style="stroke:#000000;stroke-opacity:1;stroke-width:5;stroke-miterlimit:4;stroke-dasharray:none"><g
       id="g34"
       style="stroke:#000000;stroke-opacity:1;stroke-width:5;stroke-miterlimit:4;stroke-dasharray:none"><path
         d="m 475.539,334.387 -15.078,-7.422 c -0.648,-1.75 -1.383,-3.492 -2.188,-5.219 l 4.93,-15.43 c 0.798,-2.489 0.328,-5.211 -1.258,-7.289 -4.791,-6.284 -10.404,-11.896 -16.687,-16.687 -2.077,-1.587 -4.8,-2.057 -7.289,-1.258 l -15.43,4.93 c -1.727,-0.805 -3.469,-1.539 -5.219,-2.188 l -7.422,-15.078 c -1.352,-2.73 -4.133,-4.458 -7.18,-4.461 h -21.437 c -3.046,0.003 -5.828,1.731 -7.18,4.461 l -7.422,15.078 c -1.75,0.648 -3.492,1.383 -5.219,2.188 l -15.43,-4.93 c -2.489,-0.807 -5.215,-0.337 -7.289,1.258 -6.284,4.791 -11.896,10.404 -16.687,16.687 -1.586,2.078 -2.055,4.8 -1.258,7.289 l 4.93,15.43 c -0.805,1.727 -1.539,3.469 -2.188,5.219 l -15.078,7.422 c -2.73,1.352 -4.458,4.133 -4.461,7.18 v 21.437 c 0.003,3.046 1.731,5.828 4.461,7.18 l 15.078,7.422 c 0.648,1.75 1.383,3.492 2.188,5.219 l -4.93,15.43 c -0.798,2.489 -0.328,5.211 1.258,7.289 4.791,6.284 10.404,11.896 16.687,16.687 2.076,1.589 4.8,2.059 7.289,1.258 l 15.43,-4.93 c 1.727,0.805 3.469,1.539 5.219,2.188 l 7.422,15.078 c 1.352,2.73 4.133,4.458 7.18,4.461 h 21.437 c 3.046,-0.003 5.828,-1.731 7.18,-4.461 l 7.422,-15.078 c 1.75,-0.648 3.492,-1.383 5.219,-2.188 l 15.43,4.93 c 2.49,0.79 5.208,0.321 7.289,-1.258 6.284,-4.791 11.896,-10.404 16.687,-16.687 1.586,-2.078 2.055,-4.8 1.258,-7.289 l -4.93,-15.43 c 0.805,-1.727 1.539,-3.469 2.188,-5.219 l 15.078,-7.422 c 2.73,-1.352 4.458,-4.133 4.461,-7.18 v -21.437 c -0.003,-3.047 -1.731,-5.829 -4.461,-7.18 z m -11.539,23.64 -13.563,6.68 c -1.955,0.968 -3.431,2.692 -4.086,4.773 -0.998,3.108 -2.26,6.124 -3.773,9.016 -0.984,1.893 -1.172,4.1 -0.523,6.133 l 4.601,14.39 c -2.43,2.844 -5.078,5.492 -7.922,7.922 l -14.39,-4.602 c -2.031,-0.661 -4.243,-0.472 -6.133,0.523 -2.892,1.513 -5.908,2.776 -9.016,3.773 -2.081,0.655 -3.805,2.131 -4.773,4.086 l -6.68,13.563 h -11.484 l -6.68,-13.563 c -0.968,-1.955 -2.692,-3.431 -4.773,-4.086 -3.108,-0.998 -6.124,-2.26 -9.016,-3.773 -1.89,-0.995 -4.102,-1.184 -6.133,-0.523 l -14.39,4.601 c -2.844,-2.43 -5.492,-5.078 -7.922,-7.922 l 4.602,-14.391 c 0.649,-2.032 0.46,-4.24 -0.523,-6.133 -1.513,-2.892 -2.776,-5.908 -3.773,-9.016 -0.655,-2.081 -2.131,-3.805 -4.086,-4.773 L 320,358.027 v -11.484 l 13.563,-6.68 c 1.955,-0.968 3.431,-2.692 4.086,-4.773 0.998,-3.108 2.26,-6.124 3.773,-9.016 0.984,-1.893 1.172,-4.1 0.523,-6.133 l -4.601,-14.39 c 2.43,-2.844 5.078,-5.492 7.922,-7.922 l 14.391,4.602 c 2.031,0.66 4.243,0.472 6.133,-0.523 2.892,-1.513 5.908,-2.776 9.016,-3.773 2.081,-0.655 3.805,-2.131 4.773,-4.086 l 6.679,-13.563 h 11.484 l 6.68,13.562 c 0.968,1.955 2.692,3.431 4.773,4.086 3.108,0.998 6.124,2.26 9.016,3.773 1.89,0.995 4.102,1.184 6.133,0.523 l 14.39,-4.601 c 2.844,2.43 5.492,5.078 7.922,7.922 l -4.602,14.39 c -0.649,2.032 -0.46,4.24 0.523,6.133 1.513,2.892 2.776,5.908 3.773,9.016 0.655,2.081 2.131,3.805 4.086,4.773 l 13.563,6.68 v 11.484 z"
         id="path32"
         inkscape:connector-curvature="0"
         style="stroke:#000000;stroke-opacity:1;stroke-width:5;stroke-miterlimit:4;stroke-dasharray:none" /></g></g><g
     id="g42"
     style="stroke:#000000;stroke-opacity:1;stroke-width:5;stroke-miterlimit:4;stroke-dasharray:none"><g
       id="g40"
       style="stroke:#000000;stroke-opacity:1;stroke-width:5;stroke-miterlimit:4;stroke-dasharray:none"><path
         d="m 479.102,456.418 c -30.082,5.258 -60.564,7.891 -91.102,7.867 -205.125,0 -372,-116.633 -372,-260 C 16,131.933 57.664,64.707 133.32,14.972 L 124.539,1.597 C 45.391,53.629 0,127.504 0,204.285 c 0,152.188 174.055,276 388,276 31.471,0.026 62.884,-2.69 93.883,-8.117 z"
         id="path38"
         inkscape:connector-curvature="0"
         style="stroke:#000000;stroke-opacity:1;stroke-width:5;stroke-miterlimit:4;stroke-dasharray:none" /></g></g><g
     id="g48"
     style="stroke:#000000;stroke-opacity:1;stroke-width:5;stroke-miterlimit:4;stroke-dasharray:none"><g
       id="g46"
       style="stroke:#000000;stroke-opacity:1;stroke-width:5;stroke-miterlimit:4;stroke-dasharray:none"><path
         d="M 192,68.285 C 192.15,48.534 197.702,29.2 208.055,12.379 L 194.305,4.191 C 182.468,23.485 176.138,45.65 176,68.285 c 0,113.016 99.406,169.242 303.898,171.898 l 0.203,-16 C 283.547,221.629 192,172.09 192,68.285 Z"
         id="path44"
         inkscape:connector-curvature="0"
         style="stroke:#000000;stroke-opacity:1;stroke-width:5;stroke-miterlimit:4;stroke-dasharray:none" /></g></g><g
     id="g54"
     style="stroke:#000000;stroke-opacity:1;stroke-width:5;stroke-miterlimit:4;stroke-dasharray:none"><g
       id="g52"
       style="stroke:#000000;stroke-opacity:1;stroke-width:5;stroke-miterlimit:4;stroke-dasharray:none"><path
         d="m 245.586,79.652 c -10.375,-18.611 -9.837,-41.385 1.406,-59.484 l -13.984,-7.766 c -13.88,22.884 -14.453,51.446 -1.5,74.867 22.875,42.266 87.133,74.187 159.914,79.422 l 1.156,-15.953 C 325.023,145.871 265.953,117.308 245.586,79.652 Z"
         id="path50"
         inkscape:connector-curvature="0"
         style="stroke:#000000;stroke-opacity:1;stroke-width:5;stroke-miterlimit:4;stroke-dasharray:none" /></g></g><g
     id="g60"
     style="stroke:#000000;stroke-opacity:1;stroke-width:5;stroke-miterlimit:4;stroke-dasharray:none"><g
       id="g58"
       style="stroke:#000000;stroke-opacity:1;stroke-width:5;stroke-miterlimit:4;stroke-dasharray:none"><rect
         x="408"
         y="152.285"
         width="16"
         height="16"
         id="rect56"
         style="stroke:#000000;stroke-opacity:1;stroke-width:5;stroke-miterlimit:4;stroke-dasharray:none" /></g></g><g
     id="g66"
     style="stroke:#000000;stroke-opacity:1;stroke-width:5;stroke-miterlimit:4;stroke-dasharray:none"><g
       id="g64"
       style="stroke:#000000;stroke-opacity:1;stroke-width:5;stroke-miterlimit:4;stroke-dasharray:none"><path
         d="m 478.784,156.045 c -0.643,-1.029 -1.512,-1.898 -2.541,-2.542 l -64,-40 -8.484,13.563 53.148,33.219 -53.148,33.219 8.484,13.563 64,-40 c 3.744,-2.342 4.882,-7.277 2.541,-11.022 z"
         id="path62"
         inkscape:connector-curvature="0"
         style="stroke:#000000;stroke-opacity:1;stroke-width:5;stroke-miterlimit:4;stroke-dasharray:none" /></g></g><g
     id="g68" /><g
     id="g70" /><g
     id="g72" /><g
     id="g74" /><g
     id="g76" /><g
     id="g78" /><g
     id="g80" /><g
     id="g82" /><g
     id="g84" /><g
     id="g86" /><g
     id="g88" /><g
     id="g90" /><g
     id="g92" /><g
     id="g94" /><g
     id="g96" /></svg>