<?xml version="1.0" encoding="UTF-8" standalone="no"?>
<!-- Created with Inkscape (http://www.inkscape.org/) -->

<svg
   xmlns:dc="http://purl.org/dc/elements/1.1/"
   xmlns:cc="http://creativecommons.org/ns#"
   xmlns:rdf="http://www.w3.org/1999/02/22-rdf-syntax-ns#"
   xmlns:svg="http://www.w3.org/2000/svg"
   xmlns="http://www.w3.org/2000/svg"
   xmlns:sodipodi="http://sodipodi.sourceforge.net/DTD/sodipodi-0.dtd"
   xmlns:inkscape="http://www.inkscape.org/namespaces/inkscape"
   width="9mm"
   height="9mm"
   viewBox="0 0 9 9"
   version="1.1"
   id="svg4534"
   inkscape:version="0.92.1 r15371"
   sodipodi:docname="led_pixel.svg">
  <defs
     id="defs4528" />
  <sodipodi:namedview
     id="base"
     pagecolor="#ffffff"
     bordercolor="#666666"
     borderopacity="1.0"
     inkscape:pageopacity="0.0"
     inkscape:pageshadow="2"
     inkscape:zoom="2.8"
     inkscape:cx="-60.627116"
     inkscape:cy="52.410295"
     inkscape:document-units="mm"
     inkscape:current-layer="layer1"
     showgrid="false"
     inkscape:window-width="1366"
     inkscape:window-height="745"
     inkscape:window-x="-8"
     inkscape:window-y="-8"
     inkscape:window-maximized="1" />
  <metadata
     id="metadata4531">
    <rdf:RDF>
      <cc:Work
         rdf:about="">
        <dc:format>image/svg+xml</dc:format>
        <dc:type
           rdf:resource="http://purl.org/dc/dcmitype/StillImage" />
        <dc:title></dc:title>
      </cc:Work>
    </rdf:RDF>
  </metadata>
  <g
     inkscape:label="Layer 1"
     inkscape:groupmode="layer"
     id="layer1"
     transform="translate(0,-288)">
    <g
       id="g4497"
       transform="translate(1.7074755)">
      <g
         transform="matrix(0.63205233,0,0,0.63205233,1.5954003,107.53992)"
         id="g4486">
        <path
           inkscape:connector-curvature="0"
           d="m 0.23025858,296.60315 c 0,0.21889 0.1779213,0.39681 0.396815,0.39681 H 8.5644973 c 0.105518,0 0.205985,-0.0421 0.280633,-0.11674 0.07465,-0.0747 0.116182,-0.17568 0.116744,-0.28063 -5.6e-4,-7.93693 -5.6e-4,-7.93693 -5.6e-4,-7.93693 -5.65e-5,-0.11 -0.0449,-0.20879 -0.116743,-0.28063 -0.07184,-0.0718 -0.171186,-0.11618 -0.280633,-0.11674 H 0.62651238 c -0.105518,0 -0.2059847,0.0421 -0.280633,0.11674 -0.074648,0.0746 -0.1161821,0.17568 -0.1167434,0.28063 l 5.613e-4,2.67893 c 0.00188,1.75285 5.613e-4,3.5057 5.613e-4,5.25856 z m 7.93910772,-7.53944 v 7.1438 H 1.0255725 v -7.1438 z"
           id="path6"
           sodipodi:nodetypes="csscccccsccccccccc" />
        <path
           inkscape:connector-curvature="0"
           d="m 6.4917423,290.74134 c 0.505701,0.5057 0.78465,1.17865 0.785211,1.89427 0,0.71505 -0.278949,1.38801 -0.78465,1.89371 -0.506262,0.50626 -1.179781,0.78465 -1.8948339,0.78465 -1.4295445,5.6e-4 -2.6783614,-1.24826 -2.6778001,-2.6778 -5.613e-4,-0.71561 0.2783879,-1.38857 0.7846498,-1.89483 0.5057007,-0.5057 1.1792199,-0.78409 1.8942728,-0.78409 0.7144916,-5.6e-4 1.3868884,0.27782 1.8931504,0.78409 z m -3.3675962,3.36759 c 0.3934475,0.39345 0.9165474,0.6101 1.472762,0.60954 0.5567759,0 1.0804371,-0.21609 1.4738842,-0.60954 0.393448,-0.39345 0.610097,-0.91655 0.610097,-1.47332 -5.62e-4,-1.11299 -0.9709907,-2.08342 -2.0839812,-2.08398 -0.5562146,5.6e-4 -1.0798758,0.21665 -1.4733233,0.61009 -0.3940087,0.39401 -0.6106574,0.91711 -0.6100961,1.47333 0,0.55677 0.2172099,1.08043 0.6106574,1.47388 z"
           id="path10" />
      </g>
      <text
         id="text4490"
         y="294.57816"
         x="-1.5656354"
         style="font-style:normal;font-variant:normal;font-weight:normal;font-stretch:normal;font-size:0.14875261px;line-height:1.25;font-family:OCRA;-inkscape-font-specification:'OCRA, Normal';font-variant-ligatures:normal;font-variant-caps:normal;font-variant-numeric:normal;font-feature-settings:normal;text-align:start;letter-spacing:0px;word-spacing:0px;writing-mode:lr-tb;text-anchor:start;fill:#000000;fill-opacity:1;stroke:#000000;stroke-width:0.32800001;stroke-miterlimit:4;stroke-dasharray:none;stroke-opacity:1"
         xml:space="preserve"><tspan
           style="font-style:normal;font-variant:normal;font-weight:normal;font-stretch:normal;font-size:5.35509396px;font-family:Arial;-inkscape-font-specification:Arial;stroke:#000000;stroke-width:0.32800001;stroke-miterlimit:4;stroke-dasharray:none;stroke-opacity:1"
           y="294.57816"
           x="-1.5656354"
           id="tspan4488"
           sodipodi:role="line">#</tspan></text>
    </g>
  </g>
</svg>
