<?xml version="1.0" encoding="UTF-8" standalone="no"?>
<!-- Created with Inkscape (http://www.inkscape.org/) -->

<svg
   xmlns:dc="http://purl.org/dc/elements/1.1/"
   xmlns:cc="http://creativecommons.org/ns#"
   xmlns:rdf="http://www.w3.org/1999/02/22-rdf-syntax-ns#"
   xmlns:svg="http://www.w3.org/2000/svg"
   xmlns="http://www.w3.org/2000/svg"
   xmlns:sodipodi="http://sodipodi.sourceforge.net/DTD/sodipodi-0.dtd"
   xmlns:inkscape="http://www.inkscape.org/namespaces/inkscape"
   width="32mm"
   height="32mm"
   viewBox="0 0 32 32"
   version="1.1"
   id="svg4534"
   inkscape:version="0.92.1 r15371"
   sodipodi:docname="led_strip.svg">
  <defs
     id="defs4528" />
  <sodipodi:namedview
     id="base"
     pagecolor="#ffffff"
     bordercolor="#666666"
     borderopacity="1.0"
     inkscape:pageopacity="0.0"
     inkscape:pageshadow="2"
     inkscape:zoom="1.979899"
     inkscape:cx="33.649815"
     inkscape:cy="-3.1567414"
     inkscape:document-units="mm"
     inkscape:current-layer="layer1"
     showgrid="false"
     inkscape:window-width="1366"
     inkscape:window-height="745"
     inkscape:window-x="-8"
     inkscape:window-y="-8"
     inkscape:window-maximized="1" />
  <metadata
     id="metadata4531">
    <rdf:RDF>
      <cc:Work
         rdf:about="">
        <dc:format>image/svg+xml</dc:format>
        <dc:type
           rdf:resource="http://purl.org/dc/dcmitype/StillImage" />
        <dc:title></dc:title>
      </cc:Work>
    </rdf:RDF>
  </metadata>
  <g
     inkscape:label="Layer 1"
     inkscape:groupmode="layer"
     id="layer1"
     transform="translate(0,-265)">
    <rect
       x="-289.45923"
       y="-2.9380457"
       transform="rotate(-90)"
       width="0.79374242"
       height="39.004692"
       id="rect2"
       style="stroke-width:0.6;stroke:#000000;stroke-opacity:1;stroke-miterlimit:4;stroke-dasharray:none" />
    <rect
       x="-273.58453"
       y="-2.8043442"
       transform="rotate(-90)"
       width="0.79374242"
       height="39.003899"
       id="rect4"
       style="stroke-width:0.6;stroke:#000000;stroke-opacity:1;stroke-miterlimit:4;stroke-dasharray:none" />
    <path
       sodipodi:nodetypes="cccccssssccccccscssccccccccscssccsscsscccccccccccccccccccsccccccccccccsccccc"
       inkscape:connector-curvature="0"
       d="m -2.8166362,283.80187 2.33206023,5.6e-4 c 0.0667907,5.6e-4 0.13133624,-0.0213 0.18297271,-0.0629 l 1.95320576,-1.5244 h 2.6749938 v 2.87705 c 0,0.21889 0.1779213,0.39681 0.396815,0.39681 h 7.9374237 c 0.105518,0 0.205985,-0.0421 0.280633,-0.11674 0.07465,-0.0747 0.116182,-0.17568 0.116744,-0.28063 v -1.28979 l 2.33206,-5.6e-4 c 0.06623,0 0.130775,-0.0219 0.182973,-0.0629 l 1.953205,-1.52439 2.675555,5.6e-4 v 2.87705 c 0,0.21103 0.186341,0.39737 0.396815,0.39681 h 7.937424 c 0.218894,0 0.396815,-0.17792 0.396815,-0.39681 v -1.28979 h 2.331499 c 0.06679,-5.6e-4 0.131337,-0.0224 0.183534,-0.0634 l 1.953767,-1.52495 2.675555,5.6e-4 c 0.0011,-0.59382 0.0011,-1.78371 -0.0011,-2.37977 H 28.93252 l 5.61e-4,-2.67892 c 0,-0.10552 -0.04209,-0.20599 -0.116743,-0.28064 -0.07465,-0.0747 -0.175676,-0.11618 -0.280633,-0.11674 h -7.937424 c -0.218894,0 -0.396815,0.17792 -0.396815,0.39681 v 2.67949 H 13.05765 v -2.67949 c 0,-0.11 -0.0449,-0.20879 -0.116743,-0.28063 -0.07184,-0.0718 -0.171186,-0.11618 -0.280633,-0.11674 H 4.7228501 c -0.105518,0 -0.2059847,0.0421 -0.280633,0.11674 -0.074648,0.0746 -0.1161821,0.17568 -0.1167434,0.28063 l 5.613e-4,2.67893 h -7.1437938 c 0,0 0.00168,3.37377 0.00112,3.96815 z m 38.8951732,-3.37153 v 1.18989 l -2.777706,-5.6e-4 c -0.06679,5.6e-4 -0.131336,0.0224 -0.183533,0.0634 l -1.953767,1.52496 h -2.229349 v -2.77715 z m -7.937424,-2.87817 v 7.14379 h -7.143794 v -7.14379 z m -7.937985,2.87873 v 1.18989 h -2.778267 c -0.06623,0 -0.130775,0.0219 -0.182973,0.0629 l -1.953205,1.5244 h -2.229349 v -2.77715 z m -7.937424,-2.87817 v 7.1438 H 5.1219102 v -7.1438 z m -7.9379852,2.87761 v 1.18989 H 1.549452 c -0.066229,0 -0.1307749,0.0219 -0.1824114,0.0634 l -1.95320572,1.5244 -2.22990988,-5.6e-4 5.613e-4,-2.77771 z"
       id="path6"
       style="stroke-width:0.6;stroke:#000000;stroke-opacity:1;stroke-miterlimit:4;stroke-dasharray:none" />
    <path
       inkscape:connector-curvature="0"
       d="m 10.58808,279.23036 c 0.505701,0.5057 0.78465,1.17865 0.785211,1.89427 0,0.71505 -0.278949,1.38801 -0.78465,1.89371 -0.506262,0.50626 -1.179781,0.78465 -1.8948339,0.78465 -1.4295445,5.6e-4 -2.6783614,-1.24826 -2.6778001,-2.6778 -5.613e-4,-0.71561 0.2783879,-1.38857 0.7846498,-1.89483 0.5057007,-0.5057 1.1792199,-0.78409 1.8942728,-0.78409 0.7144916,-5.6e-4 1.3868884,0.27782 1.8931504,0.78409 z m -3.3675962,3.36759 c 0.3934475,0.39345 0.9165474,0.6101 1.472762,0.60954 0.5567759,0 1.0804371,-0.21609 1.4738842,-0.60954 0.393448,-0.39345 0.610097,-0.91655 0.610097,-1.47332 -5.62e-4,-1.11299 -0.9709907,-2.08342 -2.0839812,-2.08398 -0.5562146,5.6e-4 -1.0798758,0.21665 -1.4733233,0.61009 -0.3940087,0.39401 -0.6106574,0.91711 -0.6100961,1.47333 0,0.55677 0.2172099,1.08043 0.6106574,1.47388 z"
       id="path10"
       style="stroke-width:0.6;stroke:#000000;stroke-opacity:1;stroke-miterlimit:4;stroke-dasharray:none" />
    <path
       inkscape:connector-curvature="0"
       d="m 26.462928,279.23036 c 0.506262,0.50626 0.78465,1.17978 0.78465,1.89483 0,0.71505 -0.278388,1.38745 -0.78465,1.89371 -0.506262,0.50626 -1.178659,0.78465 -1.894273,0.78521 -1.428983,0 -2.678923,-1.24769 -2.678361,-2.67948 0,-0.71505 0.278387,-1.38745 0.784649,-1.89371 0.506262,-0.50626 1.178659,-0.78465 1.893712,-0.78465 0.715614,-5.6e-4 1.388011,0.27782 1.894273,0.78409 z m -3.367596,3.36759 c 0.394008,0.39401 0.917108,0.61066 1.473323,0.6101 0.556776,0 1.079876,-0.21665 1.473323,-0.6101 0.393448,-0.39345 0.610096,-0.91655 0.610096,-1.47332 -5.61e-4,-1.11187 -0.971551,-2.08286 -2.083419,-2.08342 -0.556776,0 -1.079876,0.21665 -1.473323,0.6101 -0.393448,0.39344 -0.610097,0.91654 -0.609535,1.47276 -5.62e-4,0.55621 0.216087,1.08043 0.609535,1.47388 z"
       id="path12"
       style="stroke-width:0.6;stroke:#000000;stroke-opacity:1;stroke-miterlimit:4;stroke-dasharray:none" />
  </g>
</svg>
