<?xml version="1.0" encoding="UTF-8" standalone="no"?>
<!-- Generator: Adobe Illustrator 19.1.0, SVG Export Plug-In . SVG Version: 6.00 Build 0)  -->

<svg
   xmlns:dc="http://purl.org/dc/elements/1.1/"
   xmlns:cc="http://creativecommons.org/ns#"
   xmlns:rdf="http://www.w3.org/1999/02/22-rdf-syntax-ns#"
   xmlns:svg="http://www.w3.org/2000/svg"
   xmlns="http://www.w3.org/2000/svg"
   xmlns:sodipodi="http://sodipodi.sourceforge.net/DTD/sodipodi-0.dtd"
   xmlns:inkscape="http://www.inkscape.org/namespaces/inkscape"
   version="1.1"
   id="Capa_1"
   x="0px"
   y="0px"
   viewBox="0 0 486 486"
   style="enable-background:new 0 0 486 486;"
   xml:space="preserve"
   sodipodi:docname="light-bulb.svg"
   inkscape:version="0.92.1 r15371"><metadata
     id="metadata40"><rdf:RDF><cc:Work
         rdf:about=""><dc:format>image/svg+xml</dc:format><dc:type
           rdf:resource="http://purl.org/dc/dcmitype/StillImage" /><dc:title></dc:title></cc:Work></rdf:RDF></metadata><defs
     id="defs38" /><sodipodi:namedview
     pagecolor="#ffffff"
     bordercolor="#666666"
     borderopacity="1"
     objecttolerance="10"
     gridtolerance="10"
     guidetolerance="10"
     inkscape:pageopacity="0"
     inkscape:pageshadow="2"
     inkscape:window-width="1366"
     inkscape:window-height="705"
     id="namedview36"
     showgrid="false"
     inkscape:zoom="0.48559671"
     inkscape:cx="243"
     inkscape:cy="243"
     inkscape:window-x="-8"
     inkscape:window-y="-8"
     inkscape:window-maximized="1"
     inkscape:current-layer="Capa_1" /><path
     inkscape:connector-curvature="0"
     d="m 298.4,364.97966 v 14.2 c 0,11.3 -8.3,20.7 -19.1,22.3 l -3.5,12.9 c -1.9,7 -8.2,11.9 -15.5,11.9 h -34.7 c -7.3,0 -13.6,-4.9 -15.5,-11.9 l -3.4,-12.9 c -10.9,-1.7 -19.2,-11 -19.2,-22.4 v -14.2 c 0,-7.6 6.1,-13.7 13.7,-13.7 h 83.5 c 7.6,0.1 13.7,6.2 13.7,13.8 z m 64.3,-191.4 c 0,32.3 -12.8,61.6 -33.6,83.1 -15.8,16.4 -26,37.3 -29.4,59.6 -1.5,9.6 -9.8,16.7 -19.6,16.7 h -74.3 c -9.7,0 -18.1,-7 -19.5,-16.6 -3.5,-22.3 -13.8,-43.5 -29.6,-59.8 -20.4,-21.2 -33.1,-50 -33.4,-81.7 -0.7,-66.6 52.3,-120.499999 118.9,-120.999999 66.5,-0.5 120.5,53.299999 120.5,119.699999 z m -106.2,-72.5 c 0,-7.399999 -6,-13.499999 -13.5,-13.499999 -47.6,0 -86.4,38.699999 -86.4,86.399999 0,7.4 6,13.5 13.5,13.5 7.4,0 13.5,-6 13.5,-13.5 0,-32.8 26.7,-59.4 59.4,-59.4 7.5,0 13.5,-6 13.5,-13.5 z"
     id="XMLID_49_"
     sodipodi:nodetypes="ssccssccssscssccssccccssssssss" /><g
     id="g5" /><g
     id="g7" /><g
     id="g9" /><g
     id="g11" /><g
     id="g13" /><g
     id="g15" /><g
     id="g17" /><g
     id="g19" /><g
     id="g21" /><g
     id="g23" /><g
     id="g25" /><g
     id="g27" /><g
     id="g29" /><g
     id="g31" /><g
     id="g33" /></svg>