<?xml version="1.0" encoding="UTF-8" standalone="no"?>
<svg
   xmlns:dc="http://purl.org/dc/elements/1.1/"
   xmlns:cc="http://creativecommons.org/ns#"
   xmlns:rdf="http://www.w3.org/1999/02/22-rdf-syntax-ns#"
   xmlns:svg="http://www.w3.org/2000/svg"
   xmlns="http://www.w3.org/2000/svg"
   xmlns:sodipodi="http://sodipodi.sourceforge.net/DTD/sodipodi-0.dtd"
   xmlns:inkscape="http://www.inkscape.org/namespaces/inkscape"
   version="1.1"
   viewBox="0 0 298 298"
   enable-background="new 0 0 298 298"
   id="svg6"
   sodipodi:docname="light_diode.svg"
   inkscape:version="0.92.1 r15371">
  <metadata
     id="metadata12">
    <rdf:RDF>
      <cc:Work
         rdf:about="">
        <dc:format>image/svg+xml</dc:format>
        <dc:type
           rdf:resource="http://purl.org/dc/dcmitype/StillImage" />
        <dc:title></dc:title>
      </cc:Work>
    </rdf:RDF>
  </metadata>
  <defs
     id="defs10" />
  <sodipodi:namedview
     pagecolor="#ffffff"
     bordercolor="#666666"
     borderopacity="1"
     objecttolerance="10"
     gridtolerance="10"
     guidetolerance="10"
     inkscape:pageopacity="0"
     inkscape:pageshadow="2"
     inkscape:window-width="1366"
     inkscape:window-height="705"
     id="namedview8"
     showgrid="false"
     inkscape:zoom="0.79194631"
     inkscape:cx="-59.858956"
     inkscape:cy="99.756257"
     inkscape:window-x="-8"
     inkscape:window-y="-8"
     inkscape:window-maximized="1"
     inkscape:current-layer="svg6" />
  <g
     id="g4"
     transform="translate(0,22)">
    <path
       d="M 298,141 H 263.884 C 259.762,81.399 209.963,34.166 149.333,34.166 88.703,34.166 38.904,81.399 34.782,141 H 0 v 16 h 34.782 c 4.122,59.601 53.921,106.834 114.551,106.834 60.63,0 110.429,-47.233 114.551,-106.834 H 298 Z M 149.333,247.834 C 97.529,247.834 54.91,207.77 50.824,157 H 100 v 58.732 l 82,-51.929 V 215 h 16 v -58 h 49.842 c -4.086,50.77 -46.705,90.834 -98.509,90.834 z M 116,111.154 175.616,148.908 116,186.662 Z M 198,141 V 83 h -16 v 51.013 L 100,82.082 V 141 H 50.824 c 4.086,-50.77 46.705,-90.834 98.509,-90.834 51.804,0 94.423,40.064 98.509,90.834 z"
       id="path2"
       inkscape:connector-curvature="0" />
  </g>
  <path
     style="fill:none;fill-opacity:1;stroke:#000000;stroke-width:11.00539589;stroke-linecap:butt;stroke-linejoin:miter;stroke-miterlimit:4;stroke-dasharray:none;stroke-opacity:1"
     d="m 116.19124,94.55556 30.62671,-52.378413 31.27212,8.7782 25.26947,-34.967405 -1.17796,1.540541"
     id="path4483"
     inkscape:connector-curvature="0"
     sodipodi:nodetypes="ccccc" />
  <path
     style="fill:none;fill-opacity:1;stroke:#000000;stroke-width:11.00539589;stroke-linecap:butt;stroke-linejoin:miter;stroke-miterlimit:4;stroke-dasharray:none;stroke-opacity:1"
     d="M 211.60519,45.25823 203.35954,15.987942 173.9108,17.528483"
     id="path4485"
     inkscape:connector-curvature="0" />
  <path
     style="fill:none;fill-opacity:1;stroke:#000000;stroke-width:11.00539589;stroke-linecap:butt;stroke-linejoin:miter;stroke-miterlimit:4;stroke-dasharray:none;stroke-opacity:1"
     d="m 170.86515,105.13642 29.28739,-47.021177 30.37925,10.563944 27.50166,-42.110383 -1.17796,1.540542"
     id="path4483-0"
     inkscape:connector-curvature="0"
     sodipodi:nodetypes="ccccc" />
  <path
     style="fill:none;fill-opacity:1;stroke:#000000;stroke-width:11.00539589;stroke-linecap:butt;stroke-linejoin:miter;stroke-miterlimit:4;stroke-dasharray:none;stroke-opacity:1"
     d="M 266.27909,55.839092 258.03345,26.568804 228.5847,28.109346"
     id="path4485-8"
     inkscape:connector-curvature="0" />
</svg>
