<?xml version="1.0" encoding="UTF-8" standalone="no"?>
<!-- Generator: Adobe Illustrator 16.0.0, SVG Export Plug-In . SVG Version: 6.00 Build 0)  -->

<svg
   xmlns:dc="http://purl.org/dc/elements/1.1/"
   xmlns:cc="http://creativecommons.org/ns#"
   xmlns:rdf="http://www.w3.org/1999/02/22-rdf-syntax-ns#"
   xmlns:svg="http://www.w3.org/2000/svg"
   xmlns="http://www.w3.org/2000/svg"
   xmlns:sodipodi="http://sodipodi.sourceforge.net/DTD/sodipodi-0.dtd"
   xmlns:inkscape="http://www.inkscape.org/namespaces/inkscape"
   version="1.1"
   id="Capa_1"
   x="0px"
   y="0px"
   width="556.933px"
   height="556.934px"
   viewBox="0 0 556.933 556.934"
   style="enable-background:new 0 0 556.933 556.934;"
   xml:space="preserve"
   sodipodi:docname="list_in.svg"
   inkscape:version="0.92.1 r15371"><metadata
     id="metadata53"><rdf:RDF><cc:Work
         rdf:about=""><dc:format>image/svg+xml</dc:format><dc:type
           rdf:resource="http://purl.org/dc/dcmitype/StillImage" /><dc:title></dc:title></cc:Work></rdf:RDF></metadata><defs
     id="defs51" /><sodipodi:namedview
     pagecolor="#ffffff"
     bordercolor="#666666"
     borderopacity="1"
     objecttolerance="10"
     gridtolerance="10"
     guidetolerance="10"
     inkscape:pageopacity="0"
     inkscape:pageshadow="2"
     inkscape:window-width="1366"
     inkscape:window-height="745"
     id="namedview49"
     showgrid="false"
     inkscape:zoom="0.42374858"
     inkscape:cx="278.46649"
     inkscape:cy="278.46701"
     inkscape:window-x="-8"
     inkscape:window-y="-8"
     inkscape:window-maximized="1"
     inkscape:current-layer="Capa_1" /><g
     id="g16"
     transform="matrix(0.71821779,0,0,0.71821779,78.466586,152.62114)"><g
       id="g14"><path
         d="M 526.835,15.307 H 183.999 c -16.622,0 -30.098,13.477 -30.098,30.098 v 80.264 c 0,16.622 13.477,30.098 30.098,30.098 h 342.837 c 16.621,0 30.098,-13.477 30.098,-30.098 V 45.405 C 556.933,28.783 543.457,15.307 526.835,15.307 Z"
         id="path2"
         inkscape:connector-curvature="0" /><path
         d="M 526.835,204.194 H 183.999 c -16.622,0 -30.098,13.477 -30.098,30.098 v 80.264 c 0,16.622 13.477,30.098 30.098,30.098 h 342.837 c 16.621,0 30.098,-13.476 30.098,-30.098 v -80.264 c -10e-4,-16.621 -13.477,-30.098 -30.099,-30.098 z"
         id="path4"
         inkscape:connector-curvature="0" /><path
         d="M 526.835,401.167 H 183.999 c -16.622,0 -30.098,13.476 -30.098,30.098 v 80.264 c 0,16.622 13.477,30.099 30.098,30.099 h 342.837 c 16.621,0 30.098,-13.477 30.098,-30.099 v -80.264 c -10e-4,-16.622 -13.477,-30.098 -30.099,-30.098 z"
         id="path6"
         inkscape:connector-curvature="0" /><path
         d="M 18.483,79.114 C 28.422,75.834 37.4,71.036 45.252,64.818 v 83.146 c 0,1.689 1.371,3.06 3.06,3.06 h 23.832 c 1.689,0 3.06,-1.371 3.06,-3.06 V 23.116 c 0,-1.689 -1.371,-3.06 -3.06,-3.06 H 52.811 c -1.292,0 -2.442,0.814 -2.883,2.032 -2.503,6.983 -7.221,13.213 -14.015,18.5 -6.971,5.435 -13.476,9.168 -19.333,11.083 -1.261,0.41 -2.111,1.585 -2.111,2.907 v 21.628 c 0,0.985 0.471,1.903 1.267,2.479 0.789,0.576 1.823,0.735 2.747,0.429 z"
         id="path8"
         inkscape:connector-curvature="0" /><path
         d="M 35.925,281 C 22.241,293.699 13.3,303.669 8.581,311.472 c -4.73,7.84 -7.613,16.268 -8.562,25.037 -0.098,0.869 0.184,1.726 0.765,2.375 0.582,0.643 1.408,1.016 2.277,1.016 h 83.538 c 1.689,0 3.06,-1.371 3.06,-3.06 v -22.137 c 0,-1.688 -1.371,-3.06 -3.06,-3.06 H 45.148 c 0.41,-0.508 0.845,-1.017 1.298,-1.524 1.928,-2.179 6.665,-6.726 14.07,-13.513 7.589,-6.965 12.95,-12.424 15.942,-16.224 4.511,-5.753 7.871,-11.359 9.976,-16.665 2.142,-5.398 3.225,-11.157 3.225,-17.118 0,-10.667 -3.861,-19.719 -11.481,-26.904 -7.564,-7.136 -17.999,-10.753 -31.016,-10.753 -11.836,0 -21.873,3.091 -29.847,9.192 -8.115,6.218 -12.999,16.426 -14.499,30.343 -0.092,0.808 0.147,1.622 0.661,2.258 0.514,0.636 1.261,1.034 2.075,1.12 l 23.752,2.375 c 0.814,0.074 1.652,-0.177 2.283,-0.71 0.63,-0.532 1.022,-1.31 1.077,-2.136 0.397,-6.175 1.824,-10.545 4.21,-12.987 2.368,-2.405 5.532,-3.574 9.694,-3.574 4.229,0 7.393,1.107 9.67,3.384 2.276,2.283 3.384,5.582 3.384,10.092 0,4.174 -1.481,8.507 -4.388,12.864 -2.295,3.362 -8.788,10.039 -19.309,19.837 z"
         id="path10"
         inkscape:connector-curvature="0" /><path
         d="m 76.299,525.543 c 8.556,-8.249 12.895,-18.378 12.895,-30.104 0,-8.201 -2.387,-15.325 -7.081,-21.169 -3.298,-4.106 -7.399,-7.21 -12.252,-9.272 9.119,-6.622 13.733,-15.073 13.733,-25.195 0,-8.471 -3.219,-16.139 -9.566,-22.798 -7.638,-8.065 -17.864,-12.154 -30.386,-12.154 -7.258,0 -13.923,1.396 -19.816,4.149 -5.992,2.797 -10.753,6.714 -14.125,11.641 -3.299,4.811 -5.783,11.255 -7.393,19.149 -0.159,0.813 0.006,1.658 0.478,2.338 0.465,0.686 1.193,1.15 2.007,1.285 l 21.971,3.728 c 0.82,0.128 1.671,-0.062 2.356,-0.569 0.667,-0.509 1.107,-1.268 1.199,-2.1 0.539,-4.688 2.001,-8.237 4.352,-10.545 2.313,-2.264 5.024,-3.366 8.292,-3.366 3.311,0 5.851,0.925 7.76,2.834 1.909,1.909 2.839,4.479 2.839,7.846 0,4.033 -1.322,7.148 -4.045,9.529 -2.625,2.295 -6.561,3.457 -11.708,3.457 l -0.948,-0.012 c -0.031,0 -0.062,0 -0.086,0 -1.53,0 -2.827,1.132 -3.029,2.65 l -2.631,19.425 c -0.135,1.021 0.245,2.037 1.022,2.717 0.771,0.673 1.842,0.912 2.833,0.637 9.339,-2.619 15.086,-2.381 19.651,2.601 2.711,2.95 4.027,6.935 4.027,12.179 0,5.606 -1.396,9.872 -4.253,13.048 -2.785,3.085 -6.102,4.59 -10.153,4.59 -3.788,0 -6.928,-1.248 -9.583,-3.807 -2.687,-2.595 -4.376,-6.518 -5.019,-11.658 -0.208,-1.677 -1.781,-2.876 -3.409,-2.662 L 3.159,496.73 c -1.665,0.202 -2.858,1.714 -2.674,3.385 1.273,11.193 5.961,20.397 13.917,27.362 7.95,6.946 18.042,10.465 30,10.465 12.643,-0.005 23.372,-4.173 31.897,-12.399 z"
         id="path12"
         inkscape:connector-curvature="0" /></g></g><g
     id="g18" /><g
     id="g20" /><g
     id="g22" /><g
     id="g24" /><g
     id="g26" /><g
     id="g28" /><g
     id="g30" /><g
     id="g32" /><g
     id="g34" /><g
     id="g36" /><g
     id="g38" /><g
     id="g40" /><g
     id="g42" /><g
     id="g44" /><g
     id="g46" /><path
     inkscape:connector-curvature="0"
     id="path2-5"
     d="m 398.64499,68.50617 -49.99042,70.78448 c -3.84961,5.45045 -13.47118,5.44966 -17.3198,0 L 281.35501,68.50617 c -3.84959,-5.451251 0.96167,-12.264915 8.65893,-12.264915 h 24.986 V 12.829652 c 0,-4.5165192 4.47648,-8.17766 10.00003,-8.17766 h 29.9991 c 5.52259,0 10.00003,3.6611408 10.00003,8.176866 v 43.411604 h 24.98697 c 7.69726,0 12.50852,6.814457 8.65892,12.265708 z"
     sodipodi:nodetypes="ccccscsssscsc"
     style="stroke-width:0.87749803" /></svg>