<?xml version="1.0" encoding="UTF-8" standalone="no"?>
<!-- Generator: Adobe Illustrator 16.0.0, SVG Export Plug-In . SVG Version: 6.00 Build 0)  -->

<svg
   xmlns:dc="http://purl.org/dc/elements/1.1/"
   xmlns:cc="http://creativecommons.org/ns#"
   xmlns:rdf="http://www.w3.org/1999/02/22-rdf-syntax-ns#"
   xmlns:svg="http://www.w3.org/2000/svg"
   xmlns="http://www.w3.org/2000/svg"
   xmlns:sodipodi="http://sodipodi.sourceforge.net/DTD/sodipodi-0.dtd"
   xmlns:inkscape="http://www.inkscape.org/namespaces/inkscape"
   version="1.1"
   id="Capa_1"
   x="0px"
   y="0px"
   width="556.933px"
   height="556.934px"
   viewBox="0 0 556.933 556.934"
   style="enable-background:new 0 0 556.933 556.934;"
   xml:space="preserve"
   sodipodi:docname="list.svg"
   inkscape:version="0.92.1 r15371"><metadata
     id="metadata7658"><rdf:RDF><cc:Work
         rdf:about=""><dc:format>image/svg+xml</dc:format><dc:type
           rdf:resource="http://purl.org/dc/dcmitype/StillImage" /><dc:title></dc:title></cc:Work></rdf:RDF></metadata><defs
     id="defs7656" /><sodipodi:namedview
     pagecolor="#ffffff"
     bordercolor="#666666"
     borderopacity="1"
     objecttolerance="10"
     gridtolerance="10"
     guidetolerance="10"
     inkscape:pageopacity="0"
     inkscape:pageshadow="2"
     inkscape:window-width="1366"
     inkscape:window-height="745"
     id="namedview7654"
     showgrid="false"
     inkscape:zoom="0.59927099"
     inkscape:cx="156.81619"
     inkscape:cy="356.9651"
     inkscape:window-x="-8"
     inkscape:window-y="-8"
     inkscape:window-maximized="1"
     inkscape:current-layer="Capa_1" /><path
     d="M 526.835,15.307 H 183.999 c -16.622,0 -30.098,13.477 -30.098,30.098 v 80.264 c 0,16.622 13.477,30.098 30.098,30.098 h 342.837 c 16.621,0 30.098,-13.477 30.098,-30.098 V 45.405 C 556.933,28.783 543.457,15.307 526.835,15.307 Z"
     id="path7607"
     inkscape:connector-curvature="0" /><path
     d="M 526.835,204.194 H 183.999 c -16.622,0 -30.098,13.477 -30.098,30.098 v 80.264 c 0,16.622 13.477,30.098 30.098,30.098 h 342.837 c 16.621,0 30.098,-13.476 30.098,-30.098 v -80.264 c -10e-4,-16.621 -13.477,-30.098 -30.099,-30.098 z"
     id="path7609"
     inkscape:connector-curvature="0" /><path
     d="M 526.835,401.167 H 183.999 c -16.622,0 -30.098,13.476 -30.098,30.098 v 80.264 c 0,16.622 13.477,30.099 30.098,30.099 h 342.837 c 16.621,0 30.098,-13.477 30.098,-30.099 v -80.264 c -10e-4,-16.622 -13.477,-30.098 -30.099,-30.098 z"
     id="path7611"
     inkscape:connector-curvature="0" /><g
     id="g7623" /><g
     id="g7625" /><g
     id="g7627" /><g
     id="g7629" /><g
     id="g7631" /><g
     id="g7633" /><g
     id="g7635" /><g
     id="g7637" /><g
     id="g7639" /><g
     id="g7641" /><g
     id="g7643" /><g
     id="g7645" /><g
     id="g7647" /><g
     id="g7649" /><g
     id="g7651" /><circle
     style="opacity:1;fill:#000000;fill-opacity:1;fill-rule:evenodd;stroke:#ffffff;stroke-width:1.99059892;stroke-linecap:round;stroke-linejoin:round;stroke-miterlimit:4;stroke-dasharray:none;stroke-dashoffset:0;stroke-opacity:1;paint-order:markers fill stroke"
     id="path6863-8"
     cx="59.130577"
     cy="85.537003"
     r="44.0047" /><circle
     style="opacity:1;fill:#000000;fill-opacity:1;fill-rule:evenodd;stroke:#ffffff;stroke-width:1.99059892;stroke-linecap:round;stroke-linejoin:round;stroke-miterlimit:4;stroke-dasharray:none;stroke-dashoffset:0;stroke-opacity:1;paint-order:markers fill stroke"
     id="path6863-8-3"
     cx="59.130577"
     cy="274.42401"
     r="44.0047" /><circle
     style="opacity:1;fill:#000000;fill-opacity:1;fill-rule:evenodd;stroke:#ffffff;stroke-width:1.99059892;stroke-linecap:round;stroke-linejoin:round;stroke-miterlimit:4;stroke-dasharray:none;stroke-dashoffset:0;stroke-opacity:1;paint-order:markers fill stroke"
     id="path6863-8-3-1"
     cx="59.130577"
     cy="471.39749"
     r="44.0047" /></svg>