<?xml version="1.0" encoding="UTF-8" standalone="no"?>
<!-- Generator: Adobe Illustrator 16.0.0, SVG Export Plug-In . SVG Version: 6.00 Build 0)  -->

<svg
   xmlns:dc="http://purl.org/dc/elements/1.1/"
   xmlns:cc="http://creativecommons.org/ns#"
   xmlns:rdf="http://www.w3.org/1999/02/22-rdf-syntax-ns#"
   xmlns:svg="http://www.w3.org/2000/svg"
   xmlns="http://www.w3.org/2000/svg"
   xmlns:sodipodi="http://sodipodi.sourceforge.net/DTD/sodipodi-0.dtd"
   xmlns:inkscape="http://www.inkscape.org/namespaces/inkscape"
   version="1.1"
   id="Capa_1"
   x="0px"
   y="0px"
   width="950"
   height="400"
   viewBox="0 0 950 399.99998"
   xml:space="preserve"
   sodipodi:docname="list_out.svg"
   inkscape:version="0.92.1 r15371"><metadata
     id="metadata53"><rdf:RDF><cc:Work
         rdf:about=""><dc:format>image/svg+xml</dc:format><dc:type
           rdf:resource="http://purl.org/dc/dcmitype/StillImage" /><dc:title></dc:title></cc:Work></rdf:RDF></metadata><defs
     id="defs51" /><sodipodi:namedview
     pagecolor="#ffffff"
     bordercolor="#666666"
     borderopacity="1"
     objecttolerance="10"
     gridtolerance="10"
     guidetolerance="10"
     inkscape:pageopacity="0"
     inkscape:pageshadow="2"
     inkscape:window-width="1366"
     inkscape:window-height="745"
     id="namedview49"
     showgrid="false"
     inkscape:zoom="0.59927099"
     inkscape:cx="568.62528"
     inkscape:cy="202.44595"
     inkscape:window-x="-8"
     inkscape:window-y="-8"
     inkscape:window-maximized="1"
     inkscape:current-layer="Capa_1" /><g
     id="g18"
     transform="translate(0,-156.93402)" /><g
     id="g20"
     transform="translate(0,-156.93402)" /><g
     id="g22"
     transform="translate(0,-156.93402)" /><g
     id="g24"
     transform="translate(0,-156.93402)" /><g
     id="g26"
     transform="translate(0,-156.93402)" /><g
     id="g28"
     transform="translate(0,-156.93402)" /><g
     id="g30"
     transform="translate(0,-156.93402)" /><g
     id="g32"
     transform="translate(0,-156.93402)" /><g
     id="g34"
     transform="translate(0,-156.93402)" /><g
     id="g36"
     transform="translate(0,-156.93402)" /><g
     id="g38"
     transform="translate(0,-156.93402)" /><g
     id="g40"
     transform="translate(0,-156.93402)" /><g
     id="g42"
     transform="translate(0,-156.93402)" /><g
     id="g44"
     transform="translate(0,-156.93402)" /><g
     id="g46"
     transform="translate(0,-156.93402)" /><path
     d="M 920.6197,10.993447 H 674.38879 c -11.93822,0 -21.61692,9.679421 -21.61692,21.616919 v 57.647033 c 0,11.938221 9.67942,21.616921 21.61692,21.616921 h 246.23163 c 11.9375,0 21.61692,-9.67942 21.61692,-21.616921 V 32.610366 C 942.23662,20.67215 932.55792,10.993447 920.6197,10.993447 Z"
     id="path2"
     inkscape:connector-curvature="0"
     style="stroke-width:0.71821779" /><path
     d="M 920.6197,146.65545 H 674.38879 c -11.93822,0 -21.61692,9.67942 -21.61692,21.61692 v 57.64703 c 0,11.93822 9.67942,21.61692 21.61692,21.61692 h 246.23163 c 11.9375,0 21.61692,-9.6787 21.61692,-21.61692 v -57.64703 c -7.2e-4,-11.9375 -9.67942,-21.61692 -21.61764,-21.61692 z"
     id="path4"
     inkscape:connector-curvature="0"
     style="stroke-width:0.71821779" /><path
     d="M 920.6197,288.12496 H 674.38879 c -11.93822,0 -21.61692,9.67871 -21.61692,21.61692 v 57.64704 c 0,11.93821 9.67942,21.61763 21.61692,21.61763 h 246.23163 c 11.9375,0 21.61692,-9.67942 21.61692,-21.61763 v -57.64704 c -7.2e-4,-11.93821 -9.67942,-21.61692 -21.61764,-21.61692 z"
     id="path6"
     inkscape:connector-curvature="0"
     style="stroke-width:0.71821779" /><path
     inkscape:connector-curvature="0"
     id="path2-5"
     d="m 457.65618,141.35501 -70.78448,49.99042 c -5.45045,3.84961 -5.44966,13.47118 0,17.3198 l 70.78448,49.97976 c 5.45125,3.84959 12.26491,-0.96167 12.26491,-8.65893 v -24.986 h 43.4116 c 4.51652,0 8.17766,-4.47648 8.17766,-10.00003 v -29.9991 c 0,-5.52259 -3.66114,-10.00003 -8.17686,-10.00003 h -43.4116 v -24.98697 c 0,-7.69726 -6.81446,-12.50852 -12.26571,-8.65892 z"
     sodipodi:nodetypes="ccccscsssscsc"
     style="stroke-width:0.87749803" /><path
     d="M 334.31255,99.855157 H 121.81138 c -10.30287,0 -18.65575,8.353493 -18.65575,18.655743 v 49.7503 c 0,10.30287 8.3535,18.65574 18.65575,18.65574 h 212.50179 c 10.30225,0 18.65574,-8.35287 18.65574,-18.65574 v -49.7503 c -6.2e-4,-10.30225 -8.35349,-18.655743 -18.65636,-18.655743 z"
     id="path5705"
     inkscape:connector-curvature="0"
     style="stroke-width:0.61983329" /><circle
     style="opacity:1;fill:#000000;fill-opacity:1;fill-rule:evenodd;stroke:#ffffff;stroke-width:1.3709327;stroke-linecap:round;stroke-linejoin:round;stroke-miterlimit:4;stroke-dasharray:none;stroke-dashoffset:0;stroke-opacity:1;paint-order:markers fill stroke"
     id="path6863"
     cx="38.754333"
     cy="143.38605"
     r="30.306198" /><path
     d="M 334.31255,213.08306 H 121.81138 c -10.30287,0 -18.65575,8.35349 -18.65575,18.65574 v 49.7503 c 0,10.30287 8.3535,18.65575 18.65575,18.65575 h 212.50179 c 10.30225,0 18.65574,-8.35288 18.65574,-18.65575 v -49.7503 c -6.2e-4,-10.30225 -8.35349,-18.65574 -18.65636,-18.65574 z"
     id="path5705-6"
     inkscape:connector-curvature="0"
     style="stroke-width:0.61983329" /><circle
     style="opacity:1;fill:#000000;fill-opacity:1;fill-rule:evenodd;stroke:#ffffff;stroke-width:1.3709327;stroke-linecap:round;stroke-linejoin:round;stroke-miterlimit:4;stroke-dasharray:none;stroke-dashoffset:0;stroke-opacity:1;paint-order:markers fill stroke"
     id="path6863-7"
     cx="38.754333"
     cy="256.61395"
     r="30.306198" /><circle
     style="opacity:1;fill:#000000;fill-opacity:1;fill-rule:evenodd;stroke:#ffffff;stroke-width:1.3709327;stroke-linecap:round;stroke-linejoin:round;stroke-miterlimit:4;stroke-dasharray:none;stroke-dashoffset:0;stroke-opacity:1;paint-order:markers fill stroke"
     id="path6863-8"
     cx="582.43982"
     cy="61.433884"
     r="30.306198" /><circle
     style="opacity:1;fill:#000000;fill-opacity:1;fill-rule:evenodd;stroke:#ffffff;stroke-width:1.3709327;stroke-linecap:round;stroke-linejoin:round;stroke-miterlimit:4;stroke-dasharray:none;stroke-dashoffset:0;stroke-opacity:1;paint-order:markers fill stroke"
     id="path6863-8-4"
     cx="582.43982"
     cy="197.09589"
     r="30.306198" /><circle
     style="opacity:1;fill:#000000;fill-opacity:1;fill-rule:evenodd;stroke:#ffffff;stroke-width:1.3709327;stroke-linecap:round;stroke-linejoin:round;stroke-miterlimit:4;stroke-dasharray:none;stroke-dashoffset:0;stroke-opacity:1;paint-order:markers fill stroke"
     id="path6863-8-4-2"
     cx="582.43982"
     cy="338.56577"
     r="30.306198" /></svg>