<?xml version="1.0" encoding="iso-8859-1"?>
<!-- Generator: Adobe Illustrator 16.0.0, SVG Export Plug-In . SVG Version: 6.00 Build 0)  -->
<!DOCTYPE svg PUBLIC "-//W3C//DTD SVG 1.1//EN" "http://www.w3.org/Graphics/SVG/1.1/DTD/svg11.dtd">
<svg version="1.1" id="Capa_1" xmlns="http://www.w3.org/2000/svg" xmlns:xlink="http://www.w3.org/1999/xlink" x="0px" y="0px"
	 width="424.25px" height="424.25px" viewBox="0 0 424.25 424.25" style="enable-background:new 0 0 424.25 424.25;"
	 xml:space="preserve">
<g>
	<g>
		<path d="M9.641,192.757h170.791c5.324,0,9.64-4.316,9.64-9.641V12.328c0-5.325-4.315-9.641-9.64-9.641H9.641
			C4.316,2.687,0,7.002,0,12.328v170.79C0,188.441,4.315,192.757,9.641,192.757z M36.059,84.7c0-3.082,2.499-5.581,5.582-5.58
			h34.793V44.326c0-3.082,2.498-5.581,5.58-5.581h26.044c3.083,0,5.581,2.499,5.581,5.581V79.12h34.793
			c3.082,0,5.58,2.499,5.58,5.581v26.043c0,3.083-2.498,5.581-5.58,5.581h-34.793v34.793c0,3.082-2.498,5.581-5.581,5.581H82.014
			c-3.082,0-5.58-2.499-5.58-5.581v-34.793H41.641c-3.083,0-5.582-2.499-5.582-5.581V84.7z"/>
		<path d="M414.609,2.687H243.818c-5.324,0-9.642,4.316-9.642,9.641v170.79c0,5.324,4.316,9.641,9.642,9.641h170.791
			c5.323,0,9.641-4.316,9.641-9.641V12.328C424.25,7.002,419.934,2.687,414.609,2.687z M380.125,122.325
			c2.179,2.18,2.18,5.713,0,7.893l-18.415,18.416c-2.181,2.179-5.714,2.179-7.894,0l-24.604-24.603l-24.603,24.603
			c-2.18,2.179-5.714,2.179-7.894,0l-18.416-18.416c-2.179-2.18-2.179-5.713,0-7.893l24.604-24.603l-24.604-24.603
			c-2.179-2.18-2.179-5.713,0-7.892l18.416-18.416c2.18-2.18,5.714-2.18,7.894,0l24.603,24.603l24.604-24.603
			c2.18-2.179,5.714-2.179,7.894,0l18.415,18.417c2.18,2.179,2.18,5.713,0,7.892l-24.603,24.603L380.125,122.325z"/>
		<path d="M180.432,231.491H9.641c-5.324,0-9.641,4.315-9.641,9.641v170.789c0,5.326,4.316,9.641,9.641,9.641h170.791
			c5.324,0,9.641-4.314,9.641-9.641V241.132C190.072,235.808,185.756,231.491,180.432,231.491z M154.012,339.548
			c0.002,3.084-2.498,5.582-5.58,5.582H41.641c-3.083,0-5.582-2.5-5.582-5.582v-26.043c0-3.082,2.499-5.58,5.582-5.58h106.791
			c3.082,0,5.582,2.498,5.582,5.58L154.012,339.548z"/>
		<path d="M414.609,231.491H243.818c-5.324,0-9.641,4.316-9.641,9.641v170.791c0,5.324,4.315,9.641,9.641,9.641h170.791
			c5.323,0,9.641-4.316,9.641-9.641V241.132C424.25,235.808,419.934,231.491,414.609,231.491z M329.215,259.329
			c9.535,0,17.293,7.758,17.293,17.295s-7.758,17.295-17.293,17.295c-9.537,0-17.295-7.758-17.295-17.295
			S319.678,259.329,329.215,259.329z M329.215,393.724c-9.537,0-17.295-7.758-17.295-17.293c0-9.537,7.758-17.295,17.295-17.295
			c9.535,0,17.293,7.758,17.293,17.295C346.508,385.966,338.75,393.724,329.215,393.724z M388.191,339.55
			c0,3.082-2.499,5.58-5.582,5.58H275.818c-3.083,0-5.582-2.498-5.58-5.58v-26.045c0-3.082,2.497-5.58,5.58-5.58h106.793
			c3.081,0,5.58,2.498,5.58,5.58V339.55L388.191,339.55z"/>
	</g>
</g>
<g>
</g>
<g>
</g>
<g>
</g>
<g>
</g>
<g>
</g>
<g>
</g>
<g>
</g>
<g>
</g>
<g>
</g>
<g>
</g>
<g>
</g>
<g>
</g>
<g>
</g>
<g>
</g>
<g>
</g>
</svg>
