<?xml version="1.0" encoding="UTF-8" standalone="no"?>
<svg
   xmlns:dc="http://purl.org/dc/elements/1.1/"
   xmlns:cc="http://creativecommons.org/ns#"
   xmlns:rdf="http://www.w3.org/1999/02/22-rdf-syntax-ns#"
   xmlns:svg="http://www.w3.org/2000/svg"
   xmlns="http://www.w3.org/2000/svg"
   xmlns:sodipodi="http://sodipodi.sourceforge.net/DTD/sodipodi-0.dtd"
   xmlns:inkscape="http://www.inkscape.org/namespaces/inkscape"
   width="40"
   height="70"
   version="1.1"
   id="svg33"
   sodipodi:docname="mi_semicorchea.svg"
   inkscape:version="0.92.1 r15371">
  <metadata
     id="metadata39">
    <rdf:RDF>
      <cc:Work
         rdf:about="">
        <dc:format>image/svg+xml</dc:format>
        <dc:type
           rdf:resource="http://purl.org/dc/dcmitype/StillImage" />
        <dc:title></dc:title>
      </cc:Work>
    </rdf:RDF>
  </metadata>
  <defs
     id="defs37" />
  <sodipodi:namedview
     pagecolor="#ffffff"
     bordercolor="#666666"
     borderopacity="1"
     objecttolerance="10"
     gridtolerance="10"
     guidetolerance="10"
     inkscape:pageopacity="0"
     inkscape:pageshadow="2"
     inkscape:window-width="1366"
     inkscape:window-height="745"
     id="namedview35"
     showgrid="false"
     inkscape:zoom="3.3714286"
     inkscape:cx="20"
     inkscape:cy="35"
     inkscape:window-x="-8"
     inkscape:window-y="-8"
     inkscape:window-maximized="1"
     inkscape:current-layer="svg33" />
  <path
     font-size="10pt"
     font-weight="normal"
     font-style="normal"
     d="M -15,10.00004 H 85"
     id="path2"
     inkscape:connector-curvature="0"
     style="font-style:normal;font-weight:normal;font-size:13.33333302px;font-family:Arial;fill:none;stroke:#000000;stroke-width:2;stroke-dasharray:none" />
  <path
     font-size="10pt"
     font-weight="normal"
     font-style="normal"
     d="M -15,20.00004 H 85"
     id="path4"
     inkscape:connector-curvature="0"
     style="font-style:normal;font-weight:normal;font-size:13.33333302px;font-family:Arial;fill:none;stroke:#000000;stroke-width:2;stroke-dasharray:none" />
  <path
     font-size="10pt"
     font-weight="normal"
     font-style="normal"
     d="M -15,30.00004 H 85"
     id="path6"
     inkscape:connector-curvature="0"
     style="font-style:normal;font-weight:normal;font-size:13.33333302px;font-family:Arial;fill:none;stroke:#000000;stroke-width:2;stroke-dasharray:none" />
  <path
     font-size="10pt"
     font-weight="normal"
     font-style="normal"
     d="M -15,40.00004 H 85"
     id="path8"
     inkscape:connector-curvature="0"
     style="font-style:normal;font-weight:normal;font-size:13.33333302px;font-family:Arial;fill:none;stroke:#000000;stroke-width:2;stroke-dasharray:none" />
  <path
     font-size="10pt"
     font-weight="normal"
     font-style="normal"
     d="M -15,50.00004 H 85"
     id="path10"
     inkscape:connector-curvature="0"
     style="font-style:normal;font-weight:normal;font-size:13.33333302px;font-family:Arial;fill:none;stroke:#000000;stroke-width:2;stroke-dasharray:none" />
  <rect
     font-size="10pt"
     font-weight="normal"
     font-style="normal"
     x="-15"
     y="9.5000401"
     width="1"
     height="41"
     id="rect12"
     style="font-style:normal;font-weight:normal;font-size:13.33333302px;font-family:Arial;fill:#000000;stroke:#000000;stroke-width:0.30000001;stroke-dasharray:none" />
  <rect
     font-size="10pt"
     font-weight="normal"
     font-style="normal"
     x="85"
     y="9.5000401"
     width="1"
     height="41"
     id="rect14"
     style="font-style:normal;font-weight:normal;font-size:13.33333302px;font-family:Arial;fill:#000000;stroke:#000000;stroke-width:0.30000001;stroke-dasharray:none" />
  <g
     class="vf-stavenote"
     id="vf-auto5068"
     transform="translate(0,-19.99996)">
    <g
       class="vf-note"
       pointer-events="bounding-box"
       id="g28">
      <g
         class="vf-stem"
         pointer-events="bounding-box"
         id="g18">
        <path
           font-size="10pt"
           font-weight="normal"
           font-style="normal"
           x="85"
           y="29.5"
           width="1"
           height="41"
           d="M 13.26824,70 V 35"
           id="path16"
           inkscape:connector-curvature="0"
           style="font-style:normal;font-weight:normal;font-size:13.33333302px;font-family:Arial;fill:none;stroke:#000000;stroke-width:1.5;stroke-dasharray:none" />
      </g>
      <g
         class="vf-notehead"
         pointer-events="bounding-box"
         id="g22">
        <path
           font-size="10pt"
           font-weight="normal"
           font-style="normal"
           x="85"
           y="29.5"
           width="1"
           height="41"
           d="m 2,70 m 7.35696,-5.22288 c 0.11232,0 0.2808,0 0.30888,0 0,0 0.02808,0 0.02808,0 0,0 0.16848,0 0.30888,0 2.5272,0.1404 4.01544,1.79712 4.01544,3.87504 0,1.01088 -0.33696,2.16216 -1.17936,3.25728 -1.60056,2.16216 -4.212,3.34152 -6.48648,3.34152 -1.76904,0 -3.28536,-0.702 -4.01544,-2.13408 C 2.11232,72.55528 2,72.02176 2,71.43208 2,68.37136 5.42576,64.97368 9.35696,64.77712"
           id="path20"
           inkscape:connector-curvature="0"
           style="font-style:normal;font-weight:normal;font-size:13.33333302px;font-family:Arial;fill:#000000;stroke:none;stroke-width:0.30000001;stroke-dasharray:none" />
      </g>
      <g
         class="vf-flag"
         pointer-events="bounding-box"
         id="g26">
        <path
           font-size="10pt"
           font-weight="normal"
           font-style="normal"
           x="85"
           y="29.5"
           width="1"
           height="41"
           d="m 13.26824,33 m -0.67392,4.12776 V 33.1404 h 0.11232 c 0.22464,0 0.44928,0.16848 0.53352,0.39312 0.19656,0.67392 0.89856,1.88136 1.65672,2.92032 0.9828,1.404 2.13408,2.69568 3.87504,4.3524 2.19024,2.19024 3.39768,5.11056 3.39768,8.19936 0,1.31976 -0.25272,2.69568 -0.64584,4.01544 l -0.1404,0.30888 0.1404,0.30888 c 0.39312,1.2636 0.64584,2.58336 0.64584,3.87504 0,2.5272 -0.81432,5.08248 -2.30256,7.27272 -0.19656,0.22464 -0.30888,0.39312 -0.73008,0.92664 -0.1404,0.19656 -0.36504,0.33696 -0.5616,0.33696 -0.19656,0 -0.39312,-0.1404 -0.50544,-0.36504 -0.02808,-0.08424 -0.08424,-0.1404 -0.08424,-0.2808 0,-0.1404 0.11232,-0.33696 0.36504,-0.61776 1.60056,-1.90944 2.47104,-4.40856 2.47104,-6.76728 0,-0.1404 0,-0.19656 0,-0.2808 0,-0.67392 -0.11232,-1.51632 -0.19656,-1.88136 -0.02808,-0.08424 -0.08424,-0.22464 -0.11232,-0.39312 -0.50544,-1.93752 -1.6848,-3.73464 -3.25728,-4.82976 -0.8424,-0.61776 -2.6676,-1.09512 -4.212,-1.09512 -0.1404,0 -0.30888,0 -0.33696,0 h -0.11232 v -3.9312 -3.95928 h 0.11232 c 0.22464,0 0.44928,0.1404 0.53352,0.39312 0.19656,0.64584 0.89856,1.85328 1.65672,2.86416 0.9828,1.46016 2.19024,2.77992 3.81888,4.38048 0.75816,0.73008 1.43208,1.5444 1.8252,2.2464 0,0.05616 0.05616,0.08424 0.05616,0.08424 0.02808,0 0.02808,-0.08424 0.08424,-0.19656 0.11232,-0.67392 0.1404,-1.29168 0.1404,-1.93752 0,-0.58968 -0.02808,-1.20744 -0.1404,-1.85328 0,-0.11232 -0.05616,-0.22464 -0.05616,-0.25272 -0.02808,-0.08424 -0.08424,-0.25272 -0.11232,-0.39312 -0.50544,-1.9656 -1.6848,-3.73464 -3.25728,-4.82976 -0.8424,-0.64584 -2.6676,-1.06704 -4.212,-1.09512 -0.1404,0 -0.30888,0 -0.33696,0 h -0.11232 v -3.9312"
           id="path24"
           inkscape:connector-curvature="0"
           style="font-style:normal;font-weight:normal;font-size:13.33333302px;font-family:Arial;fill:#000000;stroke:none;stroke-width:0.30000001;stroke-dasharray:none" />
      </g>
    </g>
    <g
       class="vf-modifiers"
       id="g30" />
  </g>
</svg>
