<?xml version="1.0" encoding="iso-8859-1"?>
<!-- Generator: Adobe Illustrator 16.0.0, SVG Export Plug-In . SVG Version: 6.00 Build 0)  -->
<!DOCTYPE svg PUBLIC "-//W3C//DTD SVG 1.1//EN" "http://www.w3.org/Graphics/SVG/1.1/DTD/svg11.dtd">
<svg version="1.1" id="Capa_1" xmlns="http://www.w3.org/2000/svg" xmlns:xlink="http://www.w3.org/1999/xlink" x="0px" y="0px"
	 width="457.943px" height="457.944px" viewBox="0 0 457.943 457.944" style="enable-background:new 0 0 457.943 457.944;"
	 xml:space="preserve">
<g>
	<polygon points="121.343,157.687 88.16,166.581 121.343,166.581 	"/>
	<rect x="147.586" y="150.88" width="155.835" height="15.701"/>
	<path d="M0,158.73c0,4.338,3.507,7.851,7.851,7.851H44.07v-1.485V150.88H7.851C3.507,150.88,0,154.39,0,158.73z"/>
	<path d="M450.093,150.88H336.938v15.701h113.154c4.34,0,7.851-3.513,7.851-7.851C457.943,154.39,454.433,150.88,450.093,150.88z"/>
	<path d="M450.093,197.981H336.938v15.701h113.154c4.34,0,7.851-3.51,7.851-7.851C457.943,201.494,454.433,197.981,450.093,197.981z
		"/>
	<path d="M7.851,213.682h4.082c1.561-2.376,3.29-4.672,5.362-6.742c4.003-4.006,8.684-6.981,13.597-8.959H7.851
		c-4.344,0-7.851,3.513-7.851,7.851C0,210.172,3.507,213.682,7.851,213.682z"/>
	<path d="M70.316,213.682h13.327c1.008-5.408,3.258-10.81,6.876-15.701H70.316V213.682z"/>
	<path d="M147.586,207.22l-0.016,6.462h130.543c7.322-6.847,16.282-11.192,25.308-12.112v-3.589H147.594v9.239H147.586z"/>
	<path d="M324.135,260.782h38.56c3.382-6.288,8.243-11.686,14.122-15.701h-42.655C331.985,250.759,328.596,256.149,324.135,260.782z
		"/>
	<path d="M450.093,245.081h-23.552c5.883,4.016,10.739,9.413,14.122,15.701h9.43c4.34,0,7.851-3.511,7.851-7.851
		S454.433,245.081,450.093,245.081z"/>
	<path d="M7.851,260.782h143.208v-15.701h-33.25c-2.779,0.721-5.58,1.218-8.384,1.218c-2.763,0-5.378-0.497-7.895-1.218H61.32
		c-0.89,1.09-1.641,2.236-2.645,3.25c-7.43,7.422-17.085,11.682-26.495,11.682c-7.396,0-14.148-2.681-19.025-7.559
		c-2.108-2.115-3.649-4.66-4.887-7.373H7.851c-4.344,0-7.851,3.511-7.851,7.851S3.507,260.782,7.851,260.782z"/>
	<path d="M236.132,260.782h31.503c-2.722-4.661-3.928-10.075-3.936-15.701h-32.262c1.234,2.04,2.306,4.155,3.092,6.448
		C235.559,254.542,236.031,257.635,236.132,260.782z"/>
	<path d="M218.411,298.439c-2.549,2.773-5.791,5.61-10.503,5.61c-3.431,0-6.665-1.654-8.658-4.439
		c-1.75-2.445-2.158-5.082-2.024-7.426h-7.88c-0.008,4.392-0.016,8.556-0.032,11.99c-0.012,1.33-0.08,2.48-0.118,3.711h176.982
		c-3.435-4.633-5.979-9.947-7.397-15.701h-135.05C222.11,294.251,220.343,296.335,218.411,298.439z"/>
	<path d="M450.093,292.184h-5.519c-1.419,5.763-3.963,11.068-7.39,15.701h12.908c4.34,0,7.851-3.515,7.851-7.851
		C457.943,295.694,454.433,292.184,450.093,292.184z"/>
	<path d="M0,300.035c0,4.336,3.507,7.851,7.851,7.851h106.842c0.425-5.691,2.09-10.997,4.791-15.701H7.851
		C3.507,292.184,0,295.694,0,300.035z"/>
	<path d="M109.425,236.096c6.436,0,13.582-2.99,19.282-8.698c4.097-4.098,6.666-8.935,7.851-13.716
		c0.541-2.188,0.885-4.366,0.793-6.462h0.03v-9.239v-31.4V150.88v-8.055v-0.739v-22.091L54.96,142.085h-0.681v0.181v8.614v14.216
		v1.485v31.4v11.041c-2.945-2.342-6.66-3.488-10.629-3.488c-6.188,0-12.996,2.829-18.569,8.149c-0.18,0.172-0.384,0.293-0.563,0.471
		c-9.664,9.664-11.527,23.445-4.248,30.927c0.046,0.044,0.068,0.116,0.119,0.16c3.074,3.074,7.261,4.568,11.8,4.568
		c4.703,0,9.774-1.631,14.396-4.729c1.701-1.134,3.35-2.437,4.883-3.972c5.055-5.053,7.927-11.23,8.525-17.058h0.126v-3.32
		c0-0.06,0.008-0.134,0-0.194v-6.855v-15.701v-31.4v-3.048l47.202-12.653l24.227-6.494v6.494v15.701v28.741
		c-2.945-2.358-6.662-3.504-10.653-3.504c-5.336,0-11.109,2.178-16.187,6.163c-0.998,0.786-2.018,1.531-2.953,2.457
		c-3.956,3.957-6.538,8.614-7.785,13.244c-1.825,6.743-0.755,13.431,3.657,17.846C100.705,234.609,104.887,236.096,109.425,236.096z
		"/>
	<path d="M176.71,321.959c1.617-3.559,2.154-9.313,2.32-14.074c0.044-1.335,0.068-2.642,0.076-3.743
		c0.008-3.419,0.021-7.574,0.021-11.958c0.017-11.542,0.024-24.742,0.024-31.402c0-2.669,0-4.324,0-4.324
		c9.862,0,16.717,1.688,21.496,4.324c12.317,6.82,10.474,20.169,7.506,28.909c-0.353,1.05-0.553,1.848-0.651,2.493
		c-0.172,1.058-0.066,1.671,0.405,1.671c0.449,0,1.274-0.646,2.308-1.671c0.238-0.232,0.411-0.354,0.675-0.646
		c11.315-12.319,15.458-22.441,15.068-30.757c-0.299-6.18-3.11-11.361-7.436-15.701c-11.98-11.975-35.398-17.457-48.266-19.645
		c-0.479-0.082-0.95-0.12-1.415-0.12c-4.276,0-7.574,3.408-7.574,7.942v11.822v15.701v24.309c-2.927-1.082-6.075-1.695-9.372-1.695
		c-7.908,0-14.965,3.419-19.94,8.789c-3.909,4.216-6.428,9.666-7.049,15.701c-0.096,0.934-0.283,1.831-0.283,2.789
		c0,15.063,12.209,27.274,27.272,27.274C162.918,337.936,172.418,331.388,176.71,321.959z"/>
	<path d="M284.068,221.974c-6.836,6.834-10.327,15.392-10.311,23.107c0.016,5.41,1.695,10.428,5.357,14.09
		c0.617,0.613,1.322,1.106,2.012,1.611c3.41,2.545,7.59,3.863,12.11,3.863c4.569,0,9.401-1.411,14.03-3.863
		c3.174-1.671,6.271-3.771,9.053-6.549c2.817-2.805,4.961-5.935,6.648-9.152c2.164-4.14,3.49-8.447,3.711-12.579h0.052v-18.819
		v-15.701v-31.4V150.88v-16.479h-13.1v16.479v15.701v31.4v14.539c-2.056-0.627-4.248-0.934-6.509-0.934
		c-3.322,0-6.801,0.793-10.234,2.104C292.372,215.399,287.932,218.103,284.068,221.974z"/>
	<path d="M401.679,247.609c-10.893,0-20.474,5.214-26.701,13.173c-4.524,5.771-7.322,12.947-7.322,20.843
		c0,3.719,0.737,7.217,1.832,10.56c2.056,6.239,5.814,11.637,10.796,15.701c5.858,4.78,13.24,7.77,21.388,7.77
		c8.151,0,15.532-2.989,21.392-7.77c4.98-4.064,8.74-9.462,10.792-15.701c1.09-3.343,1.835-6.841,1.835-10.56
		c0-7.896-2.801-15.072-7.321-20.843C422.156,252.823,412.575,247.609,401.679,247.609z"/>
</g>
<g>
</g>
<g>
</g>
<g>
</g>
<g>
</g>
<g>
</g>
<g>
</g>
<g>
</g>
<g>
</g>
<g>
</g>
<g>
</g>
<g>
</g>
<g>
</g>
<g>
</g>
<g>
</g>
<g>
</g>
</svg>
