<?xml version="1.0" encoding="UTF-8" standalone="no"?>
<!-- Generator: Adobe Illustrator 16.0.0, SVG Export Plug-In . SVG Version: 6.00 Build 0)  -->

<svg
   xmlns:dc="http://purl.org/dc/elements/1.1/"
   xmlns:cc="http://creativecommons.org/ns#"
   xmlns:rdf="http://www.w3.org/1999/02/22-rdf-syntax-ns#"
   xmlns:svg="http://www.w3.org/2000/svg"
   xmlns="http://www.w3.org/2000/svg"
   xmlns:sodipodi="http://sodipodi.sourceforge.net/DTD/sodipodi-0.dtd"
   xmlns:inkscape="http://www.inkscape.org/namespaces/inkscape"
   version="1.1"
   id="Capa_1"
   x="0px"
   y="0px"
   width="612px"
   height="612px"
   viewBox="0 0 612 612"
   style="enable-background:new 0 0 612 612;"
   xml:space="preserve"
   sodipodi:docname="no-collision.svg"
   inkscape:version="0.92.1 r15371"><metadata
     id="metadata41"><rdf:RDF><cc:Work
         rdf:about=""><dc:format>image/svg+xml</dc:format><dc:type
           rdf:resource="http://purl.org/dc/dcmitype/StillImage" /><dc:title></dc:title></cc:Work></rdf:RDF></metadata><defs
     id="defs39" /><sodipodi:namedview
     pagecolor="#ffffff"
     bordercolor="#666666"
     borderopacity="1"
     objecttolerance="10"
     gridtolerance="10"
     guidetolerance="10"
     inkscape:pageopacity="0"
     inkscape:pageshadow="2"
     inkscape:window-width="1366"
     inkscape:window-height="705"
     id="namedview37"
     showgrid="false"
     inkscape:zoom="0.77124183"
     inkscape:cx="331.92017"
     inkscape:cy="272.30772"
     inkscape:window-x="-8"
     inkscape:window-y="-8"
     inkscape:window-maximized="1"
     inkscape:current-layer="g4" /><g
     id="g4"><path
       d="m 337.1,326.426 v 63.699 c 0,16 -10.899,21.7 -23.899,21.7 H 259 c -2.1,26.7 -24.6,48.4 -52.1,48.4 -27.5,0 -49.9,-21.7 -52.1,-48.4 H 0 v -243.9 h 119.4 c 14.4,0 29,8.6 37.6,23.9 l 49.9,78.8 99,22.5 c 25.4,4.301 30.5,20.301 31.2,33.301 z m -173.6,-55 -32.5,-54.2 c -5.8,-10.9 -15.2,-18.9 -29,-18.9 H 32.7 v 73 h 130.8 z m 70.2,135.9 c 0,-15.2 -12.3,-27.5 -27.5,-27.5 -15.2,0 -28.2,12.3 -28.2,27.5 0,15.2 13,28.2 28.2,28.2 15.2,0 27.5,-12.901 27.5,-28.2 z"
       id="path2"
       inkscape:connector-curvature="0"
       sodipodi:nodetypes="csscscccsccccccsccccsssss" /></g><g
     id="g6" /><g
     id="g8" /><g
     id="g10" /><g
     id="g12" /><g
     id="g14" /><g
     id="g16" /><g
     id="g18" /><g
     id="g20" /><g
     id="g22" /><g
     id="g24" /><g
     id="g26" /><g
     id="g28" /><g
     id="g30" /><g
     id="g32" /><g
     id="g34" /></svg>