<?xml version="1.0" encoding="UTF-8" standalone="no"?>
<!-- Generator: Adobe Illustrator 18.0.0, SVG Export Plug-In . SVG Version: 6.00 Build 0)  -->

<svg
   xmlns:dc="http://purl.org/dc/elements/1.1/"
   xmlns:cc="http://creativecommons.org/ns#"
   xmlns:rdf="http://www.w3.org/1999/02/22-rdf-syntax-ns#"
   xmlns:svg="http://www.w3.org/2000/svg"
   xmlns="http://www.w3.org/2000/svg"
   xmlns:sodipodi="http://sodipodi.sourceforge.net/DTD/sodipodi-0.dtd"
   xmlns:inkscape="http://www.inkscape.org/namespaces/inkscape"
   version="1.1"
   id="Capa_1"
   x="0px"
   y="0px"
   viewBox="0 0 263.285 264.285"
   xml:space="preserve"
   sodipodi:docname="percent.svg"
   inkscape:version="0.92.1 r15371"
   width="263.285"
   height="264.285"><metadata
     id="metadata45"><rdf:RDF><cc:Work
         rdf:about=""><dc:format>image/svg+xml</dc:format><dc:type
           rdf:resource="http://purl.org/dc/dcmitype/StillImage" /><dc:title></dc:title></cc:Work></rdf:RDF></metadata><defs
     id="defs43" /><sodipodi:namedview
     pagecolor="#ffffff"
     bordercolor="#666666"
     borderopacity="1"
     objecttolerance="10"
     gridtolerance="10"
     guidetolerance="10"
     inkscape:pageopacity="0"
     inkscape:pageshadow="2"
     inkscape:window-width="1366"
     inkscape:window-height="745"
     id="namedview41"
     showgrid="false"
     inkscape:zoom="0.70710678"
     inkscape:cx="-38.296222"
     inkscape:cy="72.923474"
     inkscape:window-x="-8"
     inkscape:window-y="-8"
     inkscape:window-maximized="1"
     inkscape:current-layer="Capa_1" /><g
     id="g10"
     transform="translate(0,0.99999234)" /><g
     id="g12"
     transform="translate(0,0.99999234)" /><g
     id="g14"
     transform="translate(0,0.99999234)" /><g
     id="g16"
     transform="translate(0,0.99999234)" /><g
     id="g18"
     transform="translate(0,0.99999234)" /><g
     id="g20"
     transform="translate(0,0.99999234)" /><g
     id="g22"
     transform="translate(0,0.99999234)" /><g
     id="g24"
     transform="translate(0,0.99999234)" /><g
     id="g26"
     transform="translate(0,0.99999234)" /><g
     id="g28"
     transform="translate(0,0.99999234)" /><g
     id="g30"
     transform="translate(0,0.99999234)" /><g
     id="g32"
     transform="translate(0,0.99999234)" /><g
     id="g34"
     transform="translate(0,0.99999234)" /><g
     id="g36"
     transform="translate(0,0.99999234)" /><g
     id="g38"
     transform="translate(0,0.99999234)" /><g
     id="g8"
     style="stroke:#000000;stroke-width:5;stroke-miterlimit:4;stroke-dasharray:none;stroke-opacity:1"
     transform="matrix(0.59954876,0,0,0.59954876,52.716404,53.213354)"><path
       d="M 193.882,8.561 C 186.499,4.805 177.468,7.748 173.713,15.134 L 62.153,234.556 c -3.755,7.385 -0.812,16.414 6.573,20.169 2.178,1.107 4.499,1.632 6.786,1.632 5.466,0 10.735,-2.998 13.383,-8.205 L 200.455,28.73 c 3.755,-7.385 0.812,-16.414 -6.573,-20.169 z"
       id="path2"
       inkscape:connector-curvature="0"
       style="stroke:#000000;stroke-width:5;stroke-miterlimit:4;stroke-dasharray:none;stroke-opacity:1" /><path
       d="m 113.778,80.818 c 0,-31.369 -25.521,-56.89 -56.89,-56.89 C 25.521,23.928 0,49.449 0,80.818 c 0,31.368 25.521,56.889 56.889,56.889 31.369,0 56.889,-25.521 56.889,-56.889 z M 56.889,107.707 C 42.063,107.707 30,95.644 30,80.818 c 0,-14.827 12.063,-26.89 26.889,-26.89 14.827,0 26.89,12.062 26.89,26.89 -10e-4,14.826 -12.063,26.889 -26.89,26.889 z"
       id="path4"
       inkscape:connector-curvature="0"
       style="stroke:#000000;stroke-width:5;stroke-miterlimit:4;stroke-dasharray:none;stroke-opacity:1" /><path
       d="m 206.396,125.58 c -31.369,0 -56.89,25.521 -56.89,56.889 0,31.368 25.52,56.889 56.89,56.889 31.368,0 56.889,-25.52 56.889,-56.889 0,-31.369 -25.52,-56.889 -56.889,-56.889 z m 0,83.777 c -14.827,0 -26.89,-12.063 -26.89,-26.889 0,-14.826 12.063,-26.889 26.89,-26.889 14.826,0 26.889,12.063 26.889,26.889 0,14.826 -12.062,26.889 -26.889,26.889 z"
       id="path6"
       inkscape:connector-curvature="0"
       style="stroke:#000000;stroke-width:5;stroke-miterlimit:4;stroke-dasharray:none;stroke-opacity:1" /></g></svg>