<?xml version="1.0" encoding="UTF-8" standalone="no"?>
<!-- Generator: Adobe Illustrator 18.0.0, SVG Export Plug-In . SVG Version: 6.00 Build 0)  -->

<svg
   xmlns:dc="http://purl.org/dc/elements/1.1/"
   xmlns:cc="http://creativecommons.org/ns#"
   xmlns:rdf="http://www.w3.org/1999/02/22-rdf-syntax-ns#"
   xmlns:svg="http://www.w3.org/2000/svg"
   xmlns="http://www.w3.org/2000/svg"
   xmlns:sodipodi="http://sodipodi.sourceforge.net/DTD/sodipodi-0.dtd"
   xmlns:inkscape="http://www.inkscape.org/namespaces/inkscape"
   version="1.1"
   id="Capa_1"
   x="0px"
   y="0px"
   viewBox="0 0 465.614 465.614"
   style="enable-background:new 0 0 465.614 465.614;"
   xml:space="preserve"
   sodipodi:docname="pushbutton_release.svg"
   inkscape:version="0.92.1 r15371"><metadata
     id="metadata4568"><rdf:RDF><cc:Work
         rdf:about=""><dc:format>image/svg+xml</dc:format><dc:type
           rdf:resource="http://purl.org/dc/dcmitype/StillImage" /><dc:title></dc:title></cc:Work></rdf:RDF></metadata><defs
     id="defs4566" /><sodipodi:namedview
     pagecolor="#ffffff"
     bordercolor="#666666"
     borderopacity="1"
     objecttolerance="10"
     gridtolerance="10"
     guidetolerance="10"
     inkscape:pageopacity="0"
     inkscape:pageshadow="2"
     inkscape:window-width="1366"
     inkscape:window-height="745"
     id="namedview4564"
     showgrid="false"
     inkscape:zoom="0.5068576"
     inkscape:cx="232.80701"
     inkscape:cy="232.80701"
     inkscape:window-x="-8"
     inkscape:window-y="-8"
     inkscape:window-maximized="1"
     inkscape:current-layer="Capa_1" /><path
     inkscape:connector-curvature="0"
     id="path4525"
     d="M 422.348,418.263 H 43.266 c -13.07,0 -23.676,10.597 -23.676,23.675 0,13.079 10.606,23.675 23.676,23.675 h 379.082 c 13.07,0 23.675,-10.597 23.675,-23.675 0,-13.078 -10.604,-23.675 -23.675,-23.675 z" /><path
     inkscape:connector-curvature="0"
     id="path4527"
     d="m 119.686,396.422 h 226.257 c 12.084,0 21.888,-9.803 21.888,-21.887 V 362.96 c 0,-57.261 -46.426,-103.687 -103.689,-103.687 h -62.656 c -57.261,0 -103.687,46.425 -103.687,103.687 v 11.576 c 10e-4,12.083 9.803,21.886 21.887,21.886 z" /><path
     inkscape:connector-curvature="0"
     id="path4529"
     d="m 211.752,8.7267503 c 11.653,-11.637 30.52,-11.637 42.156,0.008 L 341.041,95.87475 c 4.44,4.424 5.75,11.075 3.36,16.863 -2.39,5.78 -8.03,9.549 -14.289,9.549 h -32.476 v 90.738 c 10e-4,8.548 -6.92,15.476 -15.475,15.476 h -98.709 c -8.555,0 -15.474,-6.928 -15.474,-15.476 v -90.739 h -32.446 c -6.259,0 -11.899,-3.769 -14.289,-9.557 -2.404,-5.78 -1.078,-12.431 3.345,-16.862 z" /><g
     id="g4533" /><g
     id="g4535" /><g
     id="g4537" /><g
     id="g4539" /><g
     id="g4541" /><g
     id="g4543" /><g
     id="g4545" /><g
     id="g4547" /><g
     id="g4549" /><g
     id="g4551" /><g
     id="g4553" /><g
     id="g4555" /><g
     id="g4557" /><g
     id="g4559" /><g
     id="g4561" /></svg>