<?xml version="1.0" encoding="UTF-8" standalone="no"?>
<!-- Generator: Adobe Illustrator 18.0.0, SVG Export Plug-In . SVG Version: 6.00 Build 0)  -->

<svg
   xmlns:dc="http://purl.org/dc/elements/1.1/"
   xmlns:cc="http://creativecommons.org/ns#"
   xmlns:rdf="http://www.w3.org/1999/02/22-rdf-syntax-ns#"
   xmlns:svg="http://www.w3.org/2000/svg"
   xmlns="http://www.w3.org/2000/svg"
   xmlns:sodipodi="http://sodipodi.sourceforge.net/DTD/sodipodi-0.dtd"
   xmlns:inkscape="http://www.inkscape.org/namespaces/inkscape"
   version="1.1"
   id="Capa_1"
   x="0px"
   y="0px"
   viewBox="0 0 465.614 465.614"
   style="enable-background:new 0 0 465.614 465.614;"
   xml:space="preserve"
   sodipodi:docname="pushbutton_pressed.svg"
   inkscape:version="0.92.1 r15371"><metadata
     id="metadata45"><rdf:RDF><cc:Work
         rdf:about=""><dc:format>image/svg+xml</dc:format><dc:type
           rdf:resource="http://purl.org/dc/dcmitype/StillImage" /><dc:title></dc:title></cc:Work></rdf:RDF></metadata><defs
     id="defs43" /><sodipodi:namedview
     pagecolor="#ffffff"
     bordercolor="#666666"
     borderopacity="1"
     objecttolerance="10"
     gridtolerance="10"
     guidetolerance="10"
     inkscape:pageopacity="0"
     inkscape:pageshadow="2"
     inkscape:window-width="1366"
     inkscape:window-height="745"
     id="namedview41"
     showgrid="false"
     inkscape:zoom="0.5068576"
     inkscape:cx="262.74738"
     inkscape:cy="-32.207619"
     inkscape:window-x="-8"
     inkscape:window-y="-8"
     inkscape:window-maximized="1"
     inkscape:current-layer="Capa_1" /><path
     inkscape:connector-curvature="0"
     id="path2"
     d="M 422.348,418.263 H 43.266 c -13.07,0 -23.676,10.597 -23.676,23.675 0,13.079 10.606,23.675 23.676,23.675 h 379.082 c 13.07,0 23.675,-10.597 23.675,-23.675 0,-13.078 -10.604,-23.675 -23.675,-23.675 z" /><path
     inkscape:connector-curvature="0"
     id="path4"
     d="m 119.686,396.422 h 226.257 c 12.084,0 21.888,-9.803 21.888,-21.887 V 362.96 c 0,-57.261 -46.426,-31.687 -103.689,-31.687 h -62.656 c -57.261,0 -103.687,-25.575 -103.687,31.687 v 11.576 c 10e-4,12.083 9.803,21.886 21.887,21.886 z"
     sodipodi:nodetypes="ssssssscs" /><path
     inkscape:connector-curvature="0"
     id="path6"
     d="m 211.752,299.774 c 11.653,11.637 30.52,11.637 42.156,-0.008 l 87.133,-87.14 c 4.44,-4.424 5.75,-11.075 3.36,-16.863 -2.39,-5.78 -8.03,-9.549 -14.289,-9.549 H 297.636 V 95.476 C 297.637,86.928 290.716,80 282.161,80 h -98.709 c -8.555,0 -15.474,6.928 -15.474,15.476 v 90.739 h -32.446 c -6.259,0 -11.899,3.769 -14.289,9.557 -2.404,5.78 -1.078,12.431 3.345,16.862 z" /><g
     id="g10" /><g
     id="g12" /><g
     id="g14" /><g
     id="g16" /><g
     id="g18" /><g
     id="g20" /><g
     id="g22" /><g
     id="g24" /><g
     id="g26" /><g
     id="g28" /><g
     id="g30" /><g
     id="g32" /><g
     id="g34" /><g
     id="g36" /><g
     id="g38" /></svg>