<?xml version="1.0" encoding="iso-8859-1"?>
<!-- Generator: Adobe Illustrator 18.0.0, SVG Export Plug-In . SVG Version: 6.00 Build 0)  -->
<!DOCTYPE svg PUBLIC "-//W3C//DTD SVG 1.1//EN" "http://www.w3.org/Graphics/SVG/1.1/DTD/svg11.dtd">
<svg version="1.1" id="Capa_1" xmlns="http://www.w3.org/2000/svg" xmlns:xlink="http://www.w3.org/1999/xlink" x="0px" y="0px"
	 viewBox="0 0 465.614 465.614" style="enable-background:new 0 0 465.614 465.614;" xml:space="preserve">
<g>
	<path d="M422.348,418.263H43.266c-13.07,0-23.676,10.597-23.676,23.675c0,13.079,10.606,23.675,23.676,23.675h379.082
		c13.07,0,23.675-10.597,23.675-23.675C446.023,428.86,435.419,418.263,422.348,418.263z"/>
	<path d="M119.686,396.422h226.257c12.084,0,21.888-9.803,21.888-21.887V362.96c0-57.261-46.426-103.687-103.689-103.687h-62.656
		c-57.261,0-103.687,46.425-103.687,103.687v11.576C97.8,386.619,107.602,396.422,119.686,396.422z"/>
	<path d="M211.752,219.774c11.653,11.637,30.52,11.637,42.156-0.008l87.133-87.14c4.44-4.424,5.75-11.075,3.36-16.863
		c-2.39-5.78-8.03-9.549-14.289-9.549h-32.476V15.476C297.637,6.928,290.716,0,282.161,0h-98.709
		c-8.555,0-15.474,6.928-15.474,15.476v90.739h-32.446c-6.259,0-11.899,3.769-14.289,9.557c-2.404,5.78-1.078,12.431,3.345,16.862
		L211.752,219.774z"/>
</g>
<g>
</g>
<g>
</g>
<g>
</g>
<g>
</g>
<g>
</g>
<g>
</g>
<g>
</g>
<g>
</g>
<g>
</g>
<g>
</g>
<g>
</g>
<g>
</g>
<g>
</g>
<g>
</g>
<g>
</g>
</svg>
