<?xml version="1.0" encoding="UTF-8" standalone="no"?>
<!-- Generator: Adobe Illustrator 16.0.0, SVG Export Plug-In . SVG Version: 6.00 Build 0)  -->

<svg
   xmlns:dc="http://purl.org/dc/elements/1.1/"
   xmlns:cc="http://creativecommons.org/ns#"
   xmlns:rdf="http://www.w3.org/1999/02/22-rdf-syntax-ns#"
   xmlns:svg="http://www.w3.org/2000/svg"
   xmlns="http://www.w3.org/2000/svg"
   xmlns:sodipodi="http://sodipodi.sourceforge.net/DTD/sodipodi-0.dtd"
   xmlns:inkscape="http://www.inkscape.org/namespaces/inkscape"
   version="1.1"
   id="Capa_1"
   x="0px"
   y="0px"
   width="124"
   height="134"
   viewBox="0 0 124.00001 134.00001"
   xml:space="preserve"
   sodipodi:docname="range.svg"
   inkscape:version="0.92.1 r15371"><metadata
     id="metadata45"><rdf:RDF><cc:Work
         rdf:about=""><dc:format>image/svg+xml</dc:format><dc:type
           rdf:resource="http://purl.org/dc/dcmitype/StillImage" /><dc:title></dc:title></cc:Work></rdf:RDF></metadata><defs
     id="defs43" /><sodipodi:namedview
     pagecolor="#ffffff"
     bordercolor="#666666"
     borderopacity="1"
     objecttolerance="10"
     gridtolerance="10"
     guidetolerance="10"
     inkscape:pageopacity="0"
     inkscape:pageshadow="2"
     inkscape:window-width="1366"
     inkscape:window-height="745"
     id="namedview41"
     showgrid="false"
     inkscape:zoom="1.7613782"
     inkscape:cx="104.00905"
     inkscape:cy="65.627312"
     inkscape:window-x="-8"
     inkscape:window-y="-8"
     inkscape:window-maximized="1"
     inkscape:current-layer="Capa_1" /><g
     id="g10"
     transform="translate(0,0.01400757)" /><g
     id="g12"
     transform="translate(0,0.01400757)" /><g
     id="g14"
     transform="translate(0,0.01400757)" /><g
     id="g16"
     transform="translate(0,0.01400757)" /><g
     id="g18"
     transform="translate(0,0.01400757)" /><g
     id="g20"
     transform="translate(0,0.01400757)" /><g
     id="g22"
     transform="translate(0,0.01400757)" /><g
     id="g24"
     transform="translate(0,0.01400757)" /><g
     id="g26"
     transform="translate(0,0.01400757)" /><g
     id="g28"
     transform="translate(0,0.01400757)" /><g
     id="g30"
     transform="translate(0,0.01400757)" /><g
     id="g32"
     transform="translate(0,0.01400757)" /><g
     id="g34"
     transform="translate(0,0.01400757)" /><g
     id="g36"
     transform="translate(0,0.01400757)" /><g
     id="g38"
     transform="translate(0,0.01400757)" /><g
     id="g4555"
     transform="translate(45.348985,4.1446648)"><ellipse
       ry="10.324456"
       rx="10.324457"
       cy="42.835037"
       cx="16"
       id="path4536"
       style="opacity:1;fill:#000000;fill-opacity:1;fill-rule:evenodd;stroke:#000000;stroke-width:11.35108662;stroke-linecap:round;stroke-linejoin:round;stroke-miterlimit:4;stroke-dasharray:none;stroke-dashoffset:0;stroke-opacity:1;paint-order:markers fill stroke" /><ellipse
       ry="10.324456"
       rx="10.324457"
       cy="82.889641"
       cx="16"
       id="path4536-0"
       style="opacity:1;fill:#000000;fill-opacity:1;fill-rule:evenodd;stroke:#000000;stroke-width:11.35108662;stroke-linecap:round;stroke-linejoin:round;stroke-miterlimit:4;stroke-dasharray:none;stroke-dashoffset:0;stroke-opacity:1;paint-order:markers fill stroke" /></g><path
     d="m 24.62601,18.924083 c 3.705812,-0.04335 6.709841,-3.002858 6.709841,-6.708923 0,-3.7060662 -3.002857,-6.7098422 -6.709841,-6.7098422 H 11.208163 c -3.7060664,0 -6.7098424,3.003776 -6.7098424,6.7098422 v 109.58552 c 0,3.70332 3.002858,6.70801 6.7098424,6.70801 H 24.62601 c 3.706065,0 6.709841,-3.00286 6.709841,-6.70801 0,-3.70606 -3.002857,-6.71076 -6.709841,-6.71076 L 13.877811,114.95963 13.486914,19.054383 Z"
     id="path2"
     inkscape:connector-curvature="0"
     style="fill:#000000;fill-opacity:1;stroke:#000000;stroke-width:8.99664116;stroke-miterlimit:4;stroke-dasharray:none;stroke-opacity:1"
     sodipodi:nodetypes="ssssssssssccs" /><path
     d="m 98.071958,18.924086 c -3.705812,-0.04335 -6.709841,-3.002857 -6.709841,-6.708922 0,-3.7060677 3.002857,-6.7098437 6.709841,-6.7098437 H 111.4898 c 3.70607,0 6.70985,3.003776 6.70985,6.7098437 V 121.80068 c 0,3.70332 -3.00286,6.70801 -6.70985,6.70801 H 98.071958 c -3.706065,0 -6.709841,-3.00286 -6.709841,-6.70801 0,-3.70606 3.002857,-6.71076 6.709841,-6.71076 l 10.748202,-0.13029 0.39089,-95.905244 z"
     id="path2-5"
     inkscape:connector-curvature="0"
     style="fill:#000000;fill-opacity:1;stroke:#000000;stroke-width:8.99664116;stroke-miterlimit:4;stroke-dasharray:none;stroke-opacity:1"
     sodipodi:nodetypes="ssssssssssccs" /></svg>