<?xml version="1.0" standalone="no"?><svg xmlns="http://www.w3.org/2000/svg" width="40" height="70"><path stroke-width="2" fill="none" stroke="black" stroke-dasharray="none" font-family="Arial" font-size="10pt" font-weight="normal" font-style="normal" d="M-15 30L85 30"/><path stroke-width="2" fill="none" stroke="black" stroke-dasharray="none" font-family="Arial" font-size="10pt" font-weight="normal" font-style="normal" d="M-15 40L85 40"/><path stroke-width="2" fill="none" stroke="black" stroke-dasharray="none" font-family="Arial" font-size="10pt" font-weight="normal" font-style="normal" d="M-15 50L85 50"/><path stroke-width="2" fill="none" stroke="black" stroke-dasharray="none" font-family="Arial" font-size="10pt" font-weight="normal" font-style="normal" d="M-15 60L85 60"/><path stroke-width="2" fill="none" stroke="black" stroke-dasharray="none" font-family="Arial" font-size="10pt" font-weight="normal" font-style="normal" d="M-15 70L85 70"/><rect stroke-width="0.3" fill="black" stroke="black" stroke-dasharray="none" font-family="Arial" font-size="10pt" font-weight="normal" font-style="normal" x="-15" y="29.5" width="1" height="41"/><rect stroke-width="0.3" fill="black" stroke="black" stroke-dasharray="none" font-family="Arial" font-size="10pt" font-weight="normal" font-style="normal" x="85" y="29.5" width="1" height="41"/><g class="vf-stavenote" id="vf-auto2092"><g class="vf-note" pointer-events="bounding-box"><g class="vf-stem" pointer-events="bounding-box"><path stroke-width="1.5" fill="none" stroke="black" stroke-dasharray="none" font-family="Arial" font-size="10pt" font-weight="normal" font-style="normal" x="85" y="29.5" width="1" height="41" d="M13.26824 75L13.26824 40"/></g><g class="vf-notehead" pointer-events="bounding-box"><path stroke-width="0.3" fill="black" stroke="none" stroke-dasharray="none" font-family="Arial" font-size="10pt" font-weight="normal" font-style="normal" x="85" y="29.5" width="1" height="41" d="M2 75M9.35696 69.77712C9.469280000000001 69.77712,9.63776 69.77712,9.66584 69.77712C9.66584 69.77712,9.69392 69.77712,9.69392 69.77712C9.69392 69.77712,9.862400000000001 69.77712,10.0028 69.77712C12.530000000000001 69.91752,14.01824 71.57424,14.01824 73.65216C14.01824 74.66304,13.681280000000001 75.81432,12.83888 76.90944C11.23832 79.0716,8.62688 80.25096,6.3524 80.25096C4.58336 80.25096,3.06704 79.54896,2.33696 78.11688C2.11232 77.55528,2 77.02176,2 76.43208C2 73.37136,5.42576 69.97368,9.35696 69.77712M12.277280000000001 71.32152C12.16496 71.26536,12.024560000000001 71.23728,11.88416 71.23728C11.01368 71.23728,9.553519999999999 71.7708,8.149519999999999 72.72552C5.53808 74.35416,3.404 76.74096,3.31976 78.11688C3.31976 78.11688,3.31976 78.14496,3.31976 78.14496C3.31976 78.62232,3.62864 78.81888000000001,4.16216 78.81888000000001C5.31344 78.81888000000001,7.44752 77.83608,9.41312 76.2636C11.43488 74.66304,12.726560000000001 72.86592,12.726560000000001 71.93928C12.726560000000001 71.6304,12.58616 71.37768,12.277280000000001 71.32152"/></g></g><g class="vf-modifiers"/></g></svg>