<?xml version="1.0" encoding="UTF-8" standalone="no"?>
<!-- Generator: Adobe Illustrator 16.0.0, SVG Export Plug-In . SVG Version: 6.00 Build 0)  -->

<svg
   xmlns:dc="http://purl.org/dc/elements/1.1/"
   xmlns:cc="http://creativecommons.org/ns#"
   xmlns:rdf="http://www.w3.org/1999/02/22-rdf-syntax-ns#"
   xmlns:svg="http://www.w3.org/2000/svg"
   xmlns="http://www.w3.org/2000/svg"
   xmlns:sodipodi="http://sodipodi.sourceforge.net/DTD/sodipodi-0.dtd"
   xmlns:inkscape="http://www.inkscape.org/namespaces/inkscape"
   version="1.1"
   id="Capa_1"
   x="0px"
   y="0px"
   width="1200"
   height="861.32098"
   viewBox="0 0 1200 861.321"
   xml:space="preserve"
   sodipodi:docname="scissors_text.svg"
   inkscape:version="0.92.1 r15371"><metadata
     id="metadata49"><rdf:RDF><cc:Work
         rdf:about=""><dc:format>image/svg+xml</dc:format><dc:type
           rdf:resource="http://purl.org/dc/dcmitype/StillImage" /><dc:title></dc:title></cc:Work></rdf:RDF></metadata><defs
     id="defs47" /><sodipodi:namedview
     pagecolor="#ffffff"
     bordercolor="#666666"
     borderopacity="1"
     objecttolerance="10"
     gridtolerance="10"
     guidetolerance="10"
     inkscape:pageopacity="0"
     inkscape:pageshadow="2"
     inkscape:window-width="1366"
     inkscape:window-height="745"
     id="namedview45"
     showgrid="false"
     inkscape:zoom="0.27399774"
     inkscape:cx="430.66049"
     inkscape:cy="430.66049"
     inkscape:window-x="-8"
     inkscape:window-y="-8"
     inkscape:window-maximized="1"
     inkscape:current-layer="Capa_1" /><g
     id="g12"
     transform="translate(0,-7.7734376e-6)"><g
       id="g10"><path
         d="m 662.979,164.127 c 37.5,-91.9 -20.299,-144.6 -44.199,-161.7 -4.899,-3.5 -11.899,-1.8 -14.7,3.5 l -150.899,290.6 70.399,135.6 z"
         id="path2"
         inkscape:connector-curvature="0" /><g
         id="g8"><path
           d="m 100.579,839.526 c 91.6,47.7 204.5,12.2 252.2,-79.3 l 0.3,0.2 55,-105.9 -70.399,-135.6 -14.101,27.1 c -14.399,-15.399 -31.6,-28.6 -51.399,-38.699 -91.8,-47 -203.3,-11.4 -251,80 -47.701,91.6 -12.101,204.5 79.399,252.199 z m 85.6,-265.399 c 54.1,0 98,43.899 98,98 0,54.1 -43.9,98 -98,98 -54.1,0 -98,-43.9 -98,-98 0,-54.101 43.8,-98 98,-98 z"
           id="path4"
           inkscape:connector-curvature="0" /><path
           d="m 840.078,587.327 c -33.398,-64.101 -98.199,-100.7 -165.6,-100.7 -28.699,0 -57.899,6.7 -85.399,20.7 -19.8,10.199 -37.1,23.399 -51.399,38.699 0,0 -280,-539.2 -280.5,-540.1 -2.601,-5.1 -9.7,-7.1 -14.7,-3.5 -24,17.1 -81.8,69.8 -44.2,161.7 l 309.901,596.2 0.3,-0.2 c 33.3,63.899 98.5,100.6 165.899,100.6 29.1,0 58.699,-6.8 86.301,-21.2 91.598,-47.699 127.198,-160.599 79.397,-252.199 z m -164.898,182.8 c -54.101,0 -98,-43.9 -98,-98 0,-54.101 43.899,-98 98,-98 54.1,0 98,43.899 98,98 0,54.1 -43.901,98 -98,98 z"
           id="path6"
           inkscape:connector-curvature="0" /></g></g></g><g
     id="g14"
     transform="translate(0,-7.7734376e-6)" /><g
     id="g16"
     transform="translate(0,-7.7734376e-6)" /><g
     id="g18"
     transform="translate(0,-7.7734376e-6)" /><g
     id="g20"
     transform="translate(0,-7.7734376e-6)" /><g
     id="g22"
     transform="translate(0,-7.7734376e-6)" /><g
     id="g24"
     transform="translate(0,-7.7734376e-6)" /><g
     id="g26"
     transform="translate(0,-7.7734376e-6)" /><g
     id="g28"
     transform="translate(0,-7.7734376e-6)" /><g
     id="g30"
     transform="translate(0,-7.7734376e-6)" /><g
     id="g32"
     transform="translate(0,-7.7734376e-6)" /><g
     id="g34"
     transform="translate(0,-7.7734376e-6)" /><g
     id="g36"
     transform="translate(0,-7.7734376e-6)" /><g
     id="g38"
     transform="translate(0,-7.7734376e-6)" /><g
     id="g40"
     transform="translate(0,-7.7734376e-6)" /><g
     id="g42"
     transform="translate(0,-7.7734376e-6)" /><g
     id="g4585"
     transform="matrix(0.90183456,0,0,0.9572971,-134.19374,-66.048994)"><g
       transform="translate(901.93695,-8.244928)"
       id="g6"><g
         id="g4"><path
           inkscape:connector-curvature="0"
           id="path2-2"
           d="m 217.667,83.129 c -1.632,-4.488 -4.692,-6.732 -9.18,-6.732 H 129.54 c -4.488,0 -7.548,2.244 -9.18,6.732 L 0.408,477.257 c -0.816,3.672 -0.408,6.321 1.224,7.953 1.632,2.448 4.284,3.675 7.956,3.675 H 80.58 c 4.896,0 7.956,-2.244 9.18,-6.732 l 20.196,-70.992 h 118.117 l 20.196,70.992 c 1.224,4.488 4.08,6.732 8.568,6.732 h 71.604 0.609 c 2.448,0 4.593,-0.817 6.429,-2.448 1.836,-1.631 2.754,-3.876 2.754,-6.732 0,-0.814 -0.409,-2.446 -1.227,-4.896 z m -89.351,251.532 40.392,-144.432 41.004,144.432 z M 545.087,220.829 c -19.176,-17.544 -46.103,-26.316 -80.781,-26.316 -21.624,0 -41.616,3.57 -59.977,10.709 -18.361,7.14 -34.476,17.646 -48.348,31.518 -3.267,3.264 -3.876,6.936 -1.836,11.016 l 22.644,39.167 c 1.225,2.447 3.467,4.08 6.732,4.896 2.854,0.817 5.508,0 7.956,-2.448 18.768,-19.176 39.575,-28.764 62.424,-28.764 29.375,0 44.062,14.077 44.062,42.228 v 17.748 c -17.135,-13.464 -38.351,-20.193 -63.646,-20.193 -11.424,0 -22.746,1.937 -33.966,5.812 -11.222,3.876 -21.219,9.792 -29.988,17.748 -8.773,7.956 -15.912,18.157 -21.42,30.603 -5.508,12.442 -8.262,27.027 -8.262,43.758 0,16.317 2.649,30.6 7.953,42.84 5.307,12.24 12.444,22.542 21.423,30.906 8.975,8.362 18.971,14.688 29.985,18.972 11.018,4.284 22.44,6.426 34.272,6.426 11.832,0 23.255,-1.836 34.271,-5.508 11.019,-3.672 20.811,-8.975 29.376,-15.912 v 5.508 c 0,2.448 0.918,4.593 2.754,6.429 1.839,1.836 3.979,2.754 6.429,2.754 h 57.525 c 2.448,0 4.592,-0.918 6.429,-2.754 1.836,-1.836 2.754,-3.979 2.754,-6.429 v -186.05 c 10e-4,-32.232 -9.587,-57.12 -28.765,-74.664 z m -47.123,198.287 c -8.976,13.872 -23.256,20.811 -42.84,20.811 -11.832,0 -21.215,-3.774 -28.149,-11.322 -6.938,-7.548 -10.404,-17.443 -10.404,-29.685 0,-12.237 3.467,-22.233 10.404,-29.985 6.935,-7.752 16.317,-11.628 28.149,-11.628 5.712,0 12.854,1.325 21.42,3.978 8.568,2.653 15.708,8.67 21.42,18.054 z"
           style="fill:#010002" /></g></g></g></svg>