<?xml version="1.0" encoding="UTF-8" standalone="no"?>
<!-- Svg Vector Icons : http://www.onlinewebfonts.com/icon -->

<svg
   xmlns:dc="http://purl.org/dc/elements/1.1/"
   xmlns:cc="http://creativecommons.org/ns#"
   xmlns:rdf="http://www.w3.org/1999/02/22-rdf-syntax-ns#"
   xmlns:svg="http://www.w3.org/2000/svg"
   xmlns="http://www.w3.org/2000/svg"
   xmlns:sodipodi="http://sodipodi.sourceforge.net/DTD/sodipodi-0.dtd"
   xmlns:inkscape="http://www.inkscape.org/namespaces/inkscape"
   version="1.1"
   x="0px"
   y="0px"
   viewBox="0 0 1000 1000"
   enable-background="new 0 0 1000 1000"
   xml:space="preserve"
   id="svg12"
   sodipodi:docname="servo.svg"
   inkscape:version="0.92.1 r15371"><defs
     id="defs16" /><sodipodi:namedview
     pagecolor="#ffffff"
     bordercolor="#666666"
     borderopacity="1"
     objecttolerance="10"
     gridtolerance="10"
     guidetolerance="10"
     inkscape:pageopacity="0"
     inkscape:pageshadow="2"
     inkscape:window-width="1366"
     inkscape:window-height="745"
     id="namedview14"
     showgrid="false"
     inkscape:zoom="0.236"
     inkscape:cx="500"
     inkscape:cy="500"
     inkscape:window-x="-8"
     inkscape:window-y="-8"
     inkscape:window-maximized="1"
     inkscape:current-layer="svg12" /><metadata
     id="metadata2"> Svg Vector Icons : http://www.onlinewebfonts.com/icon <rdf:RDF><cc:Work
     rdf:about=""><dc:format>image/svg+xml</dc:format><dc:type
       rdf:resource="http://purl.org/dc/dcmitype/StillImage" /><dc:title></dc:title></cc:Work></rdf:RDF></metadata><g
     id="g10"
     style="stroke:#000000;stroke-opacity:1;stroke-width:14;stroke-miterlimit:4;stroke-dasharray:none"><g
       transform="matrix(0.1,0,0,-0.1,0,511)"
       id="g8"
       style="stroke:#000000;stroke-opacity:1;stroke-width:140;stroke-miterlimit:4;stroke-dasharray:none"><path
         d="m 2775.5,4149.4 c -137.2,-84.7 -254.2,-266.3 -254.2,-403.5 0,-157.4 117,-359.2 250.2,-443.9 125.1,-76.7 201.8,-80.7 1537.5,-80.7 h 1400.3 v -282.5 -282.5 h -334.9 c -443.9,0 -472.1,-28.3 -472.1,-476.2 V 1849.2 H 2565.6 C 491.4,1849.2 221,1841.1 164.5,1784.6 116.1,1736.2 99.9,1635.3 99.9,1352.8 99.9,1147 120.1,953.3 140.3,921 168.6,876.6 277.5,856.4 531.7,840.3 L 886.8,820.1 899,-1536.5 c 4,-1658.5 20.2,-2372.8 52.5,-2413.2 68.6,-80.7 7994.1,-80.7 8062.7,0 32.3,40.4 48.4,754.6 52.5,2413.2 l 12.1,2356.7 355.1,20.2 c 254.2,16.1 363.2,36.3 391.4,80.7 20.2,32.3 40.4,226 40.4,431.8 0,282.5 -16.2,383.4 -64.6,431.8 -52.5,56.5 -217.9,64.6 -1170.3,64.6 H 7525.1 v 334.9 c 0,443.9 -28.3,472.2 -476.2,472.2 H 6718 v 282.5 282.5 h 1404.3 c 1319.6,0 1408.4,4 1529.4,80.7 330.9,201.8 330.9,645.7 0,847.4 -125.1,76.7 -226,80.7 -3438.2,80.7 -3212.1,0 -3312.9,-4.1 -3438,-80.8 z M 9514.6,3984 c 48.4,-28.2 100.9,-68.6 117.1,-92.8 52.4,-80.7 32.3,-278.4 -36.3,-355.1 -60.5,-68.6 -217.9,-72.6 -3373.6,-72.6 -3022.5,0 -3317.1,4 -3385.7,68.6 -113,100.9 -96.8,310.7 32.3,411.6 108.9,84.7 133.2,84.7 3333.3,84.7 2352.5,0 3248.3,-12.1 3312.9,-44.4 z m -3006.4,-1053.3 12.1,-274.4 h -286.5 -282.5 v 282.5 286.5 l 274.4,-12.1 270.4,-12.1 z m 774.8,-799 V 1849.2 H 6213.6 5144.3 v 282.5 282.5 H 6213.7 7283 Z M 9623.6,1356.9 V 1082.5 H 9325 c -516.5,0 -468.1,250.2 -480.2,-2502 l -8.1,-2360.7 H 4982.8 1129 l -8.1,2360.7 c -12.1,2752.2 36.3,2502 -480.2,2502 H 342.1 v 282.5 278.4 l 4640.7,-8.1 4640.7,-8.1 v -270.3 z"
         id="path4"
         inkscape:connector-curvature="0"
         style="stroke:#000000;stroke-opacity:1;stroke-width:140;stroke-miterlimit:4;stroke-dasharray:none" /><path
         d="m 1794.9,194.7 c -76.7,-76.7 -80.7,-133.2 -80.7,-1634.3 0,-1501.2 4,-1557.7 80.7,-1634.3 80.7,-80.7 133.2,-80.7 3228.3,-80.7 3095.1,0 3147.6,0 3228.3,80.7 76.7,76.7 80.7,133.2 80.7,1634.3 0,1501.2 -4,1557.7 -80.7,1634.3 -80.7,80.7 -133.2,80.7 -3228.3,80.7 -3095.1,0 -3147.6,0.1 -3228.3,-80.7 z M 8090.1,-1439.6 V -2912.5 H 5023.2 1956.3 V -1439.6 33.3 h 3066.9 3066.9 z"
         id="path6"
         inkscape:connector-curvature="0"
         style="stroke:#000000;stroke-opacity:1;stroke-width:140;stroke-miterlimit:4;stroke-dasharray:none" /></g></g></svg>