<?xml version="1.0" encoding="iso-8859-1"?>
<!-- Generator: Adobe Illustrator 19.0.0, SVG Export Plug-In . SVG Version: 6.00 Build 0)  -->
<svg version="1.1" id="Capa_1" xmlns="http://www.w3.org/2000/svg" xmlns:xlink="http://www.w3.org/1999/xlink" x="0px" y="0px"
	 viewBox="0 0 512 512" style="enable-background:new 0 0 512 512;" xml:space="preserve">
<g>
	<g>
		<path d="M256,0C114.516,0,0,114.497,0,256c0,141.484,114.497,256,256,256c141.484,0,256-114.497,256-256
			C512,114.516,397.503,0,256,0z M256,482C131.097,482,30,380.921,30,256C30,131.097,131.079,30,256,30
			c124.903,0,226,101.079,226,226C482,380.903,380.921,482,256,482z"/>
	</g>
</g>
<g>
	<g>
		<path d="M256,50C142.552,50,50,142.221,50,256c0,113.731,92.518,206,206,206c113.478,0,206-92.264,206-206
			C462,142.726,369.965,50,256,50z M422.883,200.063l-62.744,36.226c-4.295-22.504-16.219-44.356-35.031-60.602l62.692-36.198
			C403.781,157.565,415.579,178.341,422.883,200.063z M321,92.466c15.799,6.308,30.652,14.911,44.053,25.515L321,143.415V92.466z
			 M221,83.499c22.107-4.477,46.351-4.789,70,0v72.428c-22.425-7.895-47.537-7.908-70-0.002V83.499z M191,92.466v50.949
			l-44.053-25.434C160.348,107.377,175.201,98.774,191,92.466z M124.2,139.49l62.695,36.199
			c-18.094,15.623-30.58,37.195-35.04,60.597l-62.738-36.222C96.518,178.081,108.396,157.358,124.2,139.49z M80,256
			c0-8.559,0.639-17.075,1.864-25.483L125.999,256l-44.136,25.483C80.639,273.075,80,264.559,80,256z M89.117,311.937l62.744-36.226
			c4.495,23.549,17.019,45.05,35.031,60.602L124.2,372.511C108.305,354.536,96.475,333.801,89.117,311.937z M191,419.534
			c-15.799-6.308-30.653-14.911-44.054-25.515L191,368.585V419.534z M291,428.5c-22.468,4.551-46.716,4.716-70,0.001v-72.428
			c23.187,8.164,48.329,7.631,70,0.001V428.5z M256,332c-42.542,0-76-34.839-76-76c0-41.114,33.408-76,76-76
			c42.593,0,76,34.903,76,76C332,297.235,298.471,332,256,332z M321,419.534v-50.949l44.054,25.434
			C351.653,404.623,336.799,413.226,321,419.534z M387.801,372.51l-62.695-36.199c18.082-15.616,30.582-37.195,35.04-60.597
			l62.738,36.222C415.55,333.717,403.832,354.374,387.801,372.51z M386.001,256l44.136-25.483C431.361,238.925,432,247.441,432,256
			c0,8.558-0.639,17.074-1.864,25.483L386.001,256z"/>
	</g>
</g>
<g>
	<g>
		<circle cx="256" cy="256" r="20"/>
	</g>
</g>
<g>
</g>
<g>
</g>
<g>
</g>
<g>
</g>
<g>
</g>
<g>
</g>
<g>
</g>
<g>
</g>
<g>
</g>
<g>
</g>
<g>
</g>
<g>
</g>
<g>
</g>
<g>
</g>
<g>
</g>
</svg>
