<?xml version="1.0" encoding="UTF-8" standalone="no"?>
<svg
   xmlns:dc="http://purl.org/dc/elements/1.1/"
   xmlns:cc="http://creativecommons.org/ns#"
   xmlns:rdf="http://www.w3.org/1999/02/22-rdf-syntax-ns#"
   xmlns:svg="http://www.w3.org/2000/svg"
   xmlns="http://www.w3.org/2000/svg"
   xmlns:sodipodi="http://sodipodi.sourceforge.net/DTD/sodipodi-0.dtd"
   xmlns:inkscape="http://www.inkscape.org/namespaces/inkscape"
   width="40"
   height="70"
   version="1.1"
   id="svg33"
   sodipodi:docname="si_corchea.svg"
   inkscape:version="0.92.1 r15371">
  <metadata
     id="metadata39">
    <rdf:RDF>
      <cc:Work
         rdf:about="">
        <dc:format>image/svg+xml</dc:format>
        <dc:type
           rdf:resource="http://purl.org/dc/dcmitype/StillImage" />
        <dc:title></dc:title>
      </cc:Work>
    </rdf:RDF>
  </metadata>
  <defs
     id="defs37" />
  <sodipodi:namedview
     pagecolor="#ffffff"
     bordercolor="#666666"
     borderopacity="1"
     objecttolerance="10"
     gridtolerance="10"
     guidetolerance="10"
     inkscape:pageopacity="0"
     inkscape:pageshadow="2"
     inkscape:window-width="1366"
     inkscape:window-height="745"
     id="namedview35"
     showgrid="false"
     inkscape:zoom="3.3714286"
     inkscape:cx="20"
     inkscape:cy="35"
     inkscape:window-x="-8"
     inkscape:window-y="-8"
     inkscape:window-maximized="1"
     inkscape:current-layer="svg33" />
  <path
     font-size="10pt"
     font-weight="normal"
     font-style="normal"
     d="M -15,10 H 85"
     id="path2"
     inkscape:connector-curvature="0"
     style="font-style:normal;font-weight:normal;font-size:13.33333302px;font-family:Arial;fill:none;stroke:#000000;stroke-width:2;stroke-dasharray:none" />
  <path
     font-size="10pt"
     font-weight="normal"
     font-style="normal"
     d="M -15,20 H 85"
     id="path4"
     inkscape:connector-curvature="0"
     style="font-style:normal;font-weight:normal;font-size:13.33333302px;font-family:Arial;fill:none;stroke:#000000;stroke-width:2;stroke-dasharray:none" />
  <path
     font-size="10pt"
     font-weight="normal"
     font-style="normal"
     d="M -15,30 H 85"
     id="path6"
     inkscape:connector-curvature="0"
     style="font-style:normal;font-weight:normal;font-size:13.33333302px;font-family:Arial;fill:none;stroke:#000000;stroke-width:2;stroke-dasharray:none" />
  <path
     font-size="10pt"
     font-weight="normal"
     font-style="normal"
     d="M -15,40 H 85"
     id="path8"
     inkscape:connector-curvature="0"
     style="font-style:normal;font-weight:normal;font-size:13.33333302px;font-family:Arial;fill:none;stroke:#000000;stroke-width:2;stroke-dasharray:none" />
  <path
     font-size="10pt"
     font-weight="normal"
     font-style="normal"
     d="M -15,50 H 85"
     id="path10"
     inkscape:connector-curvature="0"
     style="font-style:normal;font-weight:normal;font-size:13.33333302px;font-family:Arial;fill:none;stroke:#000000;stroke-width:2;stroke-dasharray:none" />
  <rect
     font-size="10pt"
     font-weight="normal"
     font-style="normal"
     x="-15"
     y="9.5"
     width="1"
     height="41"
     id="rect12"
     style="font-style:normal;font-weight:normal;font-size:13.33333302px;font-family:Arial;fill:#000000;stroke:#000000;stroke-width:0.30000001;stroke-dasharray:none" />
  <rect
     font-size="10pt"
     font-weight="normal"
     font-style="normal"
     x="85"
     y="9.5"
     width="1"
     height="41"
     id="rect14"
     style="font-style:normal;font-weight:normal;font-size:13.33333302px;font-family:Arial;fill:#000000;stroke:#000000;stroke-width:0.30000001;stroke-dasharray:none" />
  <g
     class="vf-stavenote"
     id="vf-auto4615"
     transform="translate(0,-20)">
    <g
       class="vf-note"
       pointer-events="bounding-box"
       id="g28">
      <g
         class="vf-stem"
         pointer-events="bounding-box"
         id="g18">
        <path
           font-size="10pt"
           font-weight="normal"
           font-style="normal"
           x="85"
           y="29.5"
           width="1"
           height="41"
           d="M 2.75,50 V 85"
           id="path16"
           inkscape:connector-curvature="0"
           style="font-style:normal;font-weight:normal;font-size:13.33333302px;font-family:Arial;fill:none;stroke:#000000;stroke-width:1.5;stroke-dasharray:none" />
      </g>
      <g
         class="vf-notehead"
         pointer-events="bounding-box"
         id="g22">
        <path
           font-size="10pt"
           font-weight="normal"
           font-style="normal"
           x="85"
           y="29.5"
           width="1"
           height="41"
           d="m 2,50 m 7.35696,-5.22288 c 0.11232,0 0.2808,0 0.30888,0 0,0 0.02808,0 0.02808,0 0,0 0.16848,0 0.30888,0 2.5272,0.1404 4.01544,1.79712 4.01544,3.87504 0,1.01088 -0.33696,2.16216 -1.17936,3.25728 -1.60056,2.16216 -4.212,3.34152 -6.48648,3.34152 -1.76904,0 -3.28536,-0.702 -4.01544,-2.13408 C 2.11232,52.55528 2,52.02176 2,51.43208 2,48.37136 5.42576,44.97368 9.35696,44.77712"
           id="path20"
           inkscape:connector-curvature="0"
           style="font-style:normal;font-weight:normal;font-size:13.33333302px;font-family:Arial;fill:#000000;stroke:none;stroke-width:0.30000001;stroke-dasharray:none" />
      </g>
      <g
         class="vf-flag"
         pointer-events="bounding-box"
         id="g26">
        <path
           font-size="10pt"
           font-weight="normal"
           font-style="normal"
           x="85"
           y="29.5"
           width="1"
           height="41"
           d="M 2.75,87 M 9.2084,58.04952 c 0.05616,-0.02808 0.1404,-0.02808 0.22464,-0.02808 0.19656,0 0.36504,0.1404 0.58968,0.50544 1.99368,3.03264 3.03264,6.51456 3.03264,9.88416 0,0.58968 0,1.15128 -0.08424,1.6848 -0.33696,3.20112 -1.6848,6.12144 -3.70656,8.0028 -2.16216,2.02176 -3.62232,3.6504 -4.914,5.53176 -0.73008,1.01088 -1.43208,2.2464 -1.62864,2.86416 -0.08424,0.19656 -0.30888,0.39312 -0.50544,0.39312 H 2.16032 v -4.3524 -4.38048 h 0.1404 c 0.73008,0 2.19024,-0.25272 3.14496,-0.5616 3.67848,-1.2636 6.14952,-5.39136 6.14952,-10.1088 0,-0.39312 -0.02808,-0.81432 -0.05616,-1.20744 -0.25272,-2.44296 -1.1232,-4.99824 -2.49912,-7.10424 -0.1404,-0.22464 -0.22464,-0.44928 -0.22464,-0.61776 0,-0.22464 0.11232,-0.4212 0.39312,-0.50544"
           id="path24"
           inkscape:connector-curvature="0"
           style="font-style:normal;font-weight:normal;font-size:13.33333302px;font-family:Arial;fill:#000000;stroke:none;stroke-width:0.30000001;stroke-dasharray:none" />
      </g>
    </g>
    <g
       class="vf-modifiers"
       id="g30" />
  </g>
</svg>
