<?xml version="1.0" encoding="UTF-8" standalone="no"?>
<svg
   xmlns:dc="http://purl.org/dc/elements/1.1/"
   xmlns:cc="http://creativecommons.org/ns#"
   xmlns:rdf="http://www.w3.org/1999/02/22-rdf-syntax-ns#"
   xmlns:svg="http://www.w3.org/2000/svg"
   xmlns="http://www.w3.org/2000/svg"
   xmlns:sodipodi="http://sodipodi.sourceforge.net/DTD/sodipodi-0.dtd"
   xmlns:inkscape="http://www.inkscape.org/namespaces/inkscape"
   width="40"
   height="70"
   version="1.1"
   id="svg25"
   sodipodi:docname="silencio_semicorchea.svg"
   inkscape:version="0.92.1 r15371">
  <metadata
     id="metadata31">
    <rdf:RDF>
      <cc:Work
         rdf:about="">
        <dc:format>image/svg+xml</dc:format>
        <dc:type
           rdf:resource="http://purl.org/dc/dcmitype/StillImage" />
        <dc:title></dc:title>
      </cc:Work>
    </rdf:RDF>
  </metadata>
  <defs
     id="defs29" />
  <sodipodi:namedview
     pagecolor="#ffffff"
     bordercolor="#666666"
     borderopacity="1"
     objecttolerance="10"
     gridtolerance="10"
     guidetolerance="10"
     inkscape:pageopacity="0"
     inkscape:pageshadow="2"
     inkscape:window-width="1366"
     inkscape:window-height="745"
     id="namedview27"
     showgrid="false"
     inkscape:zoom="3.3714286"
     inkscape:cx="20"
     inkscape:cy="35"
     inkscape:window-x="-8"
     inkscape:window-y="-8"
     inkscape:window-maximized="1"
     inkscape:current-layer="svg25" />
  <path
     font-size="10pt"
     font-weight="normal"
     font-style="normal"
     d="M -15,10 H 85"
     id="path2"
     inkscape:connector-curvature="0"
     style="font-style:normal;font-weight:normal;font-size:13.33333302px;font-family:Arial;fill:none;stroke:#000000;stroke-width:2;stroke-dasharray:none" />
  <path
     font-size="10pt"
     font-weight="normal"
     font-style="normal"
     d="M -15,20 H 85"
     id="path4"
     inkscape:connector-curvature="0"
     style="font-style:normal;font-weight:normal;font-size:13.33333302px;font-family:Arial;fill:none;stroke:#000000;stroke-width:2;stroke-dasharray:none" />
  <path
     font-size="10pt"
     font-weight="normal"
     font-style="normal"
     d="M -15,30 H 85"
     id="path6"
     inkscape:connector-curvature="0"
     style="font-style:normal;font-weight:normal;font-size:13.33333302px;font-family:Arial;fill:none;stroke:#000000;stroke-width:2;stroke-dasharray:none" />
  <path
     font-size="10pt"
     font-weight="normal"
     font-style="normal"
     d="M -15,40 H 85"
     id="path8"
     inkscape:connector-curvature="0"
     style="font-style:normal;font-weight:normal;font-size:13.33333302px;font-family:Arial;fill:none;stroke:#000000;stroke-width:2;stroke-dasharray:none" />
  <path
     font-size="10pt"
     font-weight="normal"
     font-style="normal"
     d="M -15,50 H 85"
     id="path10"
     inkscape:connector-curvature="0"
     style="font-style:normal;font-weight:normal;font-size:13.33333302px;font-family:Arial;fill:none;stroke:#000000;stroke-width:2;stroke-dasharray:none" />
  <rect
     font-size="10pt"
     font-weight="normal"
     font-style="normal"
     x="-15"
     y="9.5"
     width="1"
     height="41"
     id="rect12"
     style="font-style:normal;font-weight:normal;font-size:13.33333302px;font-family:Arial;fill:#000000;stroke:#000000;stroke-width:0.30000001;stroke-dasharray:none" />
  <rect
     font-size="10pt"
     font-weight="normal"
     font-style="normal"
     x="85"
     y="9.5"
     width="1"
     height="41"
     id="rect14"
     style="font-style:normal;font-weight:normal;font-size:13.33333302px;font-family:Arial;fill:#000000;stroke:#000000;stroke-width:0.30000001;stroke-dasharray:none" />
  <g
     class="vf-stavenote"
     id="vf-auto1148"
     transform="translate(0,-20)">
    <g
       class="vf-note"
       pointer-events="bounding-box"
       id="g20">
      <g
         class="vf-notehead"
         pointer-events="bounding-box"
         id="g18">
        <path
           font-size="10pt"
           font-weight="normal"
           font-style="normal"
           x="85"
           y="29.5"
           width="1"
           height="41"
           d="m 2,45 m 5.30712,-8.48016 c 0.11232,0 0.25272,-0.02808 0.4212,-0.02808 1.29168,0 2.47104,0.92664 2.77992,2.21832 0.02808,0.22464 0.08424,0.44928 0.08424,0.702 0,0.73008 -0.2808,1.46016 -0.75816,1.9656 l -0.08424,0.08424 0.1404,-0.02808 c 1.57248,-0.4212 2.92032,-1.76904 3.56616,-3.42576 0.02808,-0.1404 0.11232,-0.25272 0.11232,-0.2808 0.1404,-0.16848 0.30888,-0.22464 0.50544,-0.22464 0.30888,0 0.5616,0.22464 0.5616,0.5616 0,0.1404 -6.90768,23.75568 -7.02,23.92416 -0.08424,0.19656 -0.2808,0.30888 -0.50544,0.30888 -0.22464,0 -0.44928,-0.16848 -0.53352,-0.39312 -0.05616,-0.02808 -0.05616,-0.02808 -0.05616,-0.11232 0,-0.25272 0.25272,-1.01088 1.57248,-5.50368 0.8424,-2.92032 1.5444,-5.30712 1.5444,-5.30712 0,0 0,0 0,0 0,0 -0.11232,0.08424 -0.22464,0.16848 -1.03896,0.78624 -2.30256,1.20744 -3.48192,1.20744 -1.06704,0 -2.106,-0.36504 -2.92032,-1.01088 C 2.33696,50.78448 2,49.94208 2,49.0716 c 0,-0.58968 0.1404,-1.15128 0.47736,-1.71288 0.58968,-0.8424 1.48824,-1.29168 2.41488,-1.29168 0.95472,0 1.93752,0.50544 2.47104,1.48824 0.2808,0.4212 0.39312,0.92664 0.39312,1.404 0,0.73008 -0.25272,1.48824 -0.75816,1.99368 L 6.914,51.0372 7.11056,50.98104 c 1.51632,-0.4212 2.86416,-1.74096 3.51,-3.3696 0.02808,-0.1404 1.8252,-6.1776 1.8252,-6.23376 0,0 0,0 0,0 0,0 -0.11232,0.08424 -0.22464,0.19656 -1.01088,0.78624 -2.27448,1.17936 -3.48192,1.17936 -1.06704,0 -2.07792,-0.30888 -2.89224,-0.9828 -0.73008,-0.58968 -1.06704,-1.404 -1.06704,-2.21832 0,-1.404 0.95472,-2.75184 2.5272,-3.03264"
           id="path16"
           inkscape:connector-curvature="0"
           style="font-style:normal;font-weight:normal;font-size:13.33333302px;font-family:Arial;fill:#000000;stroke:none;stroke-width:0.30000001;stroke-dasharray:none" />
      </g>
    </g>
    <g
       class="vf-modifiers"
       id="g22" />
  </g>
</svg>
