<?xml version="1.0" encoding="UTF-8" standalone="no"?>
<svg
   xmlns:dc="http://purl.org/dc/elements/1.1/"
   xmlns:cc="http://creativecommons.org/ns#"
   xmlns:rdf="http://www.w3.org/1999/02/22-rdf-syntax-ns#"
   xmlns:svg="http://www.w3.org/2000/svg"
   xmlns="http://www.w3.org/2000/svg"
   xmlns:sodipodi="http://sodipodi.sourceforge.net/DTD/sodipodi-0.dtd"
   xmlns:inkscape="http://www.inkscape.org/namespaces/inkscape"
   width="40"
   height="70"
   version="1.1"
   id="svg25"
   sodipodi:docname="silencio_negra.svg"
   inkscape:version="0.92.1 r15371">
  <metadata
     id="metadata31">
    <rdf:RDF>
      <cc:Work
         rdf:about="">
        <dc:format>image/svg+xml</dc:format>
        <dc:type
           rdf:resource="http://purl.org/dc/dcmitype/StillImage" />
        <dc:title></dc:title>
      </cc:Work>
    </rdf:RDF>
  </metadata>
  <defs
     id="defs29" />
  <sodipodi:namedview
     pagecolor="#ffffff"
     bordercolor="#666666"
     borderopacity="1"
     objecttolerance="10"
     gridtolerance="10"
     guidetolerance="10"
     inkscape:pageopacity="0"
     inkscape:pageshadow="2"
     inkscape:window-width="1366"
     inkscape:window-height="745"
     id="namedview27"
     showgrid="false"
     inkscape:zoom="3.3714286"
     inkscape:cx="20"
     inkscape:cy="35"
     inkscape:window-x="-8"
     inkscape:window-y="-8"
     inkscape:window-maximized="1"
     inkscape:current-layer="svg25" />
  <path
     font-size="10pt"
     font-weight="normal"
     font-style="normal"
     d="M -15,10 H 85"
     id="path2"
     inkscape:connector-curvature="0"
     style="font-style:normal;font-weight:normal;font-size:13.33333302px;font-family:Arial;fill:none;stroke:#000000;stroke-width:2;stroke-dasharray:none" />
  <path
     font-size="10pt"
     font-weight="normal"
     font-style="normal"
     d="M -15,20 H 85"
     id="path4"
     inkscape:connector-curvature="0"
     style="font-style:normal;font-weight:normal;font-size:13.33333302px;font-family:Arial;fill:none;stroke:#000000;stroke-width:2;stroke-dasharray:none" />
  <path
     font-size="10pt"
     font-weight="normal"
     font-style="normal"
     d="M -15,30 H 85"
     id="path6"
     inkscape:connector-curvature="0"
     style="font-style:normal;font-weight:normal;font-size:13.33333302px;font-family:Arial;fill:none;stroke:#000000;stroke-width:2;stroke-dasharray:none" />
  <path
     font-size="10pt"
     font-weight="normal"
     font-style="normal"
     d="M -15,40 H 85"
     id="path8"
     inkscape:connector-curvature="0"
     style="font-style:normal;font-weight:normal;font-size:13.33333302px;font-family:Arial;fill:none;stroke:#000000;stroke-width:2;stroke-dasharray:none" />
  <path
     font-size="10pt"
     font-weight="normal"
     font-style="normal"
     d="M -15,50 H 85"
     id="path10"
     inkscape:connector-curvature="0"
     style="font-style:normal;font-weight:normal;font-size:13.33333302px;font-family:Arial;fill:none;stroke:#000000;stroke-width:2;stroke-dasharray:none" />
  <rect
     font-size="10pt"
     font-weight="normal"
     font-style="normal"
     x="-15"
     y="9.5"
     width="1"
     height="41"
     id="rect12"
     style="font-style:normal;font-weight:normal;font-size:13.33333302px;font-family:Arial;fill:#000000;stroke:#000000;stroke-width:0.30000001;stroke-dasharray:none" />
  <rect
     font-size="10pt"
     font-weight="normal"
     font-style="normal"
     x="85"
     y="9.5"
     width="1"
     height="41"
     id="rect14"
     style="font-style:normal;font-weight:normal;font-size:13.33333302px;font-family:Arial;fill:#000000;stroke:#000000;stroke-width:0.30000001;stroke-dasharray:none" />
  <g
     class="vf-stavenote"
     id="vf-auto1084"
     transform="translate(0,-20)">
    <g
       class="vf-note"
       pointer-events="bounding-box"
       id="g20">
      <g
         class="vf-notehead"
         pointer-events="bounding-box"
         id="g18">
        <path
           font-size="10pt"
           font-weight="normal"
           font-style="normal"
           x="85"
           y="29.5"
           width="1"
           height="41"
           d="M 2,45 M 3.37592,30.8196 c 0.02808,0 0.05616,-0.02808 0.11232,-0.02808 0.1404,0 0.25272,0.08424 0.47736,0.2808 0.08424,0.11232 0.22464,0.22464 0.30888,0.30888 l 0.4212,0.33696 0.4212,0.39312 0.30888,0.2808 0.33696,0.30888 1.34784,1.17936 2.04984,1.85328 c 1.03896,0.89856 1.03896,0.89856 1.03896,1.09512 v 0.02808 0.16848 L 9.94664,37.4184 c -1.37592,2.04984 -2.07792,4.40856 -2.07792,6.57072 0,2.2464 0.73008,4.3524 2.21832,5.78448 0.19656,0.25272 0.30888,0.30888 0.30888,0.39312 0.02808,0.08424 0.02808,0.11232 0.02808,0.19656 0,0.22464 -0.16848,0.4212 -0.4212,0.4212 -0.05616,0 -0.11232,0 -0.1404,0 -0.2808,-0.11232 -0.58968,-0.1404 -0.92664,-0.1404 -0.67392,0 -1.404,0.19656 -1.99368,0.58968 -1.1232,0.75816 -1.74096,1.9656 -1.74096,3.31344 0,1.23552 0.5616,2.61144 1.62864,3.67848 0.2808,0.2808 0.36504,0.44928 0.36504,0.58968 0,0.11232 -0.05616,0.19656 -0.11232,0.2808 -0.1404,0.08424 -0.19656,0.16848 -0.2808,0.16848 -0.1404,0 -0.30888,-0.1404 -0.53352,-0.2808 C 3.8252,57.01824 2.33696,54.88416 2,52.97472 2,52.80624 2,52.5816 2,52.3008 2,52.07616 2,51.79536 2.02808,51.68304 2.44928,49.97016 4.04984,48.9312 6.15584,48.9312 c 0.53352,0 1.15128,0.05616 1.71288,0.22464 0.08424,0 0.16848,0.02808 0.16848,0.02808 0,0 0,0 0,0 v 0 c 0,-0.02808 -0.16848,-0.19656 -0.39312,-0.36504 L 6.40856,47.72376 4.69568,46.15128 c -2.106,-1.8252 -2.21832,-1.9656 -2.21832,-2.106 0,-0.05616 0,-0.05616 0,-0.08424 0,0 0,-0.02808 0,-0.02808 0,-0.16848 0,-0.16848 0.22464,-0.50544 1.57248,-2.106 2.3868,-4.57704 2.3868,-6.79536 0,-1.93752 -0.61776,-3.73464 -1.79712,-4.94208 C 3.1232,31.5216 3.06704,31.32504 3.06704,31.21272 c 0,-0.19656 0.11232,-0.30888 0.30888,-0.39312"
           id="path16"
           inkscape:connector-curvature="0"
           style="font-style:normal;font-weight:normal;font-size:13.33333302px;font-family:Arial;fill:#000000;stroke:none;stroke-width:0.30000001;stroke-dasharray:none" />
      </g>
    </g>
    <g
       class="vf-modifiers"
       id="g22" />
  </g>
</svg>
