<?xml version="1.0" encoding="UTF-8" standalone="no"?>
<!-- Generator: Adobe Illustrator 19.0.0, SVG Export Plug-In . SVG Version: 6.00 Build 0)  -->

<svg
   xmlns:dc="http://purl.org/dc/elements/1.1/"
   xmlns:cc="http://creativecommons.org/ns#"
   xmlns:rdf="http://www.w3.org/1999/02/22-rdf-syntax-ns#"
   xmlns:svg="http://www.w3.org/2000/svg"
   xmlns="http://www.w3.org/2000/svg"
   xmlns:sodipodi="http://sodipodi.sourceforge.net/DTD/sodipodi-0.dtd"
   xmlns:inkscape="http://www.inkscape.org/namespaces/inkscape"
   version="1.1"
   id="Capa_1"
   x="0px"
   y="0px"
   viewBox="0 0 60 60"
   style="enable-background:new 0 0 60 60;"
   xml:space="preserve"
   sodipodi:docname="smartphoneC.svg"
   inkscape:version="0.92.1 r15371"><metadata
     id="metadata55"><rdf:RDF><cc:Work
         rdf:about=""><dc:format>image/svg+xml</dc:format><dc:type
           rdf:resource="http://purl.org/dc/dcmitype/StillImage" /><dc:title></dc:title></cc:Work></rdf:RDF></metadata><defs
     id="defs53" /><sodipodi:namedview
     pagecolor="#ffffff"
     bordercolor="#666666"
     borderopacity="1"
     objecttolerance="10"
     gridtolerance="10"
     guidetolerance="10"
     inkscape:pageopacity="0"
     inkscape:pageshadow="2"
     inkscape:window-width="1366"
     inkscape:window-height="745"
     id="namedview51"
     showgrid="false"
     inkscape:zoom="5.5625733"
     inkscape:cx="17.707048"
     inkscape:cy="23.766904"
     inkscape:window-x="-8"
     inkscape:window-y="-8"
     inkscape:window-maximized="1"
     inkscape:current-layer="Capa_1" /><g
     id="g18"
     style="stroke:#000000;stroke-opacity:1"><path
       d="M 42.595,0 H 17.405 C 14.977,0 13,1.977 13,4.405 V 55.594 C 13,58.023 14.977,60 17.405,60 H 42.594 C 45.023,60 47,58.023 47,55.595 V 4.405 C 47,1.977 45.023,0 42.595,0 Z M 15,8 H 45 V 46 H 15 Z M 17.405,2 H 42.594 C 43.921,2 45,3.079 45,4.405 V 6 H 15 V 4.405 C 15,3.079 16.079,2 17.405,2 Z m 25.19,56 H 17.405 C 16.079,58 15,56.921 15,55.595 V 48 h 30 v 7.595 C 45,56.921 43.921,58 42.595,58 Z"
       id="path2"
       inkscape:connector-curvature="0"
       style="stroke:#000000;stroke-opacity:1" /><path
       d="m 30,49 c -2.206,0 -4,1.794 -4,4 0,2.206 1.794,4 4,4 2.206,0 4,-1.794 4,-4 0,-2.206 -1.794,-4 -4,-4 z m 0,6 c -1.103,0 -2,-0.897 -2,-2 0,-1.103 0.897,-2 2,-2 1.103,0 2,0.897 2,2 0,1.103 -0.897,2 -2,2 z"
       id="path4"
       inkscape:connector-curvature="0"
       style="stroke:#000000;stroke-opacity:1" /><path
       d="m 56.612,4.569 c -0.391,-0.391 -1.023,-0.391 -1.414,0 -0.391,0.391 -0.391,1.023 0,1.414 3.736,3.736 3.736,9.815 0,13.552 -0.391,0.391 -0.391,1.023 0,1.414 0.195,0.195 0.451,0.293 0.707,0.293 0.256,0 0.512,-0.098 0.707,-0.293 4.516,-4.515 4.516,-11.864 0,-16.38 z"
       id="path10"
       inkscape:connector-curvature="0"
       style="stroke:#000000;stroke-opacity:1" /><path
       d="m 52.401,6.845 c -0.391,-0.391 -1.023,-0.391 -1.414,0 -0.391,0.391 -0.391,1.023 0,1.414 1.237,1.237 1.918,2.885 1.918,4.639 0,1.754 -0.681,3.401 -1.918,4.638 -0.391,0.391 -0.391,1.023 0,1.414 0.195,0.195 0.451,0.293 0.707,0.293 0.256,0 0.512,-0.098 0.707,-0.293 1.615,-1.614 2.504,-3.764 2.504,-6.052 0,-2.288 -0.888,-4.439 -2.504,-6.053 z"
       id="path12"
       inkscape:connector-curvature="0"
       style="stroke:#000000;stroke-opacity:1" /><path
       d="m 4.802,5.983 c 0.391,-0.391 0.391,-1.023 0,-1.414 -0.391,-0.391 -1.023,-0.391 -1.414,0 -4.516,4.516 -4.516,11.864 0,16.38 0.195,0.195 0.451,0.293 0.707,0.293 0.256,0 0.512,-0.098 0.707,-0.293 0.391,-0.391 0.391,-1.023 0,-1.414 -3.737,-3.736 -3.737,-9.815 0,-13.552 z"
       id="path14"
       inkscape:connector-curvature="0"
       style="stroke:#000000;stroke-opacity:1" /><path
       d="M 9.013,6.569 C 8.622,6.178 7.99,6.178 7.599,6.569 5.984,8.183 5.095,10.333 5.095,12.621 c 0,2.288 0.889,4.438 2.504,6.053 0.195,0.195 0.451,0.293 0.707,0.293 0.256,0 0.512,-0.098 0.707,-0.293 0.391,-0.391 0.391,-1.023 0,-1.414 -1.237,-1.237 -1.918,-2.885 -1.918,-4.639 0,-1.754 0.68,-3.401 1.918,-4.638 0.39,-0.39 0.39,-1.023 0,-1.414 z"
       id="path16"
       inkscape:connector-curvature="0"
       style="stroke:#000000;stroke-opacity:1" /></g><g
     id="g20" /><g
     id="g22" /><g
     id="g24" /><g
     id="g26" /><g
     id="g28" /><g
     id="g30" /><g
     id="g32" /><g
     id="g34" /><g
     id="g36" /><g
     id="g38" /><g
     id="g40" /><g
     id="g42" /><g
     id="g44" /><g
     id="g46" /><g
     id="g48" /><text
     xml:space="preserve"
     style="font-style:normal;font-variant:normal;font-weight:normal;font-stretch:normal;font-size:5.33333349px;line-height:1.25;font-family:sans-serif;-inkscape-font-specification:'sans-serif, Normal';font-variant-ligatures:normal;font-variant-caps:normal;font-variant-numeric:normal;font-feature-settings:normal;text-align:start;letter-spacing:0px;word-spacing:0px;writing-mode:lr-tb;text-anchor:start;fill:#000000;fill-opacity:1;stroke:none"
     x="22.881355"
     y="29.745764"
     id="text4534"><tspan
       sodipodi:role="line"
       id="tspan4532"
       x="22.881355"
       y="34.611526" /></text>
<text
     xml:space="preserve"
     style="font-style:normal;font-variant:normal;font-weight:normal;font-stretch:normal;font-size:5.33333349px;line-height:1.25;font-family:sans-serif;-inkscape-font-specification:'sans-serif, Normal';font-variant-ligatures:normal;font-variant-caps:normal;font-variant-numeric:normal;font-feature-settings:normal;text-align:start;letter-spacing:0px;word-spacing:0px;writing-mode:lr-tb;text-anchor:start;fill:#000000;fill-opacity:1;stroke:none"
     x="22.118645"
     y="31.016949"
     id="text4538"><tspan
       sodipodi:role="line"
       id="tspan4536"
       x="22.118645"
       y="35.88271" /></text>
<text
     xml:space="preserve"
     style="font-style:normal;font-variant:normal;font-weight:normal;font-stretch:normal;font-size:42.66666794px;line-height:1.25;font-family:sans-serif;-inkscape-font-specification:'sans-serif, Normal';font-variant-ligatures:normal;font-variant-caps:normal;font-variant-numeric:normal;font-feature-settings:normal;text-align:start;letter-spacing:0px;word-spacing:0px;writing-mode:lr-tb;text-anchor:start;fill:#000000;fill-opacity:1;stroke:#000000;stroke-opacity:1;"
     x="17.542374"
     y="37.372883"
     id="text4542"><tspan
       sodipodi:role="line"
       id="tspan4540"
       x="17.542374"
       y="37.372883"
       style="font-style:normal;font-variant:normal;font-weight:normal;font-stretch:normal;font-size:42.66666794px;font-family:sans-serif;-inkscape-font-specification:'sans-serif, Normal';font-variant-ligatures:normal;font-variant-caps:normal;font-variant-numeric:normal;font-feature-settings:normal;text-align:start;writing-mode:lr-tb;text-anchor:start;stroke:#000000;stroke-opacity:1;">c</tspan></text>
</svg>