<?xml version="1.0" encoding="UTF-8" standalone="no"?>
<!-- Generator: Adobe Illustrator 19.0.0, SVG Export Plug-In . SVG Version: 6.00 Build 0)  -->

<svg
   xmlns:dc="http://purl.org/dc/elements/1.1/"
   xmlns:cc="http://creativecommons.org/ns#"
   xmlns:rdf="http://www.w3.org/1999/02/22-rdf-syntax-ns#"
   xmlns:svg="http://www.w3.org/2000/svg"
   xmlns="http://www.w3.org/2000/svg"
   xmlns:sodipodi="http://sodipodi.sourceforge.net/DTD/sodipodi-0.dtd"
   xmlns:inkscape="http://www.inkscape.org/namespaces/inkscape"
   version="1.1"
   id="Capa_1"
   x="0px"
   y="0px"
   viewBox="0 0 384 640"
   xml:space="preserve"
   sodipodi:docname="three.svg"
   width="384"
   height="640"
   inkscape:version="0.92.1 r15371"><metadata
     id="metadata43"><rdf:RDF><cc:Work
         rdf:about=""><dc:format>image/svg+xml</dc:format><dc:type
           rdf:resource="http://purl.org/dc/dcmitype/StillImage" /><dc:title></dc:title></cc:Work></rdf:RDF></metadata><defs
     id="defs41" /><sodipodi:namedview
     pagecolor="#ffffff"
     bordercolor="#666666"
     borderopacity="1"
     objecttolerance="10"
     gridtolerance="10"
     guidetolerance="10"
     inkscape:pageopacity="0"
     inkscape:pageshadow="2"
     inkscape:window-width="1366"
     inkscape:window-height="745"
     id="namedview39"
     showgrid="false"
     inkscape:zoom="0.61458333"
     inkscape:cx="-44.981841"
     inkscape:cy="192"
     inkscape:window-x="-8"
     inkscape:window-y="-8"
     inkscape:window-maximized="1"
     inkscape:current-layer="Capa_1" /><g
     id="g6"
     transform="translate(0,128)"><g
       id="g4"><path
         d="M 341.333,0 H 42.667 C 19.093,0 0,19.093 0,42.667 V 341.334 C 0,364.907 19.093,384 42.667,384 H 341.334 C 364.907,384 384,364.907 384,341.333 V 42.667 C 384,19.093 364.907,0 341.333,0 Z M 256,160 c 0,17.707 -14.293,32 -32,32 17.707,0 32,14.293 32,32 v 32 c 0,23.573 -19.093,42.667 -42.667,42.667 H 128 V 256 h 85.333 v -42.667 h -42.667 v -42.667 h 42.667 V 128 H 128 V 85.333 h 85.333 C 236.907,85.333 256,104.427 256,128 Z"
         id="path2"
         inkscape:connector-curvature="0" /></g></g><g
     id="g8"
     transform="translate(0,256)" /><g
     id="g10"
     transform="translate(0,256)" /><g
     id="g12"
     transform="translate(0,256)" /><g
     id="g14"
     transform="translate(0,256)" /><g
     id="g16"
     transform="translate(0,256)" /><g
     id="g18"
     transform="translate(0,256)" /><g
     id="g20"
     transform="translate(0,256)" /><g
     id="g22"
     transform="translate(0,256)" /><g
     id="g24"
     transform="translate(0,256)" /><g
     id="g26"
     transform="translate(0,256)" /><g
     id="g28"
     transform="translate(0,256)" /><g
     id="g30"
     transform="translate(0,256)" /><g
     id="g32"
     transform="translate(0,256)" /><g
     id="g34"
     transform="translate(0,256)" /><g
     id="g36"
     transform="translate(0,256)" /></svg>