<?xml version="1.0" encoding="iso-8859-1"?>
<!-- Generator: Adobe Illustrator 16.0.0, SVG Export Plug-In . SVG Version: 6.00 Build 0)  -->
<!DOCTYPE svg PUBLIC "-//W3C//DTD SVG 1.1//EN" "http://www.w3.org/Graphics/SVG/1.1/DTD/svg11.dtd">
<svg version="1.1" id="Capa_1" xmlns="http://www.w3.org/2000/svg" xmlns:xlink="http://www.w3.org/1999/xlink" x="0px" y="0px"
	 width="124px" height="124px" viewBox="0 0 124 124" style="enable-background:new 0 0 124 124;" xml:space="preserve">
<g>
	<path d="M117.151,0h-12c-3.3,0-6,2.7-6,6v112c0,3.301,2.7,6,6,6h12c3.3,0,6-2.699,6-6V6C123.151,2.7,120.451,0,117.151,0z"/>
	<path d="M7.051,76.7h25c3.4,0,6.2,2.8,6.2,6.2V93.6c0,5.201,6,8.101,10.1,4.9l40-31.1c3.2-2.5,3.2-7.4,0-9.9l-40-32
		c-4.1-3.2-10.1-0.3-10.1,5v10.7c0,3.4-2.8,6.2-6.2,6.2h-25c-3.4,0-6.2,2.8-6.2,6.2v16.8C0.751,73.9,3.551,76.7,7.051,76.7z"/>
</g>
<g>
</g>
<g>
</g>
<g>
</g>
<g>
</g>
<g>
</g>
<g>
</g>
<g>
</g>
<g>
</g>
<g>
</g>
<g>
</g>
<g>
</g>
<g>
</g>
<g>
</g>
<g>
</g>
<g>
</g>
</svg>
