<?xml version="1.0" encoding="UTF-8" standalone="no"?>
<!-- Created with Inkscape (http://www.inkscape.org/) -->

<svg
   xmlns:dc="http://purl.org/dc/elements/1.1/"
   xmlns:cc="http://creativecommons.org/ns#"
   xmlns:rdf="http://www.w3.org/1999/02/22-rdf-syntax-ns#"
   xmlns:svg="http://www.w3.org/2000/svg"
   xmlns="http://www.w3.org/2000/svg"
   xmlns:sodipodi="http://sodipodi.sourceforge.net/DTD/sodipodi-0.dtd"
   xmlns:inkscape="http://www.inkscape.org/namespaces/inkscape"
   width="32mm"
   height="32mm"
   viewBox="0 0 32 32"
   version="1.1"
   id="svg4534"
   inkscape:version="0.92.1 r15371"
   sodipodi:docname="tx.svg">
  <defs
     id="defs4528" />
  <sodipodi:namedview
     id="base"
     pagecolor="#ffffff"
     bordercolor="#666666"
     borderopacity="1.0"
     inkscape:pageopacity="0.0"
     inkscape:pageshadow="2"
     inkscape:zoom="1.4"
     inkscape:cx="-51.224196"
     inkscape:cy="159.77779"
     inkscape:document-units="mm"
     inkscape:current-layer="layer1"
     showgrid="false"
     inkscape:window-width="1366"
     inkscape:window-height="745"
     inkscape:window-x="-8"
     inkscape:window-y="-8"
     inkscape:window-maximized="1" />
  <metadata
     id="metadata4531">
    <rdf:RDF>
      <cc:Work
         rdf:about="">
        <dc:format>image/svg+xml</dc:format>
        <dc:type
           rdf:resource="http://purl.org/dc/dcmitype/StillImage" />
        <dc:title></dc:title>
      </cc:Work>
    </rdf:RDF>
  </metadata>
  <g
     inkscape:label="Layer 1"
     inkscape:groupmode="layer"
     id="layer1"
     transform="translate(0,-265)">
    <path
       style="opacity:1;fill:#000000;fill-opacity:1;fill-rule:evenodd;stroke:none;stroke-width:3.38403964;stroke-linecap:round;stroke-linejoin:round;stroke-miterlimit:4;stroke-dasharray:none;stroke-dashoffset:0;stroke-opacity:1;paint-order:markers fill stroke"
       d="m 20.863281,1.7402344 c -10.647718,0 -19.2207029,8.5729846 -19.2207029,19.2207036 v 79.121092 c 0,10.64772 8.5729849,19.2207 19.2207029,19.2207 h 79.121094 c 10.647715,0 19.218745,-8.57298 19.218745,-19.2207 V 20.960938 c 0,-10.647719 -8.57103,-19.2207036 -19.218745,-19.2207036 z m -9.8125,30.5078126 h 44.859375 v 9.548828 H 39.199219 V 88.697266 H 27.800781 V 41.796875 h -16.75 z m 48.169922,0 H 72.542969 L 83.863281,50.384766 94.953125,32.248047 H 108.16016 L 90.601562,59.664062 109.89258,88.697266 H 96.146484 L 83.632812,69.173828 71.080078,88.697266 H 57.412109 L 76.701172,59.240234 Z"
       transform="matrix(0.26458333,0,0,0.26458333,0,265)"
       id="rect4491"
       inkscape:connector-curvature="0" />
  </g>
</svg>
