<?xml version="1.0" encoding="UTF-8" standalone="no"?>
<!-- Generator: Adobe Illustrator 19.0.0, SVG Export Plug-In . SVG Version: 6.00 Build 0)  -->

<svg
   xmlns:dc="http://purl.org/dc/elements/1.1/"
   xmlns:cc="http://creativecommons.org/ns#"
   xmlns:rdf="http://www.w3.org/1999/02/22-rdf-syntax-ns#"
   xmlns:svg="http://www.w3.org/2000/svg"
   xmlns="http://www.w3.org/2000/svg"
   xmlns:sodipodi="http://sodipodi.sourceforge.net/DTD/sodipodi-0.dtd"
   xmlns:inkscape="http://www.inkscape.org/namespaces/inkscape"
   version="1.1"
   id="Layer_1"
   x="0px"
   y="0px"
   viewBox="0 0 183 232"
   xml:space="preserve"
   sodipodi:docname="ultrasound.svg"
   width="183"
   height="232"
   inkscape:version="0.92.1 r15371"><metadata
     id="metadata79"><rdf:RDF><cc:Work
         rdf:about=""><dc:format>image/svg+xml</dc:format><dc:type
           rdf:resource="http://purl.org/dc/dcmitype/StillImage" /><dc:title></dc:title></cc:Work></rdf:RDF></metadata><defs
     id="defs77" /><sodipodi:namedview
     pagecolor="#ffffff"
     bordercolor="#666666"
     borderopacity="1"
     objecttolerance="10"
     gridtolerance="10"
     guidetolerance="10"
     inkscape:pageopacity="0"
     inkscape:pageshadow="2"
     inkscape:window-width="1366"
     inkscape:window-height="745"
     id="namedview75"
     showgrid="false"
     inkscape:zoom="0.4609375"
     inkscape:cx="597.89503"
     inkscape:cy="-41.871815"
     inkscape:window-x="-8"
     inkscape:window-y="-8"
     inkscape:window-maximized="1"
     inkscape:current-layer="Layer_1" /><g
     id="g6"
     transform="matrix(1,0,0,-1,-170.17057,312.22941)"><g
       id="g4"><path
         d="m 351.195,269.926 c -4.142,-8.239 -14.173,-11.571 -22.402,-7.456 -20.892,10.451 -43.5,15.75 -67.228,15.75 -23.728,0 -46.337,-5.299 -67.228,-15.75 -8.218,-4.114 -18.251,-0.782 -22.402,7.456 -4.119,8.244 -0.782,18.277 7.467,22.402 25.554,12.793 53.207,19.282 82.163,19.282 28.956,0 56.608,-6.489 82.163,-19.282 8.25,-4.124 11.587,-14.157 7.467,-22.402 z"
         id="path2"
         inkscape:connector-curvature="0" /></g></g><g
     id="g12"
     transform="matrix(1,0,0,-1,-170.17057,312.22941)"><g
       id="g10"><path
         d="m 321.305,210.16 c -4.119,-8.244 -14.164,-11.603 -22.391,-7.484 -23.392,11.674 -51.305,11.674 -74.695,0 -8.24,-4.119 -18.273,-0.76 -22.392,7.484 -4.119,8.25 -0.771,18.277 7.479,22.397 16.358,8.163 34.315,12.245 52.261,12.245 17.946,0 35.902,-4.082 52.261,-12.245 8.248,-4.119 11.596,-14.147 7.477,-22.397 z"
         id="path8"
         inkscape:connector-curvature="0" /></g></g><path
     d="m 91.982777,231.99944 c -23.215102,0.1362 -50.33374,-24.56404 -50.675347,-47.77703 -0.34743,-23.60868 26.475762,-50.087 50.087,-50.087 23.61124,0 50.29592,26.47669 50.087,50.087 -0.2029,22.93079 -26.56736,47.64249 -49.498653,47.77703 z"
     id="path14"
     inkscape:connector-curvature="0"
     sodipodi:nodetypes="aaaaa" /><g
     id="g44"
     transform="translate(0,-280)" /><g
     id="g46"
     transform="translate(0,-280)" /><g
     id="g48"
     transform="translate(0,-280)" /><g
     id="g50"
     transform="translate(0,-280)" /><g
     id="g52"
     transform="translate(0,-280)" /><g
     id="g54"
     transform="translate(0,-280)" /><g
     id="g56"
     transform="translate(0,-280)" /><g
     id="g58"
     transform="translate(0,-280)" /><g
     id="g60"
     transform="translate(0,-280)" /><g
     id="g62"
     transform="translate(0,-280)" /><g
     id="g64"
     transform="translate(0,-280)" /><g
     id="g66"
     transform="translate(0,-280)" /><g
     id="g68"
     transform="translate(0,-280)" /><g
     id="g70"
     transform="translate(0,-280)" /><g
     id="g72"
     transform="translate(0,-280)" /></svg>