<?xml version="1.0" encoding="UTF-8" standalone="no"?>
<!-- Generator: Adobe Illustrator 18.1.1, SVG Export Plug-In . SVG Version: 6.00 Build 0)  -->

<svg
   xmlns:dc="http://purl.org/dc/elements/1.1/"
   xmlns:cc="http://creativecommons.org/ns#"
   xmlns:rdf="http://www.w3.org/1999/02/22-rdf-syntax-ns#"
   xmlns:svg="http://www.w3.org/2000/svg"
   xmlns="http://www.w3.org/2000/svg"
   xmlns:sodipodi="http://sodipodi.sourceforge.net/DTD/sodipodi-0.dtd"
   xmlns:inkscape="http://www.inkscape.org/namespaces/inkscape"
   version="1.1"
   id="Capa_1"
   x="0px"
   y="0px"
   viewBox="0 0 806.852 415.852"
   xml:space="preserve"
   sodipodi:docname="upper2lower.svg"
   width="806.85199"
   height="415.85199"
   inkscape:version="0.92.1 r15371"><metadata
     id="metadata43"><rdf:RDF><cc:Work
         rdf:about=""><dc:format>image/svg+xml</dc:format><dc:type
           rdf:resource="http://purl.org/dc/dcmitype/StillImage" /><dc:title></dc:title></cc:Work></rdf:RDF></metadata><defs
     id="defs41" /><sodipodi:namedview
     pagecolor="#ffffff"
     bordercolor="#666666"
     borderopacity="1"
     objecttolerance="10"
     gridtolerance="10"
     guidetolerance="10"
     inkscape:pageopacity="0"
     inkscape:pageshadow="2"
     inkscape:window-width="1366"
     inkscape:window-height="745"
     id="namedview39"
     showgrid="false"
     inkscape:zoom="0.41125587"
     inkscape:cx="286.92599"
     inkscape:cy="286.92599"
     inkscape:window-x="-8"
     inkscape:window-y="-8"
     inkscape:window-maximized="1"
     inkscape:current-layer="Capa_1" /><g
     id="g8"
     transform="translate(0,-158)" /><g
     id="g10"
     transform="translate(0,-158)" /><g
     id="g12"
     transform="translate(0,-158)" /><g
     id="g14"
     transform="translate(0,-158)" /><g
     id="g16"
     transform="translate(0,-158)" /><g
     id="g18"
     transform="translate(0,-158)" /><g
     id="g20"
     transform="translate(0,-158)" /><g
     id="g22"
     transform="translate(0,-158)" /><g
     id="g24"
     transform="translate(0,-158)" /><g
     id="g26"
     transform="translate(0,-158)" /><g
     id="g28"
     transform="translate(0,-158)" /><g
     id="g30"
     transform="translate(0,-158)" /><g
     id="g32"
     transform="translate(0,-158)" /><g
     id="g34"
     transform="translate(0,-158)" /><g
     id="g36"
     transform="translate(0,-158)" /><g
     id="g4564"
     transform="translate(2.171256,-73.033003)"><path
       sodipodi:nodetypes="csscccssccccscssscccccc"
       inkscape:connector-curvature="0"
       id="path2"
       d="m 686.96121,83.128997 c -1.632,-4.488 -4.692,-6.732 -9.18,-6.732 h -78.947 c -4.488,0 -7.548,2.244 -9.18,6.732 L 469.70221,477.257 c -0.816,3.672 -0.408,6.321 1.224,7.953 1.632,2.448 4.284,3.675 7.956,3.675 h 70.992 c 4.896,0 7.956,-2.244 9.18,-6.732 l 20.196,-70.992 h 118.117 l 20.196,70.992 c 1.224,4.488 4.08,6.732 8.568,6.732 h 71.604 0.609 c 2.448,0 4.593,-0.817 6.429,-2.448 1.836,-1.631 2.754,-3.876 2.754,-6.732 0,-0.814 -0.409,-2.446 -1.227,-4.896 z m -89.351,251.532003 40.392,-144.432 41.004,144.432 z"
       style="fill:#010002" /><path
       sodipodi:nodetypes="csccccccsscscccscccsccscsscscccscscsccc"
       inkscape:connector-curvature="0"
       id="path2-1"
       d="m 202.23475,198.94481 c -19.176,-17.544 -46.103,-26.316 -80.781,-26.316 -21.623996,0 -41.615996,3.57 -59.976996,10.709 -18.361,7.14 -34.476,17.646 -48.34801,31.518 -3.267,3.264 -3.876,6.936 -1.836,11.016 l 22.64401,39.167 c 1.225,2.447 3.467,4.08 6.732,4.896 2.854,0.817 5.508,0 7.956,-2.448 18.768,-19.176 39.575,-28.764 62.423996,-28.764 29.375,0 44.062,14.077 44.062,42.228 v 17.748 c -17.135,-13.464 -38.351,-20.193 -63.645996,-20.193 -11.424,0 -22.746,1.937 -33.966,5.812 -11.222,3.876 -21.219,9.792 -29.988,17.748 -8.77301,7.956 -15.91201,18.157 -21.42001,30.603 -5.50799997,12.442 -8.262,27.027 -8.262,43.758 0,16.317 2.64900003,30.6 7.953,42.84 5.307,12.24 12.444,22.542 21.42301,30.906 8.975,8.362 18.971,14.688 29.985,18.972 11.018,4.284 22.44,6.426 34.272,6.426 11.831996,0 23.254996,-1.836 34.270996,-5.508 11.019,-3.672 20.811,-8.975 29.376,-15.912 v 5.508 c 0,2.448 0.918,4.593 2.754,6.429 1.839,1.836 3.979,2.754 6.429,2.754 h 57.525 c 2.448,0 4.592,-0.918 6.429,-2.754 1.836,-1.836 2.754,-3.979 2.754,-6.429 v -186.05 c 0.001,-32.232 -9.587,-57.12 -28.765,-74.664 z m -47.123,198.287 c -8.976,13.872 -23.256,20.811 -42.84,20.811 -11.832,0 -21.214996,-3.774 -28.148996,-11.322 -6.938,-7.548 -10.404,-17.443 -10.404,-29.685 0,-12.237 3.467,-22.233 10.404,-29.985 6.935,-7.752 16.316996,-11.628 28.148996,-11.628 5.712,0 12.854,1.325 21.42,3.978 8.568,2.653 15.708,8.67 21.42,18.054 z"
       style="fill:#010002" /><g
       transform="matrix(0,0.4615533,-0.43987064,0,472.32844,230.73424)"
       id="g6"><g
         id="g4"><path
           inkscape:connector-curvature="0"
           id="path2-2"
           d="m 479.046,283.925 c -1.664,-3.989 -5.547,-6.592 -9.856,-6.592 H 352.305 V 10.667 C 352.305,4.779 347.526,0 341.638,0 H 170.971 c -5.888,0 -10.667,4.779 -10.667,10.667 V 277.334 H 42.971 c -4.309,0 -8.192,2.603 -9.856,6.571 -1.643,3.989 -0.747,8.576 2.304,11.627 l 212.8,213.504 c 2.005,2.005 4.715,3.136 7.552,3.136 2.837,0 5.547,-1.131 7.552,-3.115 L 476.742,295.553 c 3.051,-3.052 3.968,-7.638 2.304,-11.628 z" /></g></g></g></svg>